{"glyphs":{"0":{"ha":985,"x_min":81,"x_max":904,"o":"m 493 -17 q 272 46 365 -17 q 130 220 179 108 q 81 475 81 332 q 130 730 81 618 q 272 905 179 842 q 493 968 365 968 q 714 905 621 968 q 856 731 807 842 q 904 475 904 619 q 856 220 904 332 q 714 46 807 108 q 493 -17 621 -17 m 492 58 q 652 110 585 58 q 756 257 719 163 q 792 475 792 351 q 756 693 792 599 q 652 840 719 788 q 492 893 585 893 q 332 840 400 893 q 228 693 264 788 q 193 475 193 599 q 228 257 193 351 q 332 110 264 163 q 492 58 400 58 z "},"1":{"ha":604,"x_min":75,"x_max":517,"o":"m 99 0 q 81 8 88 0 q 75 31 75 17 q 89 60 75 50 q 126 71 103 71 l 247 71 l 247 878 l 110 836 q 91 844 99 836 q 83 865 83 851 q 128 914 83 900 l 249 951 l 358 951 l 358 69 l 471 56 q 517 21 517 50 q 500 0 517 0 l 99 0 z "},"2":{"ha":810,"x_min":90,"x_max":722,"o":"m 90 97 l 422 436 q 546 583 503 517 q 589 719 589 650 q 538 847 589 804 q 406 889 486 889 q 294 874 349 889 q 197 832 240 858 l 178 743 q 161 697 171 710 q 135 685 151 685 q 119 691 125 685 q 114 706 114 697 l 114 869 q 261 940 181 914 q 422 965 342 965 q 627 901 550 965 q 704 713 704 836 q 652 547 704 629 q 497 358 600 464 l 222 81 l 222 75 l 722 75 l 722 0 l 90 0 l 90 97 z "},"3":{"ha":813,"x_min":76,"x_max":715,"o":"m 365 -14 q 208 1 286 -14 q 76 40 131 17 l 76 119 q 214 77 139 93 q 356 61 289 61 q 540 113 476 61 q 603 261 603 165 q 542 397 603 343 q 388 451 482 451 q 331 447 367 451 q 239 435 296 443 l 239 511 l 344 525 q 506 587 443 538 q 568 722 568 636 q 517 847 568 806 q 381 889 465 889 q 270 874 325 889 q 172 832 215 858 l 154 743 q 138 697 147 710 q 111 685 128 685 q 96 691 101 685 q 90 706 90 697 l 90 869 q 239 940 157 914 q 401 965 321 965 q 601 907 521 965 q 681 733 681 849 q 627 585 681 646 q 479 497 574 524 q 652 415 589 482 q 715 253 715 349 q 620 56 715 125 q 365 -14 525 -14 z "},"4":{"ha":863,"x_min":53,"x_max":783,"o":"m 536 224 l 53 224 l 53 310 l 507 951 l 647 951 l 647 300 l 783 300 l 783 224 l 647 224 l 647 0 l 536 0 l 536 224 m 536 300 l 536 856 l 144 300 l 536 300 z "},"5":{"ha":756,"x_min":67,"x_max":689,"o":"m 344 -14 q 67 39 194 -14 l 67 118 q 197 77 128 93 q 331 61 265 61 q 508 115 440 61 q 576 274 576 169 q 511 444 576 390 q 339 497 446 497 q 150 471 260 497 l 97 518 l 133 951 l 615 951 l 615 876 l 236 876 l 210 550 q 381 574 297 574 q 601 499 514 574 q 689 282 689 424 q 592 63 689 139 q 344 -14 496 -14 z "},"6":{"ha":813,"x_min":81,"x_max":733,"o":"m 422 -14 q 167 108 253 -14 q 81 449 81 231 q 130 715 81 599 q 280 899 179 832 q 529 965 381 965 q 635 951 579 965 l 635 879 q 533 892 582 892 q 283 787 374 892 q 192 486 192 682 q 446 572 317 572 q 657 498 581 572 q 733 297 733 424 q 692 128 733 199 q 579 22 650 58 q 422 -14 508 -14 m 417 61 q 564 126 507 61 q 621 294 621 190 q 567 446 621 396 q 418 496 514 496 q 300 470 363 496 q 193 408 238 444 q 251 156 193 251 q 417 61 308 61 z "},"7":{"ha":772,"x_min":67,"x_max":707,"o":"m 583 878 l 140 878 l 126 807 q 88 761 117 761 q 67 782 67 761 l 67 951 l 707 951 l 707 885 l 349 0 l 225 0 l 583 878 z "},"8":{"ha":860,"x_min":94,"x_max":765,"o":"m 431 -15 q 187 52 279 -15 q 94 238 94 119 q 154 381 94 314 q 329 499 214 447 q 179 611 228 553 q 131 744 131 669 q 168 858 131 807 q 274 938 206 908 q 432 967 343 967 q 590 938 524 967 q 692 859 657 910 q 728 744 728 808 q 681 613 728 672 q 531 500 633 554 q 710 380 656 442 q 765 243 765 318 q 723 107 765 165 q 605 17 681 49 q 431 -15 529 -15 m 435 543 q 572 633 524 585 q 621 743 621 682 q 567 852 621 813 q 431 892 514 892 q 296 852 349 892 q 243 743 243 813 q 292 636 243 681 q 435 543 340 592 m 428 60 q 589 107 526 60 q 651 238 651 154 q 593 357 651 304 q 428 454 535 410 q 263 358 322 411 q 203 235 203 304 q 265 106 203 153 q 428 60 326 60 z "},"9":{"ha":813,"x_min":81,"x_max":733,"o":"m 300 -14 q 233 -10 268 -14 q 174 1 197 -6 l 174 75 q 289 60 231 60 q 532 156 443 60 q 622 442 621 251 q 513 376 574 400 q 385 351 453 351 q 229 388 299 351 q 120 491 160 424 q 81 649 81 558 q 124 819 81 747 q 240 928 167 890 q 403 965 314 965 q 652 845 571 965 q 733 503 733 725 q 624 126 733 267 q 300 -14 514 -14 m 403 428 q 621 524 515 428 q 568 792 621 693 q 408 890 515 890 q 253 825 313 890 q 193 651 193 760 q 251 485 193 542 q 403 428 308 428 z "},"\u0000":{"ha":694,"x_min":0,"x_max":0,"o":""},"\r":{"ha":400,"x_min":0,"x_max":0,"o":""}," ":{"ha":400,"x_min":0,"x_max":0,"o":""},"A":{"ha":988,"x_min":11,"x_max":978,"o":"m 35 0 q 11 29 11 0 q 24 58 11 47 q 61 68 38 68 l 103 68 l 426 965 l 554 965 l 878 69 l 939 56 q 978 21 978 47 q 963 0 978 0 l 681 0 q 663 8 669 0 q 657 29 657 15 q 671 58 657 47 q 708 68 685 68 l 765 68 l 676 315 l 278 315 l 190 69 l 272 53 q 311 19 311 46 q 296 0 311 0 l 35 0 m 649 390 l 476 871 l 304 390 l 649 390 z "},"Á":{"ha":988,"x_min":11,"x_max":978,"o":"m 422 1083 l 543 1286 l 626 1232 l 485 1043 l 422 1083 m 35 0 q 11 29 11 0 q 24 58 11 47 q 61 68 38 68 l 103 68 l 426 965 l 554 965 l 878 69 l 939 56 q 978 21 978 47 q 963 0 978 0 l 681 0 q 663 8 669 0 q 657 29 657 15 q 671 58 657 47 q 708 68 685 68 l 765 68 l 676 315 l 278 315 l 190 69 l 272 53 q 311 19 311 46 q 296 0 311 0 l 35 0 m 649 390 l 476 871 l 304 390 l 649 390 z "},"Ă":{"ha":988,"x_min":11,"x_max":978,"o":"m 485 1038 q 360 1078 414 1038 q 282 1204 306 1118 l 346 1226 q 397 1144 361 1175 q 485 1113 433 1113 q 572 1144 536 1113 q 624 1226 608 1175 l 688 1204 q 610 1078 664 1118 q 485 1038 556 1038 m 35 0 q 11 29 11 0 q 24 58 11 47 q 61 68 38 68 l 103 68 l 426 965 l 554 965 l 878 69 l 939 56 q 978 21 978 47 q 963 0 978 0 l 681 0 q 663 8 669 0 q 657 29 657 15 q 671 58 657 47 q 708 68 685 68 l 765 68 l 676 315 l 278 315 l 190 69 l 272 53 q 311 19 311 46 q 296 0 311 0 l 35 0 m 649 390 l 476 871 l 304 390 l 649 390 z "},"Ắ":{"ha":988,"x_min":11,"x_max":978,"o":"m 439 1247 l 549 1435 l 628 1385 l 496 1211 l 439 1247 m 488 1038 q 363 1078 417 1038 q 285 1204 308 1118 l 349 1226 q 400 1144 364 1175 q 488 1113 436 1113 q 575 1144 539 1113 q 626 1226 611 1175 l 690 1204 q 613 1078 667 1118 q 488 1038 558 1038 m 35 0 q 11 29 11 0 q 24 58 11 47 q 61 68 38 68 l 103 68 l 426 965 l 554 965 l 878 69 l 939 56 q 978 21 978 47 q 963 0 978 0 l 681 0 q 663 8 669 0 q 657 29 657 15 q 671 58 657 47 q 708 68 685 68 l 765 68 l 676 315 l 278 315 l 190 69 l 272 53 q 311 19 311 46 q 296 0 311 0 l 35 0 m 649 390 l 476 871 l 304 390 l 649 390 z "},"Ặ":{"ha":988,"x_min":11,"x_max":978,"o":"m 485 1038 q 360 1078 414 1038 q 282 1204 306 1118 l 346 1226 q 397 1144 361 1175 q 485 1113 433 1113 q 572 1144 536 1113 q 624 1226 608 1175 l 688 1204 q 610 1078 664 1118 q 485 1038 556 1038 m 35 0 q 11 29 11 0 q 24 58 11 47 q 61 68 38 68 l 103 68 l 426 965 l 554 965 l 878 69 l 939 56 q 978 21 978 47 q 963 0 978 0 l 681 0 q 663 8 669 0 q 657 29 657 15 q 671 58 657 47 q 708 68 685 68 l 765 68 l 676 315 l 278 315 l 190 69 l 272 53 q 311 19 311 46 q 296 0 311 0 l 35 0 m 649 390 l 476 871 l 304 390 l 649 390 m 482 -228 q 434 -208 454 -228 q 414 -160 414 -189 q 434 -110 414 -131 q 482 -90 454 -90 q 531 -110 511 -90 q 550 -160 550 -131 q 530 -208 550 -189 q 482 -228 510 -228 z "},"Ằ":{"ha":988,"x_min":11,"x_max":978,"o":"m 344 1385 l 424 1435 l 533 1247 l 475 1211 l 344 1385 m 483 1038 q 358 1078 413 1038 q 281 1204 304 1118 l 344 1226 q 396 1144 360 1175 q 483 1113 432 1113 q 571 1144 535 1113 q 622 1226 607 1175 l 686 1204 q 608 1078 663 1118 q 483 1038 554 1038 m 35 0 q 11 29 11 0 q 24 58 11 47 q 61 68 38 68 l 103 68 l 426 965 l 554 965 l 878 69 l 939 56 q 978 21 978 47 q 963 0 978 0 l 681 0 q 663 8 669 0 q 657 29 657 15 q 671 58 657 47 q 708 68 685 68 l 765 68 l 676 315 l 278 315 l 190 69 l 272 53 q 311 19 311 46 q 296 0 311 0 l 35 0 m 649 390 l 476 871 l 304 390 l 649 390 z "},"Ẳ":{"ha":988,"x_min":11,"x_max":978,"o":"m 451 1296 q 521 1360 521 1319 q 509 1388 521 1378 q 476 1399 497 1399 q 415 1388 454 1399 l 406 1432 q 488 1450 450 1450 q 565 1425 535 1450 q 594 1361 594 1400 q 574 1307 594 1331 q 519 1272 554 1283 l 513 1211 l 458 1211 l 451 1296 m 485 1038 q 360 1078 414 1038 q 282 1204 306 1118 l 346 1226 q 397 1144 361 1175 q 485 1113 433 1113 q 572 1144 536 1113 q 624 1226 608 1175 l 688 1204 q 610 1078 664 1118 q 485 1038 556 1038 m 35 0 q 11 29 11 0 q 24 58 11 47 q 61 68 38 68 l 103 68 l 426 965 l 554 965 l 878 69 l 939 56 q 978 21 978 47 q 963 0 978 0 l 681 0 q 663 8 669 0 q 657 29 657 15 q 671 58 657 47 q 708 68 685 68 l 765 68 l 676 315 l 278 315 l 190 69 l 272 53 q 311 19 311 46 q 296 0 311 0 l 35 0 m 649 390 l 476 871 l 304 390 l 649 390 z "},"Ẵ":{"ha":988,"x_min":11,"x_max":978,"o":"m 550 1281 q 521 1285 535 1281 q 488 1300 507 1290 q 428 1319 449 1319 q 358 1290 394 1319 l 328 1340 q 378 1375 351 1361 q 428 1389 406 1389 q 492 1368 453 1389 q 515 1358 496 1367 q 549 1350 533 1350 q 618 1379 579 1350 l 649 1329 q 550 1281 597 1281 m 488 1038 q 363 1078 417 1038 q 285 1204 308 1118 l 349 1226 q 400 1144 364 1175 q 488 1113 436 1113 q 575 1144 539 1113 q 626 1226 611 1175 l 690 1204 q 613 1078 667 1118 q 488 1038 558 1038 m 35 0 q 11 29 11 0 q 24 58 11 47 q 61 68 38 68 l 103 68 l 426 965 l 554 965 l 878 69 l 939 56 q 978 21 978 47 q 963 0 978 0 l 681 0 q 663 8 669 0 q 657 29 657 15 q 671 58 657 47 q 708 68 685 68 l 765 68 l 676 315 l 278 315 l 190 69 l 272 53 q 311 19 311 46 q 296 0 311 0 l 35 0 m 649 390 l 476 871 l 304 390 l 649 390 z "},"Ǎ":{"ha":988,"x_min":11,"x_max":978,"o":"m 303 1232 l 354 1274 l 481 1136 l 607 1274 l 658 1232 l 510 1043 l 451 1043 l 303 1232 m 35 0 q 11 29 11 0 q 24 58 11 47 q 61 68 38 68 l 103 68 l 426 965 l 554 965 l 878 69 l 939 56 q 978 21 978 47 q 963 0 978 0 l 681 0 q 663 8 669 0 q 657 29 657 15 q 671 58 657 47 q 708 68 685 68 l 765 68 l 676 315 l 278 315 l 190 69 l 272 53 q 311 19 311 46 q 296 0 311 0 l 35 0 m 649 390 l 476 871 l 304 390 l 649 390 z "},"Â":{"ha":988,"x_min":11,"x_max":978,"o":"m 304 1085 l 453 1274 l 511 1274 l 660 1085 l 608 1043 l 482 1181 l 356 1043 l 304 1085 m 35 0 q 11 29 11 0 q 24 58 11 47 q 61 68 38 68 l 103 68 l 426 965 l 554 965 l 878 69 l 939 56 q 978 21 978 47 q 963 0 978 0 l 681 0 q 663 8 669 0 q 657 29 657 15 q 671 58 657 47 q 708 68 685 68 l 765 68 l 676 315 l 278 315 l 190 69 l 272 53 q 311 19 311 46 q 296 0 311 0 l 35 0 m 649 390 l 476 871 l 304 390 l 649 390 z "},"Ấ":{"ha":988,"x_min":11,"x_max":978,"o":"m 615 1217 l 703 1368 l 778 1319 l 667 1182 l 615 1217 m 308 1085 l 457 1274 l 515 1274 l 664 1085 l 613 1043 l 486 1181 l 360 1043 l 308 1085 m 35 0 q 11 29 11 0 q 24 58 11 47 q 61 68 38 68 l 103 68 l 426 965 l 554 965 l 878 69 l 939 56 q 978 21 978 47 q 963 0 978 0 l 681 0 q 663 8 669 0 q 657 29 657 15 q 671 58 657 47 q 708 68 685 68 l 765 68 l 676 315 l 278 315 l 190 69 l 272 53 q 311 19 311 46 q 296 0 311 0 l 35 0 m 649 390 l 476 871 l 304 390 l 649 390 z "},"Ậ":{"ha":988,"x_min":11,"x_max":978,"o":"m 307 1085 l 456 1274 l 514 1274 l 663 1085 l 611 1043 l 485 1181 l 358 1043 l 307 1085 m 35 0 q 11 29 11 0 q 24 58 11 47 q 61 68 38 68 l 103 68 l 426 965 l 554 965 l 878 69 l 939 56 q 978 21 978 47 q 963 0 978 0 l 681 0 q 663 8 669 0 q 657 29 657 15 q 671 58 657 47 q 708 68 685 68 l 765 68 l 676 315 l 278 315 l 190 69 l 272 53 q 311 19 311 46 q 296 0 311 0 l 35 0 m 649 390 l 476 871 l 304 390 l 649 390 m 481 -228 q 433 -208 453 -228 q 413 -160 413 -189 q 433 -110 413 -131 q 481 -90 453 -90 q 529 -110 510 -90 q 549 -160 549 -131 q 528 -208 549 -189 q 481 -228 508 -228 z "},"Ầ":{"ha":988,"x_min":11,"x_max":978,"o":"m 193 1319 l 269 1368 l 356 1217 l 304 1182 l 193 1319 m 308 1085 l 457 1274 l 515 1274 l 664 1085 l 613 1043 l 486 1181 l 360 1043 l 308 1085 m 35 0 q 11 29 11 0 q 24 58 11 47 q 61 68 38 68 l 103 68 l 426 965 l 554 965 l 878 69 l 939 56 q 978 21 978 47 q 963 0 978 0 l 681 0 q 663 8 669 0 q 657 29 657 15 q 671 58 657 47 q 708 68 685 68 l 765 68 l 676 315 l 278 315 l 190 69 l 272 53 q 311 19 311 46 q 296 0 311 0 l 35 0 m 649 390 l 476 871 l 304 390 l 649 390 z "},"Ẩ":{"ha":988,"x_min":11,"x_max":978,"o":"m 653 1258 q 722 1324 722 1282 q 678 1361 722 1361 q 617 1351 651 1361 l 607 1394 q 689 1413 651 1413 q 766 1388 736 1413 q 796 1324 796 1364 q 776 1270 796 1293 q 721 1235 756 1247 l 714 1175 l 660 1175 l 653 1258 m 308 1085 l 457 1274 l 515 1274 l 664 1085 l 613 1043 l 486 1181 l 360 1043 l 308 1085 m 35 0 q 11 29 11 0 q 24 58 11 47 q 61 68 38 68 l 103 68 l 426 965 l 554 965 l 878 69 l 939 56 q 978 21 978 47 q 963 0 978 0 l 681 0 q 663 8 669 0 q 657 29 657 15 q 671 58 657 47 q 708 68 685 68 l 765 68 l 676 315 l 278 315 l 190 69 l 272 53 q 311 19 311 46 q 296 0 311 0 l 35 0 m 649 390 l 476 871 l 304 390 l 649 390 z "},"Ẫ":{"ha":988,"x_min":11,"x_max":978,"o":"m 549 1315 q 519 1320 533 1315 q 486 1335 506 1325 q 426 1354 447 1354 q 392 1347 407 1354 q 357 1325 376 1339 l 326 1375 q 377 1409 350 1396 q 426 1422 404 1422 q 490 1403 449 1422 q 547 1385 526 1385 q 617 1413 579 1385 l 647 1364 q 549 1315 596 1315 m 307 1085 l 456 1274 l 514 1274 l 663 1085 l 611 1043 l 485 1181 l 358 1043 l 307 1085 m 35 0 q 11 29 11 0 q 24 58 11 47 q 61 68 38 68 l 103 68 l 426 965 l 554 965 l 878 69 l 939 56 q 978 21 978 47 q 963 0 978 0 l 681 0 q 663 8 669 0 q 657 29 657 15 q 671 58 657 47 q 708 68 685 68 l 765 68 l 676 315 l 278 315 l 190 69 l 272 53 q 311 19 311 46 q 296 0 311 0 l 35 0 m 649 390 l 476 871 l 304 390 l 649 390 z "},"Ä":{"ha":988,"x_min":11,"x_max":978,"o":"m 353 1058 q 304 1078 324 1058 q 285 1126 285 1097 q 304 1174 285 1156 q 353 1193 324 1193 q 400 1174 381 1193 q 419 1126 419 1156 q 400 1078 419 1097 q 353 1058 381 1058 m 619 1058 q 571 1078 590 1058 q 551 1126 551 1097 q 571 1174 551 1156 q 619 1193 590 1193 q 667 1174 647 1193 q 686 1126 686 1156 q 667 1078 686 1097 q 619 1058 647 1058 m 35 0 q 11 29 11 0 q 24 58 11 47 q 61 68 38 68 l 103 68 l 426 965 l 554 965 l 878 69 l 939 56 q 978 21 978 47 q 963 0 978 0 l 681 0 q 663 8 669 0 q 657 29 657 15 q 671 58 657 47 q 708 68 685 68 l 765 68 l 676 315 l 278 315 l 190 69 l 272 53 q 311 19 311 46 q 296 0 311 0 l 35 0 m 649 390 l 476 871 l 304 390 l 649 390 z "},"Ạ":{"ha":988,"x_min":11,"x_max":978,"o":"m 35 0 q 11 29 11 0 q 24 58 11 47 q 61 68 38 68 l 103 68 l 426 965 l 554 965 l 878 69 l 939 56 q 978 21 978 47 q 963 0 978 0 l 681 0 q 663 8 669 0 q 657 29 657 15 q 671 58 657 47 q 708 68 685 68 l 765 68 l 676 315 l 278 315 l 190 69 l 272 53 q 311 19 311 46 q 296 0 311 0 l 35 0 m 649 390 l 476 871 l 304 390 l 649 390 m 486 -228 q 438 -208 458 -228 q 418 -160 418 -189 q 438 -110 418 -131 q 486 -90 458 -90 q 535 -110 515 -90 q 554 -160 554 -131 q 534 -208 554 -189 q 486 -228 514 -228 z "},"À":{"ha":988,"x_min":11,"x_max":978,"o":"m 347 1233 l 431 1288 l 551 1085 l 489 1044 l 347 1233 m 35 0 q 11 29 11 0 q 24 58 11 47 q 61 68 38 68 l 103 68 l 426 965 l 554 965 l 878 69 l 939 56 q 978 21 978 47 q 963 0 978 0 l 681 0 q 663 8 669 0 q 657 29 657 15 q 671 58 657 47 q 708 68 685 68 l 765 68 l 676 315 l 278 315 l 190 69 l 272 53 q 311 19 311 46 q 296 0 311 0 l 35 0 m 649 390 l 476 871 l 304 390 l 649 390 z "},"Ả":{"ha":988,"x_min":11,"x_max":978,"o":"m 449 1129 q 521 1197 521 1154 q 475 1238 521 1238 q 410 1226 449 1238 l 400 1272 q 486 1290 446 1290 q 566 1265 535 1290 q 597 1199 597 1240 q 576 1142 597 1167 q 519 1104 556 1117 l 511 1042 l 457 1042 l 449 1129 m 35 0 q 11 29 11 0 q 24 58 11 47 q 61 68 38 68 l 103 68 l 426 965 l 554 965 l 878 69 l 939 56 q 978 21 978 47 q 963 0 978 0 l 681 0 q 663 8 669 0 q 657 29 657 15 q 671 58 657 47 q 708 68 685 68 l 765 68 l 676 315 l 278 315 l 190 69 l 272 53 q 311 19 311 46 q 296 0 311 0 l 35 0 m 649 390 l 476 871 l 304 390 l 649 390 z "},"Ā":{"ha":988,"x_min":11,"x_max":978,"o":"m 289 1157 l 681 1157 l 681 1081 l 289 1081 l 289 1157 m 35 0 q 11 29 11 0 q 24 58 11 47 q 61 68 38 68 l 103 68 l 426 965 l 554 965 l 878 69 l 939 56 q 978 21 978 47 q 963 0 978 0 l 681 0 q 663 8 669 0 q 657 29 657 15 q 671 58 657 47 q 708 68 685 68 l 765 68 l 676 315 l 278 315 l 190 69 l 272 53 q 311 19 311 46 q 296 0 311 0 l 35 0 m 649 390 l 476 871 l 304 390 l 649 390 z "},"Ą":{"ha":988,"x_min":11,"x_max":978,"o":"m 833 -287 q 723 -251 765 -287 q 681 -151 681 -215 q 709 -65 681 -104 q 783 0 738 -25 l 681 0 q 663 8 669 0 q 657 29 657 15 q 671 58 657 47 q 708 68 685 68 l 765 68 l 676 315 l 278 315 l 190 69 l 272 53 q 311 19 311 46 q 296 0 311 0 l 35 0 q 11 29 11 0 q 24 58 11 47 q 61 68 38 68 l 103 68 l 426 965 l 554 965 l 878 69 l 939 56 q 969 42 960 50 q 978 21 978 35 q 963 0 978 0 l 864 0 q 789 -62 821 -21 q 757 -149 757 -103 q 782 -210 757 -189 q 849 -231 807 -231 q 904 -222 878 -231 l 914 -269 q 833 -287 874 -287 m 649 390 l 476 871 l 304 390 l 649 390 z "},"Å":{"ha":988,"x_min":11,"x_max":978,"o":"m 488 1028 q 394 1063 429 1028 q 360 1149 360 1097 q 395 1235 360 1200 q 488 1269 431 1269 q 581 1235 546 1269 q 615 1149 615 1200 q 581 1063 615 1097 q 488 1028 546 1028 m 488 1083 q 533 1101 515 1083 q 550 1149 550 1118 q 533 1196 550 1179 q 488 1213 515 1213 q 442 1196 460 1213 q 424 1149 424 1179 q 442 1101 424 1118 q 488 1083 460 1083 m 35 0 q 11 29 11 0 q 24 58 11 47 q 61 68 38 68 l 103 68 l 426 965 l 554 965 l 878 69 l 939 56 q 978 21 978 47 q 963 0 978 0 l 681 0 q 663 8 669 0 q 657 29 657 15 q 671 58 657 47 q 708 68 685 68 l 765 68 l 676 315 l 278 315 l 190 69 l 272 53 q 311 19 311 46 q 296 0 311 0 l 35 0 m 649 390 l 476 871 l 304 390 l 649 390 z "},"Ǻ":{"ha":988,"x_min":11,"x_max":978,"o":"m 460 1342 l 581 1543 l 664 1490 l 522 1301 l 460 1342 m 483 1025 q 390 1060 425 1025 q 356 1146 356 1094 q 391 1232 356 1197 q 483 1267 426 1267 q 576 1232 542 1267 q 611 1146 611 1197 q 576 1060 611 1094 q 483 1025 542 1025 m 483 1081 q 528 1098 511 1081 q 546 1146 546 1115 q 528 1193 546 1176 q 483 1210 511 1210 q 438 1193 456 1210 q 419 1146 419 1176 q 438 1098 419 1115 q 483 1081 456 1081 m 35 0 q 11 29 11 0 q 24 58 11 47 q 61 68 38 68 l 103 68 l 426 965 l 554 965 l 878 69 l 939 56 q 978 21 978 47 q 963 0 978 0 l 681 0 q 663 8 669 0 q 657 29 657 15 q 671 58 657 47 q 708 68 685 68 l 765 68 l 676 315 l 278 315 l 190 69 l 272 53 q 311 19 311 46 q 296 0 311 0 l 35 0 m 649 390 l 476 871 l 304 390 l 649 390 z "},"Ã":{"ha":988,"x_min":11,"x_max":978,"o":"m 569 1058 q 531 1065 549 1058 q 486 1083 513 1071 q 445 1101 463 1094 q 410 1107 428 1107 q 365 1098 386 1107 q 318 1071 343 1089 l 279 1122 q 345 1168 310 1150 q 411 1186 381 1186 q 448 1180 429 1186 q 494 1161 467 1174 q 568 1138 542 1138 q 658 1174 611 1138 l 697 1121 q 634 1076 668 1093 q 569 1058 600 1058 m 35 0 q 11 29 11 0 q 24 58 11 47 q 61 68 38 68 l 103 68 l 426 965 l 554 965 l 878 69 l 939 56 q 978 21 978 47 q 963 0 978 0 l 681 0 q 663 8 669 0 q 657 29 657 15 q 671 58 657 47 q 708 68 685 68 l 765 68 l 676 315 l 278 315 l 190 69 l 272 53 q 311 19 311 46 q 296 0 311 0 l 35 0 m 649 390 l 476 871 l 304 390 l 649 390 z "},"Æ":{"ha":1557,"x_min":14,"x_max":1460,"o":"m 38 0 q 14 29 14 0 q 27 58 14 47 q 64 68 40 68 l 106 68 l 689 890 l 644 899 q 604 914 617 904 q 592 942 592 924 q 597 959 592 953 q 611 965 603 965 l 1442 965 l 1442 789 q 1421 769 1442 769 q 1382 826 1393 769 l 1369 892 l 901 892 l 901 531 l 1294 531 l 1310 593 q 1340 632 1319 632 q 1360 614 1360 632 l 1360 375 q 1340 356 1360 356 q 1310 394 1319 356 l 1294 457 l 901 457 l 901 74 l 1388 74 l 1400 144 q 1439 201 1410 201 q 1460 181 1460 201 l 1460 0 l 711 0 q 698 6 703 0 q 693 24 693 13 q 706 51 693 42 q 744 67 718 61 l 790 75 l 790 315 l 386 315 l 208 69 l 290 53 q 331 19 331 44 q 315 0 331 0 l 38 0 m 790 390 l 790 889 l 435 390 l 790 390 z "},"Ǽ":{"ha":1557,"x_min":14,"x_max":1460,"o":"m 969 1083 l 1090 1286 l 1174 1232 l 1032 1043 l 969 1083 m 38 0 q 14 29 14 0 q 27 58 14 47 q 64 68 40 68 l 106 68 l 689 890 l 644 899 q 604 914 617 904 q 592 942 592 924 q 597 959 592 953 q 611 965 603 965 l 1442 965 l 1442 789 q 1421 769 1442 769 q 1382 826 1393 769 l 1369 892 l 901 892 l 901 531 l 1294 531 l 1310 593 q 1340 632 1319 632 q 1360 614 1360 632 l 1360 375 q 1340 356 1360 356 q 1310 394 1319 356 l 1294 457 l 901 457 l 901 74 l 1388 74 l 1400 144 q 1439 201 1410 201 q 1460 181 1460 201 l 1460 0 l 711 0 q 698 6 703 0 q 693 24 693 13 q 706 51 693 42 q 744 67 718 61 l 790 75 l 790 315 l 386 315 l 208 69 l 290 53 q 322 40 313 49 q 331 19 331 32 q 315 0 331 0 l 38 0 m 790 390 l 790 889 l 435 390 l 790 390 z "},"B":{"ha":951,"x_min":81,"x_max":871,"o":"m 100 0 q 86 6 92 0 q 81 24 81 13 q 93 51 81 42 q 133 67 106 61 l 179 75 l 179 890 l 133 899 q 81 942 81 910 q 86 959 81 953 q 100 965 92 965 l 506 965 q 732 901 650 965 q 814 714 814 836 q 777 589 814 640 q 674 513 740 538 l 674 507 q 818 419 765 481 q 871 265 871 358 q 786 68 871 136 q 557 0 701 0 l 100 0 m 524 536 q 652 583 603 536 q 701 713 701 631 q 649 844 701 797 q 499 892 596 892 l 289 892 l 289 536 l 524 536 m 540 74 q 703 125 649 74 q 758 268 758 176 q 704 410 758 357 q 551 464 650 464 l 289 464 l 289 74 l 540 74 z "},"C":{"ha":908,"x_min":65,"x_max":835,"o":"m 533 -17 q 292 40 397 -17 q 126 210 186 97 q 65 483 65 322 q 124 756 65 643 q 285 925 183 868 q 517 982 388 982 q 690 954 608 982 q 826 881 771 926 l 826 722 q 806 701 826 701 q 780 713 789 701 q 765 751 771 725 l 746 847 q 653 890 710 875 q 532 906 596 906 q 345 856 425 906 q 222 712 265 807 q 178 483 178 617 q 224 254 178 350 q 353 109 271 158 q 544 60 436 60 q 771 117 686 60 q 785 126 775 119 q 804 133 794 133 q 826 123 817 133 q 835 99 835 113 q 794 47 835 71 q 682 1 750 19 q 533 -17 614 -17 z "},"Ć":{"ha":908,"x_min":65,"x_max":835,"o":"m 435 1085 l 556 1288 l 639 1233 l 497 1044 l 435 1085 m 533 -17 q 292 40 397 -17 q 126 210 186 97 q 65 483 65 322 q 124 756 65 643 q 285 925 183 868 q 517 982 388 982 q 690 954 608 982 q 826 881 771 926 l 826 722 q 806 701 826 701 q 780 713 789 701 q 765 751 771 725 l 746 847 q 653 890 710 875 q 532 906 596 906 q 345 856 425 906 q 222 712 265 807 q 178 483 178 617 q 224 254 178 350 q 353 109 271 158 q 544 60 436 60 q 771 117 686 60 q 785 126 775 119 q 804 133 794 133 q 826 123 817 133 q 835 99 835 113 q 794 47 835 71 q 682 1 750 19 q 533 -17 614 -17 z "},"Č":{"ha":908,"x_min":65,"x_max":835,"o":"m 321 1232 l 372 1274 l 499 1136 l 625 1274 l 676 1232 l 528 1043 l 469 1043 l 321 1232 m 533 -17 q 292 40 397 -17 q 126 210 186 97 q 65 483 65 322 q 124 756 65 643 q 285 925 183 868 q 517 982 388 982 q 690 954 608 982 q 826 881 771 926 l 826 722 q 806 701 826 701 q 780 713 789 701 q 765 751 771 725 l 746 847 q 653 890 710 875 q 532 906 596 906 q 345 856 425 906 q 222 712 265 807 q 178 483 178 617 q 224 254 178 350 q 353 109 271 158 q 544 60 436 60 q 771 117 686 60 q 785 126 775 119 q 804 133 794 133 q 826 123 817 133 q 835 99 835 113 q 794 47 835 71 q 682 1 750 19 q 533 -17 614 -17 z "},"Ç":{"ha":908,"x_min":65,"x_max":835,"o":"m 421 -258 q 491 -218 467 -243 q 515 -164 515 -193 q 501 -118 515 -136 q 453 -89 486 -100 l 481 -14 q 265 57 358 -3 q 118 225 171 117 q 65 483 65 333 q 124 756 65 643 q 285 925 183 868 q 517 982 388 982 q 690 954 608 982 q 826 881 771 926 l 826 722 q 806 701 826 701 q 780 713 789 701 q 765 751 771 725 l 746 847 q 653 890 710 875 q 532 906 596 906 q 345 856 425 906 q 222 712 265 807 q 178 483 178 617 q 224 254 178 350 q 353 109 271 158 q 544 60 436 60 q 771 117 686 60 q 785 126 775 119 q 804 133 794 133 q 826 123 817 133 q 835 99 835 113 q 794 47 835 71 q 690 3 753 21 q 553 -17 628 -15 l 526 -72 q 594 -165 594 -101 q 549 -248 594 -211 q 438 -299 503 -285 l 421 -258 z "},"Ĉ":{"ha":908,"x_min":65,"x_max":835,"o":"m 322 1085 l 471 1274 l 529 1274 l 678 1085 l 626 1043 l 500 1181 l 374 1043 l 322 1085 m 533 -17 q 292 40 397 -17 q 126 210 186 97 q 65 483 65 322 q 124 756 65 643 q 285 925 183 868 q 517 982 388 982 q 690 954 608 982 q 826 881 771 926 l 826 722 q 806 701 826 701 q 780 713 789 701 q 765 751 771 725 l 746 847 q 653 890 710 875 q 532 906 596 906 q 345 856 425 906 q 222 712 265 807 q 178 483 178 617 q 224 254 178 350 q 353 109 271 158 q 544 60 436 60 q 771 117 686 60 q 785 126 775 119 q 804 133 794 133 q 826 123 817 133 q 835 99 835 113 q 794 47 835 71 q 682 1 750 19 q 533 -17 614 -17 z "},"Ċ":{"ha":908,"x_min":65,"x_max":835,"o":"m 500 1067 q 452 1086 472 1067 q 432 1135 432 1106 q 452 1183 432 1164 q 500 1203 472 1203 q 548 1183 528 1203 q 568 1135 568 1164 q 548 1086 568 1106 q 500 1067 528 1067 m 533 -17 q 292 40 397 -17 q 126 210 186 97 q 65 483 65 322 q 124 756 65 643 q 285 925 183 868 q 517 982 388 982 q 690 954 608 982 q 826 881 771 926 l 826 722 q 806 701 826 701 q 780 713 789 701 q 765 751 771 725 l 746 847 q 653 890 710 875 q 532 906 596 906 q 345 856 425 906 q 222 712 265 807 q 178 483 178 617 q 224 254 178 350 q 353 109 271 158 q 544 60 436 60 q 771 117 686 60 q 785 126 775 119 q 804 133 794 133 q 826 123 817 133 q 835 99 835 113 q 794 47 835 71 q 682 1 750 19 q 533 -17 614 -17 z "},"D":{"ha":1024,"x_min":81,"x_max":957,"o":"m 100 0 q 86 6 92 0 q 81 24 81 13 q 93 51 81 42 q 133 67 106 61 l 179 75 l 179 890 l 133 899 q 93 914 106 904 q 81 942 81 924 q 86 959 81 953 q 100 965 92 965 l 497 965 q 734 913 631 965 q 897 751 838 860 q 957 482 957 642 q 897 213 957 321 q 734 53 838 106 q 497 0 631 0 l 100 0 m 497 75 q 751 182 660 75 q 843 482 843 289 q 751 783 843 675 q 497 890 660 890 l 289 890 l 289 75 l 497 75 z "},"Ð":{"ha":1026,"x_min":83,"x_max":960,"o":"m 103 0 q 89 6 94 0 q 83 24 83 13 q 96 51 83 42 q 136 67 108 61 l 182 75 l 182 453 l 89 453 l 89 531 l 182 531 l 182 890 l 136 899 q 83 942 83 907 q 89 959 83 953 q 103 965 94 965 l 500 965 q 737 913 633 965 q 900 751 840 860 q 960 482 960 642 q 900 213 960 321 q 737 53 840 106 q 500 0 633 0 l 103 0 m 500 75 q 754 182 663 75 q 846 482 846 289 q 754 783 846 675 q 500 890 663 890 l 292 890 l 292 531 l 557 531 l 557 453 l 292 453 l 292 75 l 500 75 z "},"Ď":{"ha":1024,"x_min":81,"x_max":957,"o":"m 304 1232 l 356 1274 l 482 1136 l 608 1274 l 660 1232 l 511 1043 l 453 1043 l 304 1232 m 100 0 q 86 6 92 0 q 81 24 81 13 q 93 51 81 42 q 133 67 106 61 l 179 75 l 179 890 l 133 899 q 93 914 106 904 q 81 942 81 924 q 86 959 81 953 q 100 965 92 965 l 497 965 q 734 913 631 965 q 897 751 838 860 q 957 482 957 642 q 897 213 957 321 q 734 53 838 106 q 497 0 631 0 l 100 0 m 497 75 q 751 182 660 75 q 843 482 843 289 q 751 783 843 675 q 497 890 660 890 l 289 890 l 289 75 l 497 75 z "},"Đ":{"ha":1026,"x_min":83,"x_max":960,"o":"m 103 0 q 89 6 94 0 q 83 24 83 13 q 136 67 83 56 l 182 75 l 182 453 l 89 453 l 89 531 l 182 531 l 182 890 l 136 899 q 96 914 108 904 q 83 942 83 924 q 89 959 83 953 q 103 965 94 965 l 500 965 q 737 913 633 965 q 900 751 840 860 q 960 482 960 642 q 900 213 960 321 q 737 53 840 106 q 500 0 633 0 l 103 0 m 500 75 q 754 182 663 75 q 846 482 846 289 q 754 783 846 675 q 500 890 663 890 l 292 890 l 292 531 l 557 531 l 557 453 l 292 453 l 292 75 l 500 75 z "},"Ḍ":{"ha":1024,"x_min":81,"x_max":957,"o":"m 100 0 q 86 6 92 0 q 81 24 81 13 q 93 51 81 42 q 133 67 106 61 l 179 75 l 179 890 l 133 899 q 93 914 106 904 q 81 942 81 924 q 86 959 81 953 q 100 965 92 965 l 497 965 q 734 913 631 965 q 897 751 838 860 q 957 482 957 642 q 897 213 957 321 q 734 53 838 106 q 497 0 631 0 l 100 0 m 497 75 q 751 182 660 75 q 843 482 843 289 q 751 783 843 675 q 497 890 660 890 l 289 890 l 289 75 l 497 75 m 511 -228 q 463 -208 483 -228 q 443 -160 443 -189 q 463 -110 443 -131 q 511 -90 483 -90 q 560 -110 540 -90 q 579 -160 579 -131 q 559 -208 579 -189 q 511 -228 539 -228 z "},"Ḏ":{"ha":1024,"x_min":81,"x_max":957,"o":"m 100 0 q 86 6 92 0 q 81 24 81 13 q 93 51 81 42 q 133 67 106 61 l 179 75 l 179 890 l 133 899 q 93 914 106 904 q 81 942 81 924 q 86 959 81 953 q 100 965 92 965 l 497 965 q 734 913 631 965 q 897 751 838 860 q 957 482 957 642 q 897 213 957 321 q 734 53 838 106 q 497 0 631 0 l 100 0 m 497 75 q 751 182 660 75 q 843 482 843 289 q 751 783 843 675 q 497 890 660 890 l 289 890 l 289 75 l 497 75 m 219 -122 l 744 -122 l 744 -196 l 219 -196 l 219 -122 z "},"E":{"ha":950,"x_min":81,"x_max":853,"o":"m 100 0 q 86 6 92 0 q 81 24 81 13 q 133 67 81 57 l 179 75 l 179 890 l 133 899 q 93 914 106 904 q 81 942 81 924 q 86 959 81 953 q 100 965 92 965 l 835 965 l 835 789 q 814 769 835 769 q 775 826 786 769 l 763 892 l 290 892 l 290 531 l 688 531 l 703 593 q 735 632 713 632 q 753 614 753 632 l 753 375 q 735 356 753 356 q 703 394 713 356 l 688 457 l 290 457 l 290 74 l 781 74 l 793 144 q 832 201 803 201 q 853 181 853 201 l 853 0 l 100 0 z "},"É":{"ha":950,"x_min":81,"x_max":853,"o":"m 396 1085 l 517 1288 l 600 1233 l 458 1044 l 396 1085 m 100 0 q 86 6 92 0 q 81 24 81 13 q 133 67 81 57 l 179 75 l 179 890 l 133 899 q 93 914 106 904 q 81 942 81 924 q 86 959 81 953 q 100 965 92 965 l 835 965 l 835 789 q 814 769 835 769 q 775 826 786 769 l 763 892 l 290 892 l 290 531 l 688 531 l 703 593 q 735 632 713 632 q 753 614 753 632 l 753 375 q 735 356 753 356 q 703 394 713 356 l 688 457 l 290 457 l 290 74 l 781 74 l 793 144 q 832 201 803 201 q 853 181 853 201 l 853 0 l 100 0 z "},"Ĕ":{"ha":950,"x_min":81,"x_max":853,"o":"m 479 1038 q 354 1078 408 1038 q 276 1204 300 1118 l 340 1226 q 392 1144 356 1175 q 479 1113 428 1113 q 567 1144 531 1113 q 618 1226 603 1175 l 682 1204 q 604 1078 658 1118 q 479 1038 550 1038 m 100 0 q 86 6 92 0 q 81 24 81 13 q 133 67 81 57 l 179 75 l 179 890 l 133 899 q 93 914 106 904 q 81 942 81 924 q 86 959 81 953 q 100 965 92 965 l 835 965 l 835 789 q 814 769 835 769 q 775 826 786 769 l 763 892 l 290 892 l 290 531 l 688 531 l 703 593 q 735 632 713 632 q 753 614 753 632 l 753 375 q 735 356 753 356 q 703 394 713 356 l 688 457 l 290 457 l 290 74 l 781 74 l 793 144 q 832 201 803 201 q 853 181 853 201 l 853 0 l 100 0 z "},"Ě":{"ha":950,"x_min":81,"x_max":853,"o":"m 303 1232 l 354 1274 l 481 1136 l 607 1274 l 658 1232 l 510 1043 l 451 1043 l 303 1232 m 100 0 q 86 6 92 0 q 81 24 81 13 q 133 67 81 57 l 179 75 l 179 890 l 133 899 q 93 914 106 904 q 81 942 81 924 q 86 959 81 953 q 100 965 92 965 l 835 965 l 835 789 q 814 769 835 769 q 775 826 786 769 l 763 892 l 290 892 l 290 531 l 688 531 l 703 593 q 735 632 713 632 q 753 614 753 632 l 753 375 q 735 356 753 356 q 703 394 713 356 l 688 457 l 290 457 l 290 74 l 781 74 l 793 144 q 832 201 803 201 q 853 181 853 201 l 853 0 l 100 0 z "},"Ê":{"ha":950,"x_min":81,"x_max":853,"o":"m 303 1085 l 451 1274 l 510 1274 l 658 1085 l 607 1043 l 481 1181 l 354 1043 l 303 1085 m 100 0 q 86 6 92 0 q 81 24 81 13 q 133 67 81 57 l 179 75 l 179 890 l 133 899 q 93 914 106 904 q 81 942 81 924 q 86 959 81 953 q 100 965 92 965 l 835 965 l 835 789 q 814 769 835 769 q 775 826 786 769 l 763 892 l 290 892 l 290 531 l 688 531 l 703 593 q 735 632 713 632 q 753 614 753 632 l 753 375 q 735 356 753 356 q 703 394 713 356 l 688 457 l 290 457 l 290 74 l 781 74 l 793 144 q 832 201 803 201 q 853 181 853 201 l 853 0 l 100 0 z "},"Ế":{"ha":950,"x_min":81,"x_max":853,"o":"m 617 1217 l 704 1368 l 779 1319 l 668 1182 l 617 1217 m 308 1085 l 457 1274 l 515 1274 l 664 1085 l 613 1043 l 486 1181 l 360 1043 l 308 1085 m 100 0 q 86 6 92 0 q 81 24 81 13 q 133 67 81 57 l 179 75 l 179 890 l 133 899 q 93 914 106 904 q 81 942 81 924 q 86 959 81 953 q 100 965 92 965 l 835 965 l 835 789 q 814 769 835 769 q 775 826 786 769 l 763 892 l 290 892 l 290 531 l 688 531 l 703 593 q 735 632 713 632 q 753 614 753 632 l 753 375 q 735 356 753 356 q 703 394 713 356 l 688 457 l 290 457 l 290 74 l 781 74 l 793 144 q 832 201 803 201 q 853 181 853 201 l 853 0 l 100 0 z "},"Ệ":{"ha":950,"x_min":81,"x_max":853,"o":"m 303 1085 l 451 1274 l 510 1274 l 658 1085 l 607 1043 l 481 1181 l 354 1043 l 303 1085 m 100 0 q 86 6 92 0 q 81 24 81 13 q 133 67 81 57 l 179 75 l 179 890 l 133 899 q 93 914 106 904 q 81 942 81 924 q 86 959 81 953 q 100 965 92 965 l 835 965 l 835 789 q 814 769 835 769 q 775 826 786 769 l 763 892 l 290 892 l 290 531 l 688 531 l 703 593 q 735 632 713 632 q 753 614 753 632 l 753 375 q 735 356 753 356 q 703 394 713 356 l 688 457 l 290 457 l 290 74 l 781 74 l 793 144 q 832 201 803 201 q 853 181 853 201 l 853 0 l 100 0 m 493 -228 q 445 -208 465 -228 q 425 -160 425 -189 q 445 -110 425 -131 q 493 -90 465 -90 q 542 -110 522 -90 q 561 -160 561 -131 q 541 -208 561 -189 q 493 -228 521 -228 z "},"Ề":{"ha":950,"x_min":81,"x_max":853,"o":"m 194 1319 l 271 1368 l 357 1217 l 306 1182 l 194 1319 m 310 1085 l 458 1274 l 517 1274 l 665 1085 l 614 1043 l 488 1181 l 361 1043 l 310 1085 m 100 0 q 86 6 92 0 q 81 24 81 13 q 133 67 81 57 l 179 75 l 179 890 l 133 899 q 93 914 106 904 q 81 942 81 924 q 86 959 81 953 q 100 965 92 965 l 835 965 l 835 789 q 814 769 835 769 q 775 826 786 769 l 763 892 l 290 892 l 290 531 l 688 531 l 703 593 q 735 632 713 632 q 753 614 753 632 l 753 375 q 735 356 753 356 q 703 394 713 356 l 688 457 l 290 457 l 290 74 l 781 74 l 793 144 q 832 201 803 201 q 853 181 853 201 l 853 0 l 100 0 z "},"Ể":{"ha":950,"x_min":81,"x_max":853,"o":"m 642 1258 q 711 1324 711 1282 q 667 1361 711 1361 q 606 1351 639 1361 l 596 1394 q 678 1413 642 1413 q 755 1388 725 1413 q 785 1324 785 1364 q 765 1270 785 1293 q 710 1235 744 1247 l 703 1175 l 649 1175 l 642 1258 m 297 1085 l 446 1274 l 504 1274 l 653 1085 l 601 1043 l 475 1181 l 349 1043 l 297 1085 m 100 0 q 86 6 92 0 q 81 24 81 13 q 133 67 81 57 l 179 75 l 179 890 l 133 899 q 93 914 106 904 q 81 942 81 924 q 86 959 81 953 q 100 965 92 965 l 835 965 l 835 789 q 814 769 835 769 q 775 826 786 769 l 763 892 l 290 892 l 290 531 l 688 531 l 703 593 q 735 632 713 632 q 753 614 753 632 l 753 375 q 735 356 753 356 q 703 394 713 356 l 688 457 l 290 457 l 290 74 l 781 74 l 793 144 q 832 201 803 201 q 853 181 853 201 l 853 0 l 100 0 z "},"Ễ":{"ha":950,"x_min":81,"x_max":853,"o":"m 550 1315 q 521 1320 535 1315 q 488 1335 507 1325 q 428 1354 449 1354 q 393 1347 408 1354 q 358 1325 378 1339 l 328 1375 q 378 1409 351 1396 q 428 1422 406 1422 q 492 1403 450 1422 q 549 1385 528 1385 q 618 1413 581 1385 l 649 1364 q 550 1315 597 1315 m 308 1085 l 457 1274 l 515 1274 l 664 1085 l 613 1043 l 486 1181 l 360 1043 l 308 1085 m 100 0 q 86 6 92 0 q 81 24 81 13 q 133 67 81 57 l 179 75 l 179 890 l 133 899 q 93 914 106 904 q 81 942 81 924 q 86 959 81 953 q 100 965 92 965 l 835 965 l 835 789 q 814 769 835 769 q 775 826 786 769 l 763 892 l 290 892 l 290 531 l 688 531 l 703 593 q 735 632 713 632 q 753 614 753 632 l 753 375 q 735 356 753 356 q 703 394 713 356 l 688 457 l 290 457 l 290 74 l 781 74 l 793 144 q 832 201 803 201 q 853 181 853 201 l 853 0 l 100 0 z "},"Ë":{"ha":950,"x_min":81,"x_max":853,"o":"m 360 1058 q 311 1078 331 1058 q 292 1126 292 1097 q 311 1174 292 1156 q 360 1193 331 1193 q 407 1174 388 1193 q 426 1126 426 1156 q 407 1078 426 1097 q 360 1058 388 1058 m 626 1058 q 578 1078 597 1058 q 558 1126 558 1097 q 578 1174 558 1156 q 626 1193 597 1193 q 674 1174 654 1193 q 693 1126 693 1156 q 674 1078 693 1097 q 626 1058 654 1058 m 100 0 q 86 6 92 0 q 81 24 81 13 q 133 67 81 57 l 179 75 l 179 890 l 133 899 q 93 914 106 904 q 81 942 81 924 q 86 959 81 953 q 100 965 92 965 l 835 965 l 835 789 q 814 769 835 769 q 775 826 786 769 l 763 892 l 290 892 l 290 531 l 688 531 l 703 593 q 735 632 713 632 q 753 614 753 632 l 753 375 q 735 356 753 356 q 703 394 713 356 l 688 457 l 290 457 l 290 74 l 781 74 l 793 144 q 832 201 803 201 q 853 181 853 201 l 853 0 l 100 0 z "},"Ė":{"ha":950,"x_min":81,"x_max":853,"o":"m 489 1067 q 441 1086 461 1067 q 421 1135 421 1106 q 441 1183 421 1164 q 489 1203 461 1203 q 537 1183 517 1203 q 557 1135 557 1164 q 537 1086 557 1106 q 489 1067 517 1067 m 100 0 q 86 6 92 0 q 81 24 81 13 q 133 67 81 57 l 179 75 l 179 890 l 133 899 q 93 914 106 904 q 81 942 81 924 q 86 959 81 953 q 100 965 92 965 l 835 965 l 835 789 q 814 769 835 769 q 775 826 786 769 l 763 892 l 290 892 l 290 531 l 688 531 l 703 593 q 735 632 713 632 q 753 614 753 632 l 753 375 q 735 356 753 356 q 703 394 713 356 l 688 457 l 290 457 l 290 74 l 781 74 l 793 144 q 832 201 803 201 q 853 181 853 201 l 853 0 l 100 0 z "},"Ẹ":{"ha":950,"x_min":81,"x_max":853,"o":"m 100 0 q 86 6 92 0 q 81 24 81 13 q 133 67 81 57 l 179 75 l 179 890 l 133 899 q 93 914 106 904 q 81 942 81 924 q 86 959 81 953 q 100 965 92 965 l 835 965 l 835 789 q 814 769 835 769 q 775 826 786 769 l 763 892 l 290 892 l 290 531 l 688 531 l 703 593 q 735 632 713 632 q 753 614 753 632 l 753 375 q 735 356 753 356 q 703 394 713 356 l 688 457 l 290 457 l 290 74 l 781 74 l 793 144 q 832 201 803 201 q 853 181 853 201 l 853 0 l 100 0 m 499 -228 q 451 -208 471 -228 q 431 -160 431 -189 q 451 -110 431 -131 q 499 -90 471 -90 q 547 -110 528 -90 q 567 -160 567 -131 q 547 -208 567 -189 q 499 -228 526 -228 z "},"È":{"ha":950,"x_min":81,"x_max":853,"o":"m 357 1233 l 440 1288 l 561 1085 l 499 1044 l 357 1233 m 100 0 q 86 6 92 0 q 81 24 81 13 q 133 67 81 57 l 179 75 l 179 890 l 133 899 q 93 914 106 904 q 81 942 81 924 q 86 959 81 953 q 100 965 92 965 l 835 965 l 835 789 q 814 769 835 769 q 775 826 786 769 l 763 892 l 290 892 l 290 531 l 688 531 l 703 593 q 735 632 713 632 q 753 614 753 632 l 753 375 q 735 356 753 356 q 703 394 713 356 l 688 457 l 290 457 l 290 74 l 781 74 l 793 144 q 832 201 803 201 q 853 181 853 201 l 853 0 l 100 0 z "},"Ẻ":{"ha":950,"x_min":81,"x_max":853,"o":"m 446 1129 q 518 1197 518 1154 q 472 1238 518 1238 q 407 1226 446 1238 l 397 1272 q 483 1290 442 1290 q 563 1265 532 1290 q 594 1199 594 1240 q 574 1142 594 1167 q 517 1104 553 1117 l 508 1042 l 454 1042 l 446 1129 m 100 0 q 86 6 92 0 q 81 24 81 13 q 133 67 81 57 l 179 75 l 179 890 l 133 899 q 93 914 106 904 q 81 942 81 924 q 86 959 81 953 q 100 965 92 965 l 835 965 l 835 789 q 814 769 835 769 q 775 826 786 769 l 763 892 l 290 892 l 290 531 l 688 531 l 703 593 q 735 632 713 632 q 753 614 753 632 l 753 375 q 735 356 753 356 q 703 394 713 356 l 688 457 l 290 457 l 290 74 l 781 74 l 793 144 q 832 201 803 201 q 853 181 853 201 l 853 0 l 100 0 z "},"Ē":{"ha":950,"x_min":81,"x_max":853,"o":"m 290 1157 l 682 1157 l 682 1081 l 290 1081 l 290 1157 m 100 0 q 86 6 92 0 q 81 24 81 13 q 133 67 81 57 l 179 75 l 179 890 l 133 899 q 93 914 106 904 q 81 942 81 924 q 86 959 81 953 q 100 965 92 965 l 835 965 l 835 789 q 814 769 835 769 q 775 826 786 769 l 763 892 l 290 892 l 290 531 l 688 531 l 703 593 q 735 632 713 632 q 753 614 753 632 l 753 375 q 735 356 753 356 q 703 394 713 356 l 688 457 l 290 457 l 290 74 l 781 74 l 793 144 q 832 201 803 201 q 853 181 853 201 l 853 0 l 100 0 z "},"Ę":{"ha":950,"x_min":81,"x_max":853,"o":"m 771 -287 q 660 -251 703 -287 q 618 -151 618 -215 q 647 -65 618 -104 q 721 0 675 -25 l 100 0 q 86 6 92 0 q 81 24 81 13 q 93 51 81 42 q 133 67 106 61 l 179 75 l 179 890 l 133 899 q 93 914 106 904 q 81 942 81 924 q 86 959 81 953 q 100 965 92 965 l 835 965 l 835 789 q 814 769 835 769 q 775 826 786 769 l 763 892 l 290 892 l 290 531 l 688 531 l 703 593 q 735 632 713 632 q 753 614 753 632 l 753 375 q 735 356 753 356 q 703 394 713 356 l 688 457 l 290 457 l 290 74 l 781 74 l 793 144 q 832 201 803 201 q 853 181 853 201 l 853 0 l 801 0 q 726 -62 758 -21 q 694 -149 694 -103 q 719 -210 694 -189 q 786 -231 744 -231 q 842 -222 814 -231 l 851 -269 q 771 -287 811 -287 z "},"Ẽ":{"ha":950,"x_min":81,"x_max":853,"o":"m 576 1058 q 538 1065 556 1058 q 493 1083 519 1071 q 452 1101 469 1094 q 417 1107 435 1107 q 372 1098 393 1107 q 325 1071 350 1089 l 286 1122 q 352 1168 317 1150 q 418 1186 388 1186 q 455 1180 436 1186 q 501 1161 474 1174 q 575 1138 549 1138 q 665 1174 618 1138 l 704 1121 q 641 1076 675 1093 q 576 1058 607 1058 m 100 0 q 86 6 92 0 q 81 24 81 13 q 133 67 81 57 l 179 75 l 179 890 l 133 899 q 93 914 106 904 q 81 942 81 924 q 86 959 81 953 q 100 965 92 965 l 835 965 l 835 789 q 814 769 835 769 q 775 826 786 769 l 763 892 l 290 892 l 290 531 l 688 531 l 703 593 q 735 632 713 632 q 753 614 753 632 l 753 375 q 735 356 753 356 q 703 394 713 356 l 688 457 l 290 457 l 290 74 l 781 74 l 793 144 q 832 201 803 201 q 853 181 853 201 l 853 0 l 100 0 z "},"F":{"ha":903,"x_min":81,"x_max":813,"o":"m 107 0 q 83 29 83 0 q 97 58 83 47 q 135 68 111 68 l 179 68 l 179 890 l 133 899 q 93 914 106 904 q 81 942 81 924 q 86 959 81 953 q 100 965 92 965 l 813 965 l 813 783 q 793 764 813 764 q 770 778 779 764 q 754 821 761 792 l 739 890 l 290 890 l 290 508 l 665 508 l 679 574 q 711 613 688 613 q 726 608 721 613 q 731 594 731 603 l 731 349 q 726 335 731 340 q 711 329 721 329 q 679 369 688 329 l 665 433 l 290 433 l 290 69 l 358 53 q 388 40 379 47 q 397 18 397 32 q 381 0 397 0 l 107 0 z "},"G":{"ha":997,"x_min":69,"x_max":938,"o":"m 535 -17 q 292 39 397 -17 q 128 206 188 94 q 69 483 69 318 q 128 756 69 643 q 288 925 186 868 q 519 982 390 982 q 694 954 611 982 q 831 881 776 926 l 831 722 q 810 701 831 701 q 784 713 793 701 q 769 751 775 725 l 750 847 q 657 890 714 875 q 536 906 600 906 q 277 794 372 906 q 182 483 182 683 q 226 253 182 349 q 349 109 269 158 q 538 60 429 60 q 636 69 588 60 q 724 97 685 79 l 724 414 l 572 414 q 550 442 550 414 q 563 470 550 460 q 600 481 576 481 l 922 481 q 938 463 938 481 q 929 442 938 450 q 901 429 921 435 l 835 413 l 835 53 q 692 1 774 19 q 535 -17 610 -17 z "},"Ğ":{"ha":997,"x_min":69,"x_max":938,"o":"m 508 1038 q 383 1078 438 1038 q 306 1204 329 1118 l 369 1226 q 421 1144 385 1175 q 508 1113 457 1113 q 596 1144 560 1113 q 647 1226 632 1175 l 711 1204 q 633 1078 688 1118 q 508 1038 579 1038 m 535 -17 q 292 39 397 -17 q 128 206 188 94 q 69 483 69 318 q 128 756 69 643 q 288 925 186 868 q 519 982 390 982 q 694 954 611 982 q 831 881 776 926 l 831 722 q 810 701 831 701 q 784 713 793 701 q 769 751 775 725 l 750 847 q 657 890 714 875 q 536 906 600 906 q 277 794 372 906 q 182 483 182 683 q 226 253 182 349 q 349 109 269 158 q 538 60 429 60 q 636 69 588 60 q 724 97 685 79 l 724 414 l 572 414 q 550 442 550 414 q 563 470 550 460 q 600 481 576 481 l 922 481 q 938 463 938 481 q 929 442 938 450 q 901 429 921 435 l 835 413 l 835 53 q 692 1 774 19 q 535 -17 610 -17 z "},"Ǧ":{"ha":997,"x_min":69,"x_max":938,"o":"m 339 1232 l 390 1274 l 517 1136 l 643 1274 l 694 1232 l 546 1043 l 488 1043 l 339 1232 m 535 -17 q 292 39 397 -17 q 128 206 188 94 q 69 483 69 318 q 128 756 69 643 q 288 925 186 868 q 519 982 390 982 q 694 954 611 982 q 831 881 776 926 l 831 722 q 810 701 831 701 q 784 713 793 701 q 769 751 775 725 l 750 847 q 657 890 714 875 q 536 906 600 906 q 277 794 372 906 q 182 483 182 683 q 226 253 182 349 q 349 109 269 158 q 538 60 429 60 q 636 69 588 60 q 724 97 685 79 l 724 414 l 572 414 q 550 442 550 414 q 563 470 550 460 q 600 481 576 481 l 922 481 q 938 463 938 481 q 929 442 938 450 q 901 429 921 435 l 835 413 l 835 53 q 692 1 774 19 q 535 -17 610 -17 z "},"Ĝ":{"ha":997,"x_min":69,"x_max":938,"o":"m 335 1085 l 483 1274 l 542 1274 l 690 1085 l 639 1043 l 513 1181 l 386 1043 l 335 1085 m 535 -17 q 292 39 397 -17 q 128 206 188 94 q 69 483 69 318 q 128 756 69 643 q 288 925 186 868 q 519 982 390 982 q 694 954 611 982 q 831 881 776 926 l 831 722 q 810 701 831 701 q 784 713 793 701 q 769 751 775 725 l 750 847 q 657 890 714 875 q 536 906 600 906 q 277 794 372 906 q 182 483 182 683 q 226 253 182 349 q 349 109 269 158 q 538 60 429 60 q 636 69 588 60 q 724 97 685 79 l 724 414 l 572 414 q 550 442 550 414 q 563 470 550 460 q 600 481 576 481 l 922 481 q 938 463 938 481 q 929 442 938 450 q 901 429 921 435 l 835 413 l 835 53 q 692 1 774 19 q 535 -17 610 -17 z "},"Ģ":{"ha":997,"x_min":69,"x_max":938,"o":"m 535 -17 q 292 39 397 -17 q 128 206 188 94 q 69 483 69 318 q 128 756 69 643 q 288 925 186 868 q 519 982 390 982 q 694 954 611 982 q 831 881 776 926 l 831 722 q 810 701 831 701 q 784 713 793 701 q 769 751 775 725 l 750 847 q 657 890 714 875 q 536 906 600 906 q 277 794 372 906 q 182 483 182 683 q 226 253 182 349 q 349 109 269 158 q 538 60 429 60 q 636 69 588 60 q 724 97 685 79 l 724 414 l 572 414 q 550 442 550 414 q 563 470 550 460 q 600 481 576 481 l 922 481 q 938 463 938 481 q 929 442 938 450 q 901 429 921 435 l 835 413 l 835 53 q 692 1 774 19 q 535 -17 610 -17 m 421 -300 q 469 -212 447 -261 q 494 -131 490 -162 l 454 -117 q 438 -96 438 -112 q 447 -71 438 -79 q 472 -62 456 -62 q 488 -64 482 -62 l 592 -89 q 543 -217 575 -151 q 469 -331 511 -282 l 421 -300 z "},"Ġ":{"ha":997,"x_min":69,"x_max":938,"o":"m 511 1067 q 463 1086 483 1067 q 443 1135 443 1106 q 463 1183 443 1164 q 511 1203 483 1203 q 559 1183 539 1203 q 579 1135 579 1164 q 559 1086 579 1106 q 511 1067 539 1067 m 535 -17 q 292 39 397 -17 q 128 206 188 94 q 69 483 69 318 q 128 756 69 643 q 288 925 186 868 q 519 982 390 982 q 694 954 611 982 q 831 881 776 926 l 831 722 q 810 701 831 701 q 784 713 793 701 q 769 751 775 725 l 750 847 q 657 890 714 875 q 536 906 600 906 q 277 794 372 906 q 182 483 182 683 q 226 253 182 349 q 349 109 269 158 q 538 60 429 60 q 636 69 588 60 q 724 97 685 79 l 724 414 l 572 414 q 550 442 550 414 q 563 470 550 460 q 600 481 576 481 l 922 481 q 938 463 938 481 q 929 442 938 450 q 901 429 921 435 l 835 413 l 835 53 q 692 1 774 19 q 535 -17 610 -17 z "},"Ḡ":{"ha":997,"x_min":69,"x_max":938,"o":"m 321 1157 l 713 1157 l 713 1081 l 321 1081 l 321 1157 m 535 -17 q 292 39 397 -17 q 128 206 188 94 q 69 483 69 318 q 128 756 69 643 q 288 925 186 868 q 519 982 390 982 q 694 954 611 982 q 831 881 776 926 l 831 722 q 810 701 831 701 q 784 713 793 701 q 769 751 775 725 l 750 847 q 657 890 714 875 q 536 906 600 906 q 277 794 372 906 q 182 483 182 683 q 226 253 182 349 q 349 109 269 158 q 538 60 429 60 q 636 69 588 60 q 724 97 685 79 l 724 414 l 572 414 q 550 442 550 414 q 563 470 550 460 q 600 481 576 481 l 922 481 q 938 463 938 481 q 929 442 938 450 q 901 429 921 435 l 835 413 l 835 53 q 692 1 774 19 q 535 -17 610 -17 z "},"H":{"ha":1113,"x_min":81,"x_max":1032,"o":"m 104 0 q 81 29 81 0 q 94 58 81 47 q 132 68 108 68 l 175 68 l 175 897 l 104 897 q 81 926 81 897 q 94 955 81 944 q 131 965 107 965 l 378 965 q 394 947 394 965 q 385 926 394 933 q 356 913 376 918 l 286 896 l 286 539 l 821 539 l 821 897 l 743 897 q 719 926 719 897 q 733 955 719 944 q 769 965 746 965 l 1017 965 q 1032 947 1032 965 q 1024 926 1032 933 q 999 914 1017 918 l 932 896 l 932 69 l 999 51 q 1032 18 1032 43 q 1017 0 1032 0 l 743 0 q 719 29 719 0 q 733 58 719 47 q 769 68 746 68 l 821 68 l 821 464 l 286 464 l 286 69 l 356 53 q 385 40 376 47 q 394 18 394 32 q 378 0 394 0 l 104 0 z "},"Ħ":{"ha":1115,"x_min":82,"x_max":1033,"o":"m 106 0 q 82 29 82 0 q 96 58 82 47 q 133 68 110 68 l 176 68 l 176 686 l 82 686 l 82 757 l 176 757 l 176 897 l 106 897 q 82 926 82 897 q 95 955 82 944 q 132 965 108 965 l 379 965 q 396 947 396 965 q 387 926 396 933 q 357 913 378 918 l 288 896 l 288 757 l 822 757 l 822 897 l 744 897 q 721 926 721 897 q 734 955 721 944 q 771 965 747 965 l 1018 965 q 1033 947 1033 965 q 1000 914 1033 922 l 933 896 l 933 757 l 1033 757 l 1033 686 l 933 686 l 933 69 l 1000 51 q 1026 40 1018 47 q 1033 18 1033 32 q 1018 0 1033 0 l 744 0 q 721 29 721 0 q 734 58 721 47 q 771 68 747 68 l 822 68 l 822 464 l 288 464 l 288 69 l 357 53 q 387 40 378 47 q 396 18 396 32 q 379 0 396 0 l 106 0 m 822 539 l 822 686 l 288 686 l 288 539 l 822 539 z "},"Ḫ":{"ha":1113,"x_min":81,"x_max":1032,"o":"m 104 0 q 81 29 81 0 q 94 58 81 47 q 132 68 108 68 l 175 68 l 175 897 l 104 897 q 81 926 81 897 q 94 955 81 944 q 131 965 107 965 l 378 965 q 394 947 394 965 q 385 926 394 933 q 356 913 376 918 l 286 896 l 286 539 l 821 539 l 821 897 l 743 897 q 719 926 719 897 q 733 955 719 944 q 769 965 746 965 l 1017 965 q 1032 947 1032 965 q 1024 926 1032 933 q 999 914 1017 918 l 932 896 l 932 69 l 999 51 q 1032 18 1032 43 q 1017 0 1032 0 l 743 0 q 719 29 719 0 q 733 58 719 47 q 769 68 746 68 l 821 68 l 821 464 l 286 464 l 286 69 l 356 53 q 385 40 376 47 q 394 18 394 32 q 378 0 394 0 l 104 0 m 557 -269 q 432 -228 486 -269 q 354 -103 378 -187 l 418 -81 q 469 -163 433 -132 q 557 -194 506 -194 q 644 -163 608 -194 q 696 -81 681 -132 l 760 -103 q 682 -228 736 -187 q 557 -269 628 -269 z "},"Ĥ":{"ha":1113,"x_min":81,"x_max":1032,"o":"m 378 1085 l 526 1274 l 585 1274 l 733 1085 l 682 1043 l 556 1181 l 429 1043 l 378 1085 m 104 0 q 81 29 81 0 q 94 58 81 47 q 132 68 108 68 l 175 68 l 175 897 l 104 897 q 81 926 81 897 q 94 955 81 944 q 131 965 107 965 l 378 965 q 394 947 394 965 q 385 926 394 933 q 356 913 376 918 l 286 896 l 286 539 l 821 539 l 821 897 l 743 897 q 719 926 719 897 q 733 955 719 944 q 769 965 746 965 l 1017 965 q 1032 947 1032 965 q 1024 926 1032 933 q 999 914 1017 918 l 932 896 l 932 69 l 999 51 q 1032 18 1032 43 q 1017 0 1032 0 l 743 0 q 719 29 719 0 q 733 58 719 47 q 769 68 746 68 l 821 68 l 821 464 l 286 464 l 286 69 l 356 53 q 385 40 376 47 q 394 18 394 32 q 378 0 394 0 l 104 0 z "},"Ḥ":{"ha":1113,"x_min":81,"x_max":1032,"o":"m 104 0 q 81 29 81 0 q 94 58 81 47 q 132 68 108 68 l 175 68 l 175 897 l 104 897 q 81 926 81 897 q 94 955 81 944 q 131 965 107 965 l 378 965 q 394 947 394 965 q 385 926 394 933 q 356 913 376 918 l 286 896 l 286 539 l 821 539 l 821 897 l 743 897 q 719 926 719 897 q 733 955 719 944 q 769 965 746 965 l 1017 965 q 1032 947 1032 965 q 1024 926 1032 933 q 999 914 1017 918 l 932 896 l 932 69 l 999 51 q 1032 18 1032 43 q 1017 0 1032 0 l 743 0 q 719 29 719 0 q 733 58 719 47 q 769 68 746 68 l 821 68 l 821 464 l 286 464 l 286 69 l 356 53 q 385 40 376 47 q 394 18 394 32 q 378 0 394 0 l 104 0 m 560 -228 q 512 -208 532 -228 q 492 -160 492 -189 q 512 -110 492 -131 q 560 -90 532 -90 q 608 -110 589 -90 q 628 -160 628 -131 q 608 -208 628 -189 q 560 -228 588 -228 z "},"I":{"ha":488,"x_min":88,"x_max":401,"o":"m 111 0 q 88 29 88 0 q 101 58 88 47 q 139 68 115 68 l 182 68 l 182 897 l 111 897 q 88 926 88 897 q 101 955 88 944 q 138 965 114 965 l 385 965 q 401 947 401 965 q 392 926 401 933 q 363 913 383 918 l 293 896 l 293 69 l 363 53 q 392 40 383 47 q 401 18 401 32 q 385 0 401 0 l 111 0 z "},"Ĳ":{"ha":972,"x_min":88,"x_max":908,"o":"m 111 0 q 88 29 88 0 q 101 58 88 47 q 139 68 115 68 l 182 68 l 182 897 l 111 897 q 88 926 88 897 q 101 955 88 944 q 138 965 114 965 l 385 965 q 401 947 401 965 q 392 926 401 933 q 363 913 383 918 l 293 896 l 293 69 l 363 53 q 392 40 383 47 q 401 18 401 32 q 385 0 401 0 l 111 0 m 553 -17 q 510 2 526 -17 q 492 61 493 21 q 646 156 601 97 q 690 322 690 214 l 690 897 l 608 897 q 585 926 585 897 q 598 955 585 944 q 635 965 611 965 l 893 965 q 908 947 908 965 q 899 926 908 933 q 871 913 890 918 l 801 896 l 801 315 q 622 1 801 86 q 553 -17 581 -17 z "},"Í":{"ha":488,"x_min":88,"x_max":401,"o":"m 160 1085 l 281 1288 l 364 1233 l 222 1044 l 160 1085 m 111 0 q 88 29 88 0 q 101 58 88 47 q 139 68 115 68 l 182 68 l 182 897 l 111 897 q 88 926 88 897 q 101 955 88 944 q 138 965 114 965 l 385 965 q 401 947 401 965 q 392 926 401 933 q 363 913 383 918 l 293 896 l 293 69 l 363 53 q 392 40 383 47 q 401 18 401 32 q 385 0 401 0 l 111 0 z "},"Ĭ":{"ha":467,"x_min":31,"x_max":436,"o":"m 233 1038 q 108 1078 163 1038 q 31 1204 54 1118 l 94 1226 q 146 1144 110 1175 q 233 1113 182 1113 q 321 1144 285 1113 q 372 1226 357 1175 l 436 1204 q 358 1078 413 1118 q 233 1038 304 1038 m 108 0 q 85 29 85 0 q 99 58 85 47 q 136 68 113 68 l 179 68 l 179 897 l 108 897 q 85 926 85 897 q 98 955 85 944 q 135 965 111 965 l 382 965 q 399 947 399 965 q 390 926 399 933 q 360 913 381 918 l 290 896 l 290 69 l 360 53 q 390 40 381 47 q 399 18 399 32 q 382 0 399 0 l 108 0 z "},"Ǐ":{"ha":465,"x_min":54,"x_max":410,"o":"m 54 1232 l 106 1274 l 232 1136 l 358 1274 l 410 1232 l 261 1043 l 203 1043 l 54 1232 m 106 0 q 82 29 82 0 q 96 58 82 47 q 133 68 110 68 l 176 68 l 176 897 l 106 897 q 82 926 82 897 q 95 955 82 944 q 132 965 108 965 l 379 965 q 396 947 396 965 q 387 926 396 933 q 357 913 378 918 l 288 896 l 288 69 l 357 53 q 387 40 378 47 q 396 18 396 32 q 379 0 396 0 l 106 0 z "},"Î":{"ha":465,"x_min":54,"x_max":410,"o":"m 54 1085 l 203 1274 l 261 1274 l 410 1085 l 358 1043 l 232 1181 l 106 1043 l 54 1085 m 104 0 q 81 29 81 0 q 94 58 81 47 q 132 68 108 68 l 175 68 l 175 897 l 104 897 q 81 926 81 897 q 94 955 81 944 q 131 965 107 965 l 378 965 q 394 947 394 965 q 385 926 394 933 q 356 913 376 918 l 286 896 l 286 69 l 356 53 q 385 40 376 47 q 394 18 394 32 q 378 0 394 0 l 104 0 z "},"Ï":{"ha":467,"x_min":33,"x_max":433,"o":"m 101 1058 q 53 1078 72 1058 q 33 1126 33 1097 q 53 1174 33 1156 q 101 1193 72 1193 q 149 1174 129 1193 q 168 1126 168 1156 q 149 1078 168 1097 q 101 1058 129 1058 m 367 1058 q 318 1078 338 1058 q 299 1126 299 1097 q 318 1174 299 1156 q 367 1193 338 1193 q 414 1174 394 1193 q 433 1126 433 1156 q 414 1078 433 1097 q 367 1058 394 1058 m 106 0 q 82 29 82 0 q 96 58 82 47 q 133 68 110 68 l 176 68 l 176 897 l 106 897 q 82 926 82 897 q 95 955 82 944 q 132 965 108 965 l 379 965 q 396 947 396 965 q 387 926 396 933 q 357 913 378 918 l 288 896 l 288 69 l 357 53 q 387 40 378 47 q 396 18 396 32 q 379 0 396 0 l 106 0 z "},"İ":{"ha":493,"x_min":90,"x_max":404,"o":"m 244 1067 q 197 1086 217 1067 q 176 1135 176 1106 q 197 1183 176 1164 q 244 1203 217 1203 q 292 1183 272 1203 q 313 1135 313 1164 q 292 1086 313 1106 q 244 1067 272 1067 m 114 0 q 90 29 90 0 q 104 58 90 47 q 142 68 118 68 l 185 68 l 185 897 l 114 897 q 90 926 90 897 q 103 955 90 944 q 140 965 117 965 l 388 965 q 404 947 404 965 q 395 926 404 933 q 365 913 386 918 l 296 896 l 296 69 l 365 53 q 395 40 386 47 q 404 18 404 32 q 388 0 404 0 l 114 0 z "},"Ị":{"ha":488,"x_min":88,"x_max":401,"o":"m 111 0 q 88 29 88 0 q 101 58 88 47 q 139 68 115 68 l 182 68 l 182 897 l 111 897 q 88 926 88 897 q 101 955 88 944 q 138 965 114 965 l 385 965 q 401 947 401 965 q 392 926 401 933 q 363 913 383 918 l 293 896 l 293 69 l 363 53 q 392 40 383 47 q 401 18 401 32 q 385 0 401 0 l 111 0 m 242 -228 q 194 -208 214 -228 q 174 -160 174 -189 q 194 -110 174 -131 q 242 -90 214 -90 q 290 -110 271 -90 q 310 -160 310 -131 q 290 -208 310 -189 q 242 -228 269 -228 z "},"Ì":{"ha":488,"x_min":88,"x_max":401,"o":"m 115 1233 l 199 1288 l 319 1085 l 257 1044 l 115 1233 m 111 0 q 88 29 88 0 q 101 58 88 47 q 139 68 115 68 l 182 68 l 182 897 l 111 897 q 88 926 88 897 q 101 955 88 944 q 138 965 114 965 l 385 965 q 401 947 401 965 q 392 926 401 933 q 363 913 383 918 l 293 896 l 293 69 l 363 53 q 392 40 383 47 q 401 18 401 32 q 385 0 401 0 l 111 0 z "},"Ỉ":{"ha":525,"x_min":90,"x_max":404,"o":"m 204 1129 q 276 1197 276 1154 q 231 1238 276 1238 q 165 1226 204 1238 l 156 1272 q 242 1290 200 1290 q 322 1265 290 1290 q 353 1199 353 1240 q 332 1142 353 1167 q 275 1104 311 1117 l 267 1042 l 213 1042 l 204 1129 m 114 0 q 90 29 90 0 q 104 58 90 47 q 142 68 118 68 l 185 68 l 185 897 l 114 897 q 90 926 90 897 q 103 955 90 944 q 140 965 117 965 l 388 965 q 404 947 404 965 q 395 926 404 933 q 365 913 386 918 l 296 896 l 296 69 l 365 53 q 395 40 386 47 q 404 18 404 32 q 388 0 404 0 l 114 0 z "},"Ī":{"ha":436,"x_min":21,"x_max":413,"o":"m 21 1157 l 413 1157 l 413 1081 l 21 1081 l 21 1157 m 86 0 q 63 29 63 0 q 76 58 63 47 q 114 68 90 68 l 157 68 l 157 897 l 86 897 q 63 926 63 897 q 76 955 63 944 q 113 965 89 965 l 360 965 q 376 947 376 965 q 367 926 376 933 q 338 913 358 918 l 268 896 l 268 69 l 338 53 q 367 40 358 47 q 376 18 376 32 q 360 0 376 0 l 86 0 z "},"Į":{"ha":492,"x_min":90,"x_max":404,"o":"m 254 -287 q 144 -251 186 -287 q 101 -151 101 -215 q 130 -65 101 -104 q 204 0 158 -25 l 114 0 q 90 29 90 0 q 104 58 90 47 q 142 68 118 68 l 185 68 l 185 897 l 114 897 q 90 926 90 897 q 103 955 90 944 q 140 965 117 965 l 388 965 q 404 947 404 965 q 365 913 404 921 l 296 896 l 296 69 l 365 53 q 395 40 386 47 q 404 18 404 32 q 388 0 404 0 l 285 0 q 210 -62 242 -21 q 178 -149 178 -103 q 203 -210 178 -189 q 269 -231 228 -231 q 325 -222 299 -231 l 335 -269 q 254 -287 294 -287 z "},"Ĩ":{"ha":475,"x_min":29,"x_max":447,"o":"m 319 1058 q 281 1065 299 1058 q 236 1083 263 1071 q 195 1101 213 1094 q 160 1107 178 1107 q 115 1098 136 1107 q 68 1071 93 1089 l 29 1122 q 95 1168 60 1150 q 161 1186 131 1186 q 198 1180 179 1186 q 244 1161 217 1174 q 318 1138 292 1138 q 408 1174 361 1138 l 447 1121 q 384 1076 418 1093 q 319 1058 350 1058 m 114 0 q 90 29 90 0 q 104 58 90 47 q 142 68 118 68 l 185 68 l 185 897 l 114 897 q 90 926 90 897 q 103 955 90 944 q 140 965 117 965 l 388 965 q 404 947 404 965 q 395 926 404 933 q 365 913 386 918 l 296 896 l 296 69 l 365 53 q 395 40 386 47 q 404 18 404 32 q 388 0 404 0 l 114 0 z "},"J":{"ha":532,"x_min":53,"x_max":469,"o":"m 114 -17 q 71 2 88 -17 q 53 61 54 21 q 207 156 163 97 q 251 322 251 214 l 251 897 l 169 897 q 146 926 146 897 q 159 955 146 944 q 196 965 172 965 l 454 965 q 469 947 469 965 q 460 926 469 933 q 432 913 451 918 l 363 896 l 363 315 q 183 1 363 79 q 114 -17 143 -17 z "},"Ĵ":{"ha":543,"x_min":53,"x_max":482,"o":"m 126 1085 l 275 1274 l 333 1274 l 482 1085 l 431 1043 l 304 1181 l 178 1043 l 126 1085 m 114 -17 q 71 2 88 -17 q 53 61 54 21 q 207 156 163 97 q 251 322 251 214 l 251 897 l 169 897 q 146 926 146 897 q 159 955 146 944 q 196 965 172 965 l 454 965 q 469 947 469 965 q 460 926 469 933 q 432 913 451 918 l 363 896 l 363 315 q 183 1 363 79 q 114 -17 143 -17 z "},"K":{"ha":950,"x_min":81,"x_max":935,"o":"m 104 0 q 81 29 81 0 q 94 58 81 47 q 132 68 108 68 l 175 68 l 175 897 l 104 897 q 81 926 81 897 q 94 955 81 944 q 131 965 107 965 l 376 965 q 389 960 385 965 q 393 947 393 956 q 384 926 393 933 q 356 913 375 918 l 286 896 l 286 69 l 356 53 q 385 40 376 47 q 394 18 394 32 q 390 5 394 10 q 378 0 386 0 l 104 0 m 286 496 l 708 897 l 618 897 q 594 926 594 897 q 608 955 594 944 q 646 965 622 965 l 892 965 q 910 943 910 965 q 871 907 910 913 l 817 899 l 410 511 l 826 67 l 896 53 q 935 18 935 44 q 918 0 935 0 l 736 0 l 286 496 z "},"Ķ":{"ha":950,"x_min":81,"x_max":935,"o":"m 104 0 q 81 29 81 0 q 94 58 81 47 q 132 68 108 68 l 175 68 l 175 897 l 104 897 q 81 926 81 897 q 94 955 81 944 q 131 965 107 965 l 376 965 q 389 960 385 965 q 393 947 393 956 q 384 926 393 933 q 356 913 375 918 l 286 896 l 286 69 l 356 53 q 385 40 376 47 q 394 18 394 32 q 390 5 394 10 q 378 0 386 0 l 104 0 m 286 496 l 708 897 l 618 897 q 594 926 594 897 q 608 955 594 944 q 646 965 622 965 l 892 965 q 910 943 910 965 q 871 907 910 913 l 817 899 l 410 511 l 826 67 l 896 53 q 935 18 935 44 q 918 0 935 0 l 736 0 l 286 496 m 397 -300 q 445 -212 424 -261 q 471 -131 467 -162 l 431 -117 q 414 -96 414 -112 q 423 -71 414 -79 q 449 -62 432 -62 q 464 -64 458 -62 l 568 -89 q 519 -217 551 -151 q 446 -331 488 -282 l 397 -300 z "},"L":{"ha":832,"x_min":81,"x_max":806,"o":"m 100 0 q 86 6 92 0 q 81 24 81 13 q 93 51 81 42 q 133 67 106 61 l 179 75 l 179 897 l 107 897 q 83 926 83 897 q 97 955 83 944 q 133 965 110 965 l 386 965 q 403 947 403 965 q 364 913 403 921 l 290 896 l 290 75 l 728 75 l 746 163 q 785 219 757 219 q 806 199 806 219 l 806 0 l 100 0 z "},"Ĺ":{"ha":832,"x_min":81,"x_max":806,"o":"m 140 1083 l 261 1286 l 344 1232 l 203 1043 l 140 1083 m 100 0 q 86 6 92 0 q 81 24 81 13 q 93 51 81 42 q 133 67 106 61 l 179 75 l 179 897 l 107 897 q 83 926 83 897 q 97 955 83 944 q 133 965 110 965 l 386 965 q 403 947 403 965 q 364 913 403 921 l 290 896 l 290 75 l 728 75 l 746 163 q 785 219 757 219 q 806 199 806 219 l 806 0 l 100 0 z "},"Ľ":{"ha":832,"x_min":81,"x_max":806,"o":"m 507 739 q 555 827 533 778 q 581 908 576 876 l 540 922 q 524 943 524 926 q 533 968 524 960 q 558 976 542 976 q 574 975 568 976 l 678 950 q 629 822 661 888 q 556 708 597 757 l 507 739 m 100 0 q 86 6 92 0 q 81 24 81 13 q 93 51 81 42 q 133 67 106 61 l 179 75 l 179 897 l 107 897 q 83 926 83 897 q 97 955 83 944 q 133 965 110 965 l 386 965 q 403 947 403 965 q 364 913 403 921 l 290 896 l 290 75 l 728 75 l 746 163 q 785 219 757 219 q 806 199 806 219 l 806 0 l 100 0 z "},"Ļ":{"ha":832,"x_min":81,"x_max":806,"o":"m 100 0 q 86 6 92 0 q 81 24 81 13 q 93 51 81 42 q 133 67 106 61 l 179 75 l 179 897 l 107 897 q 83 926 83 897 q 97 955 83 944 q 133 965 110 965 l 386 965 q 403 947 403 965 q 364 913 403 921 l 290 896 l 290 75 l 728 75 l 746 163 q 785 219 757 219 q 806 199 806 219 l 806 0 l 100 0 m 390 -300 q 438 -212 417 -261 q 464 -131 460 -162 l 424 -117 q 407 -96 407 -112 q 416 -71 407 -79 q 442 -62 425 -62 q 457 -64 451 -62 l 561 -89 q 513 -217 544 -151 q 439 -331 481 -282 l 390 -300 z "},"Ŀ":{"ha":832,"x_min":81,"x_max":806,"o":"m 100 0 q 86 6 92 0 q 81 24 81 13 q 93 51 81 42 q 133 67 106 61 l 179 75 l 179 897 l 107 897 q 83 926 83 897 q 97 955 83 944 q 133 965 110 965 l 386 965 q 403 947 403 965 q 364 913 403 921 l 290 896 l 290 75 l 728 75 l 746 163 q 785 219 757 219 q 806 199 806 219 l 806 0 l 100 0 m 604 460 q 556 479 576 460 q 536 528 536 499 q 556 578 536 558 q 604 597 576 597 q 653 578 633 597 q 672 528 672 558 q 652 479 672 499 q 604 460 632 460 z "},"Ḷ":{"ha":832,"x_min":81,"x_max":806,"o":"m 100 0 q 86 6 92 0 q 81 24 81 13 q 93 51 81 42 q 133 67 106 61 l 179 75 l 179 897 l 107 897 q 83 926 83 897 q 97 955 83 944 q 133 965 110 965 l 386 965 q 403 947 403 965 q 364 913 403 921 l 290 896 l 290 75 l 728 75 l 746 163 q 785 219 757 219 q 806 199 806 219 l 806 0 l 100 0 m 471 -228 q 423 -208 443 -228 q 403 -160 403 -189 q 423 -110 403 -131 q 471 -90 443 -90 q 519 -110 500 -90 q 539 -160 539 -131 q 519 -208 539 -189 q 471 -228 499 -228 z "},"Ḹ":{"ha":835,"x_min":49,"x_max":806,"o":"m 49 1157 l 440 1157 l 440 1081 l 49 1081 l 49 1157 m 100 0 q 86 6 92 0 q 81 24 81 13 q 93 51 81 42 q 133 67 106 61 l 179 75 l 179 897 l 107 897 q 83 926 83 897 q 97 955 83 944 q 133 965 110 965 l 386 965 q 403 947 403 965 q 364 913 403 921 l 290 896 l 290 75 l 728 75 l 746 163 q 785 219 757 219 q 806 199 806 219 l 806 0 l 100 0 m 475 -228 q 427 -208 447 -228 q 407 -160 407 -189 q 427 -110 407 -131 q 475 -90 447 -90 q 524 -110 504 -90 q 543 -160 543 -131 q 523 -208 543 -189 q 475 -228 503 -228 z "},"Ḻ":{"ha":832,"x_min":81,"x_max":806,"o":"m 100 0 q 86 6 92 0 q 81 24 81 13 q 93 51 81 42 q 133 67 106 61 l 179 75 l 179 897 l 107 897 q 83 926 83 897 q 97 955 83 944 q 133 965 110 965 l 386 965 q 403 947 403 965 q 364 913 403 921 l 290 896 l 290 75 l 728 75 l 746 163 q 785 219 757 219 q 806 199 806 219 l 806 0 l 100 0 m 158 -122 l 767 -122 l 767 -196 l 158 -196 l 158 -122 z "},"Ł":{"ha":857,"x_min":82,"x_max":831,"o":"m 125 0 q 111 6 117 0 q 106 24 106 13 q 118 51 106 42 q 158 67 131 61 l 204 75 l 204 399 l 119 346 l 82 411 l 204 486 l 204 897 l 132 897 q 108 926 108 897 q 122 955 108 944 q 158 965 135 965 l 411 965 q 428 947 428 965 q 419 926 428 933 q 389 913 410 918 l 315 896 l 315 554 l 515 678 l 554 614 l 315 467 l 315 75 l 753 75 l 771 163 q 810 219 782 219 q 831 199 831 219 l 831 0 l 125 0 z "},"M":{"ha":1433,"x_min":38,"x_max":1400,"o":"m 61 0 q 38 29 38 0 q 51 58 38 47 q 89 68 65 68 l 133 68 l 297 890 l 251 897 q 200 940 200 906 q 219 965 200 965 l 464 965 l 686 231 q 705 145 697 193 q 714 82 713 97 l 722 82 q 731 145 724 97 q 749 231 739 193 l 957 965 l 1201 965 q 1221 940 1221 965 q 1169 897 1221 906 l 1124 890 l 1301 69 l 1363 56 q 1400 21 1400 47 q 1385 0 1400 0 l 1103 0 q 1085 8 1092 0 q 1079 29 1079 15 q 1093 58 1079 47 q 1131 68 1107 68 l 1192 68 l 1036 797 q 1027 849 1031 819 q 1024 886 1024 878 l 1017 886 q 1009 852 1015 878 q 996 797 1003 826 l 771 0 l 642 0 l 400 797 q 387 849 393 819 q 379 886 381 878 l 372 886 q 369 849 372 878 q 361 797 365 819 l 218 69 l 297 53 q 336 19 336 46 q 321 0 336 0 l 61 0 z "},"Ṃ":{"ha":1433,"x_min":38,"x_max":1400,"o":"m 61 0 q 38 29 38 0 q 51 58 38 47 q 89 68 65 68 l 133 68 l 297 890 l 251 897 q 200 940 200 906 q 219 965 200 965 l 464 965 l 686 231 q 705 145 697 193 q 714 82 713 97 l 722 82 q 731 145 724 97 q 749 231 739 193 l 957 965 l 1201 965 q 1221 940 1221 965 q 1169 897 1221 906 l 1124 890 l 1301 69 l 1363 56 q 1400 21 1400 47 q 1385 0 1400 0 l 1103 0 q 1085 8 1092 0 q 1079 29 1079 15 q 1093 58 1079 47 q 1131 68 1107 68 l 1192 68 l 1036 797 q 1027 849 1031 819 q 1024 886 1024 878 l 1017 886 q 1009 852 1015 878 q 996 797 1003 826 l 771 0 l 642 0 l 400 797 q 387 849 393 819 q 379 886 381 878 l 372 886 q 369 849 372 878 q 361 797 365 819 l 218 69 l 297 53 q 336 19 336 46 q 321 0 336 0 l 61 0 m 707 -228 q 659 -208 679 -228 q 639 -160 639 -189 q 659 -110 639 -131 q 707 -90 679 -90 q 756 -110 736 -90 q 775 -160 775 -131 q 755 -208 775 -189 q 707 -228 735 -228 z "},"N":{"ha":1094,"x_min":81,"x_max":1017,"o":"m 104 0 q 81 29 81 0 q 94 58 81 47 q 132 68 108 68 l 176 68 l 176 890 l 132 897 q 92 912 104 901 q 81 940 81 922 q 101 965 81 965 l 279 965 l 754 281 q 829 143 794 222 l 829 897 l 746 897 q 722 926 722 897 q 735 955 722 944 q 772 965 749 965 l 1001 965 q 1017 947 1017 965 q 1006 925 1017 935 q 976 911 994 915 l 917 896 l 917 0 l 813 0 l 329 697 q 264 819 294 747 l 264 69 l 338 53 q 367 40 358 49 q 375 18 375 32 q 360 0 375 0 l 104 0 z "},"Ń":{"ha":1094,"x_min":81,"x_max":1017,"o":"m 456 1083 l 576 1286 l 660 1232 l 518 1043 l 456 1083 m 104 0 q 81 29 81 0 q 94 58 81 47 q 132 68 108 68 l 176 68 l 176 890 l 132 897 q 92 912 104 901 q 81 940 81 922 q 101 965 81 965 l 279 965 l 754 281 q 829 143 794 222 l 829 897 l 746 897 q 722 926 722 897 q 735 955 722 944 q 772 965 749 965 l 1001 965 q 1017 947 1017 965 q 1006 925 1017 935 q 976 911 994 915 l 917 896 l 917 0 l 813 0 l 329 697 q 264 819 294 747 l 264 69 l 338 53 q 367 40 358 49 q 375 18 375 32 q 360 0 375 0 l 104 0 z "},"Ň":{"ha":1094,"x_min":81,"x_max":1017,"o":"m 367 1232 l 418 1274 l 544 1136 l 671 1274 l 722 1232 l 574 1043 l 515 1043 l 367 1232 m 104 0 q 81 29 81 0 q 94 58 81 47 q 132 68 108 68 l 176 68 l 176 890 l 132 897 q 92 912 104 901 q 81 940 81 922 q 101 965 81 965 l 279 965 l 754 281 q 829 143 794 222 l 829 897 l 746 897 q 722 926 722 897 q 735 955 722 944 q 772 965 749 965 l 1001 965 q 1017 947 1017 965 q 1006 925 1017 935 q 976 911 994 915 l 917 896 l 917 0 l 813 0 l 329 697 q 264 819 294 747 l 264 69 l 338 53 q 367 40 358 49 q 375 18 375 32 q 360 0 375 0 l 104 0 z "},"Ņ":{"ha":1094,"x_min":81,"x_max":1017,"o":"m 104 0 q 81 29 81 0 q 94 58 81 47 q 132 68 108 68 l 176 68 l 176 890 l 132 897 q 92 912 104 901 q 81 940 81 922 q 101 965 81 965 l 279 965 l 754 281 q 829 143 794 222 l 829 897 l 746 897 q 722 926 722 897 q 735 955 722 944 q 772 965 749 965 l 1001 965 q 1017 947 1017 965 q 1006 925 1017 935 q 976 911 994 915 l 917 896 l 917 0 l 813 0 l 329 697 q 264 819 294 747 l 264 69 l 338 53 q 367 40 358 49 q 375 18 375 32 q 360 0 375 0 l 104 0 m 461 -300 q 509 -212 488 -261 q 535 -131 531 -162 l 494 -117 q 478 -96 478 -112 q 487 -71 478 -79 q 513 -62 496 -62 q 528 -64 522 -62 l 632 -89 q 583 -217 615 -151 q 510 -331 551 -282 l 461 -300 z "},"Ṅ":{"ha":1094,"x_min":81,"x_max":1017,"o":"m 546 1067 q 498 1086 518 1067 q 478 1135 478 1106 q 498 1183 478 1164 q 546 1203 518 1203 q 594 1183 574 1203 q 614 1135 614 1164 q 594 1086 614 1106 q 546 1067 574 1067 m 104 0 q 81 29 81 0 q 94 58 81 47 q 132 68 108 68 l 176 68 l 176 890 l 132 897 q 92 912 104 901 q 81 940 81 922 q 101 965 81 965 l 279 965 l 754 281 q 829 143 794 222 l 829 897 l 746 897 q 722 926 722 897 q 735 955 722 944 q 772 965 749 965 l 1001 965 q 1017 947 1017 965 q 1006 925 1017 935 q 976 911 994 915 l 917 896 l 917 0 l 813 0 l 329 697 q 264 819 294 747 l 264 69 l 338 53 q 367 40 358 49 q 375 18 375 32 q 360 0 375 0 l 104 0 z "},"Ṇ":{"ha":1094,"x_min":81,"x_max":1017,"o":"m 104 0 q 81 29 81 0 q 94 58 81 47 q 132 68 108 68 l 176 68 l 176 890 l 132 897 q 92 912 104 901 q 81 940 81 922 q 101 965 81 965 l 279 965 l 754 281 q 829 143 794 222 l 829 897 l 746 897 q 722 926 722 897 q 735 955 722 944 q 772 965 749 965 l 1001 965 q 1017 947 1017 965 q 1006 925 1017 935 q 976 911 994 915 l 917 896 l 917 0 l 813 0 l 329 697 q 264 819 294 747 l 264 69 l 338 53 q 367 40 358 49 q 375 18 375 32 q 360 0 375 0 l 104 0 m 553 -228 q 505 -208 525 -228 q 485 -160 485 -189 q 505 -110 485 -131 q 553 -90 525 -90 q 601 -110 582 -90 q 621 -160 621 -131 q 601 -208 621 -189 q 553 -228 581 -228 z "},"Ŋ":{"ha":1096,"x_min":81,"x_max":1018,"o":"m 638 -232 q 767 -167 722 -215 q 813 -32 813 -119 l 813 0 l 329 697 q 264 814 294 746 l 264 69 l 339 53 q 368 40 360 49 q 376 18 376 32 q 360 0 376 0 l 106 0 q 82 29 82 0 q 96 58 82 47 q 133 68 110 68 l 176 68 l 176 890 l 132 897 q 92 912 104 901 q 81 940 81 922 q 101 965 81 965 l 279 965 l 754 281 q 829 149 790 226 l 829 897 l 747 897 q 724 926 724 897 q 737 955 724 944 q 774 965 750 965 l 1001 965 q 1018 947 1018 965 q 1006 925 1018 935 q 978 911 994 915 l 917 896 l 917 -28 q 841 -217 917 -150 q 663 -299 765 -283 l 638 -232 z "},"Ṉ":{"ha":1094,"x_min":81,"x_max":1017,"o":"m 104 0 q 81 29 81 0 q 94 58 81 47 q 132 68 108 68 l 176 68 l 176 890 l 132 897 q 92 912 104 901 q 81 940 81 922 q 101 965 81 965 l 279 965 l 754 281 q 829 143 794 222 l 829 897 l 746 897 q 722 926 722 897 q 735 955 722 944 q 772 965 749 965 l 1001 965 q 1017 947 1017 965 q 1006 925 1017 935 q 976 911 994 915 l 917 896 l 917 0 l 813 0 l 329 697 q 264 819 294 747 l 264 69 l 338 53 q 367 40 358 49 q 375 18 375 32 q 360 0 375 0 l 104 0 m 292 -122 l 817 -122 l 817 -196 l 292 -196 l 292 -122 z "},"Ñ":{"ha":1094,"x_min":81,"x_max":1017,"o":"m 619 1058 q 581 1065 599 1058 q 536 1083 563 1071 q 495 1101 513 1094 q 460 1107 478 1107 q 415 1098 436 1107 q 368 1071 393 1089 l 329 1122 q 395 1168 360 1150 q 461 1186 431 1186 q 498 1180 479 1186 q 544 1161 517 1174 q 618 1138 592 1138 q 708 1174 661 1138 l 747 1121 q 684 1076 718 1093 q 619 1058 650 1058 m 104 0 q 81 29 81 0 q 94 58 81 47 q 132 68 108 68 l 176 68 l 176 890 l 132 897 q 92 912 104 901 q 81 940 81 922 q 101 965 81 965 l 279 965 l 754 281 q 829 143 794 222 l 829 897 l 746 897 q 722 926 722 897 q 735 955 722 944 q 772 965 749 965 l 1001 965 q 1017 947 1017 965 q 1006 925 1017 935 q 976 911 994 915 l 917 896 l 917 0 l 813 0 l 329 697 q 264 819 294 747 l 264 69 l 338 53 q 367 40 358 49 q 375 18 375 32 q 360 0 375 0 l 104 0 z "},"O":{"ha":1024,"x_min":69,"x_max":954,"o":"m 513 -17 q 280 38 379 -17 q 125 205 181 93 q 69 481 69 317 q 125 757 69 644 q 280 926 181 869 q 513 982 379 982 q 744 926 644 982 q 899 757 844 869 q 954 481 954 644 q 835 110 954 236 q 513 -17 715 -17 m 511 58 q 756 169 671 58 q 842 481 842 279 q 756 795 842 683 q 511 907 671 907 q 267 795 353 907 q 182 481 182 683 q 267 169 182 279 q 511 58 353 58 z "},"Ó":{"ha":1024,"x_min":69,"x_max":954,"o":"m 418 1083 l 539 1286 l 622 1232 l 481 1043 l 418 1083 m 513 -17 q 280 38 379 -17 q 125 205 181 93 q 69 481 69 317 q 125 757 69 644 q 280 926 181 869 q 513 982 379 982 q 744 926 644 982 q 899 757 844 869 q 954 481 954 644 q 835 110 954 236 q 513 -17 715 -17 m 511 58 q 756 169 671 58 q 842 481 842 279 q 756 795 842 683 q 511 907 671 907 q 267 795 353 907 q 182 481 182 683 q 267 169 182 279 q 511 58 353 58 z "},"Ŏ":{"ha":1024,"x_min":69,"x_max":954,"o":"m 511 1038 q 386 1078 440 1038 q 308 1204 332 1118 l 372 1226 q 424 1144 388 1175 q 511 1113 460 1113 q 599 1144 563 1113 q 650 1226 635 1175 l 714 1204 q 636 1078 690 1118 q 511 1038 582 1038 m 513 -17 q 280 38 379 -17 q 125 205 181 93 q 69 481 69 317 q 125 757 69 644 q 280 926 181 869 q 513 982 379 982 q 744 926 644 982 q 899 757 844 869 q 954 481 954 644 q 835 110 954 236 q 513 -17 715 -17 m 511 58 q 756 169 671 58 q 842 481 842 279 q 756 795 842 683 q 511 907 671 907 q 267 795 353 907 q 182 481 182 683 q 267 169 182 279 q 511 58 353 58 z "},"Ǒ":{"ha":1024,"x_min":69,"x_max":954,"o":"m 335 1232 l 386 1274 l 513 1136 l 639 1274 l 690 1232 l 542 1043 l 483 1043 l 335 1232 m 513 -17 q 280 38 379 -17 q 125 205 181 93 q 69 481 69 317 q 125 757 69 644 q 280 926 181 869 q 513 982 379 982 q 744 926 644 982 q 899 757 844 869 q 954 481 954 644 q 835 110 954 236 q 513 -17 715 -17 m 511 58 q 756 169 671 58 q 842 481 842 279 q 756 795 842 683 q 511 907 671 907 q 267 795 353 907 q 182 481 182 683 q 267 169 182 279 q 511 58 353 58 z "},"Ô":{"ha":1024,"x_min":69,"x_max":954,"o":"m 335 1085 l 483 1274 l 542 1274 l 690 1085 l 639 1043 l 513 1181 l 386 1043 l 335 1085 m 513 -17 q 280 38 379 -17 q 125 205 181 93 q 69 481 69 317 q 125 757 69 644 q 280 926 181 869 q 513 982 379 982 q 744 926 644 982 q 899 757 844 869 q 954 481 954 644 q 835 110 954 236 q 513 -17 715 -17 m 511 58 q 756 169 671 58 q 842 481 842 279 q 756 795 842 683 q 511 907 671 907 q 267 795 353 907 q 182 481 182 683 q 267 169 182 279 q 511 58 353 58 z "},"Ố":{"ha":1024,"x_min":69,"x_max":954,"o":"m 642 1217 l 729 1368 l 804 1319 l 693 1182 l 642 1217 m 333 1085 l 482 1274 l 540 1274 l 689 1085 l 638 1043 l 511 1181 l 385 1043 l 333 1085 m 513 -17 q 280 38 379 -17 q 125 205 181 93 q 69 481 69 317 q 125 757 69 644 q 280 926 181 869 q 513 982 379 982 q 744 926 644 982 q 899 757 844 869 q 954 481 954 644 q 835 110 954 236 q 513 -17 715 -17 m 511 58 q 756 169 671 58 q 842 481 842 279 q 756 795 842 683 q 511 907 671 907 q 267 795 353 907 q 182 481 182 683 q 267 169 182 279 q 511 58 353 58 z "},"Ộ":{"ha":1024,"x_min":69,"x_max":954,"o":"m 335 1085 l 483 1274 l 542 1274 l 690 1085 l 639 1043 l 513 1181 l 386 1043 l 335 1085 m 513 -17 q 280 38 379 -17 q 125 205 181 93 q 69 481 69 317 q 125 757 69 644 q 280 926 181 869 q 513 982 379 982 q 744 926 644 982 q 899 757 844 869 q 954 481 954 644 q 835 110 954 236 q 513 -17 715 -17 m 511 58 q 756 169 671 58 q 842 481 842 279 q 756 795 842 683 q 511 907 671 907 q 267 795 353 907 q 182 481 182 683 q 267 169 182 279 q 511 58 353 58 m 513 -228 q 465 -208 485 -228 q 444 -160 444 -189 q 465 -110 444 -131 q 513 -90 485 -90 q 561 -110 542 -90 q 581 -160 581 -131 q 560 -208 581 -189 q 513 -228 540 -228 z "},"Ồ":{"ha":1024,"x_min":69,"x_max":954,"o":"m 222 1319 l 299 1368 l 385 1217 l 333 1182 l 222 1319 m 338 1085 l 486 1274 l 544 1274 l 693 1085 l 642 1043 l 515 1181 l 389 1043 l 338 1085 m 513 -17 q 280 38 379 -17 q 125 205 181 93 q 69 481 69 317 q 125 757 69 644 q 280 926 181 869 q 513 982 379 982 q 744 926 644 982 q 899 757 844 869 q 954 481 954 644 q 835 110 954 236 q 513 -17 715 -17 m 511 58 q 756 169 671 58 q 842 481 842 279 q 756 795 842 683 q 511 907 671 907 q 267 795 353 907 q 182 481 182 683 q 267 169 182 279 q 511 58 353 58 z "},"Ổ":{"ha":1024,"x_min":69,"x_max":954,"o":"m 685 1258 q 754 1324 754 1282 q 710 1361 754 1361 q 649 1351 683 1361 l 639 1394 q 721 1413 685 1413 q 798 1388 768 1413 q 828 1324 828 1364 q 808 1270 828 1293 q 753 1235 788 1247 l 746 1175 l 692 1175 l 685 1258 m 339 1085 l 488 1274 l 546 1274 l 694 1085 l 643 1043 l 517 1181 l 390 1043 l 339 1085 m 513 -17 q 280 38 379 -17 q 125 205 181 93 q 69 481 69 317 q 125 757 69 644 q 280 926 181 869 q 513 982 379 982 q 744 926 644 982 q 899 757 844 869 q 954 481 954 644 q 835 110 954 236 q 513 -17 715 -17 m 511 58 q 756 169 671 58 q 842 481 842 279 q 756 795 842 683 q 511 907 671 907 q 267 795 353 907 q 182 481 182 683 q 267 169 182 279 q 511 58 353 58 z "},"Ỗ":{"ha":1024,"x_min":69,"x_max":954,"o":"m 574 1281 q 544 1285 558 1281 q 511 1300 531 1290 q 451 1319 472 1319 q 382 1290 418 1319 l 351 1340 q 402 1375 375 1361 q 451 1389 429 1389 q 515 1368 476 1389 q 538 1358 519 1367 q 572 1350 557 1350 q 642 1379 603 1350 l 672 1329 q 574 1281 621 1281 m 511 1038 q 386 1078 440 1038 q 308 1204 332 1118 l 372 1226 q 424 1144 388 1175 q 511 1113 460 1113 q 599 1144 563 1113 q 650 1226 635 1175 l 714 1204 q 636 1078 690 1118 q 511 1038 582 1038 m 513 -17 q 280 38 379 -17 q 125 205 181 93 q 69 481 69 317 q 125 757 69 644 q 280 926 181 869 q 513 982 379 982 q 744 926 644 982 q 899 757 844 869 q 954 481 954 644 q 835 110 954 236 q 513 -17 715 -17 m 511 58 q 756 169 671 58 q 842 481 842 279 q 756 795 842 683 q 511 907 671 907 q 267 795 353 907 q 182 481 182 683 q 267 169 182 279 q 511 58 353 58 z "},"Ö":{"ha":1024,"x_min":69,"x_max":954,"o":"m 379 1058 q 331 1078 350 1058 q 311 1126 311 1097 q 331 1174 311 1156 q 379 1193 350 1193 q 426 1174 407 1193 q 446 1126 446 1156 q 426 1078 446 1097 q 379 1058 407 1058 m 646 1058 q 597 1078 617 1058 q 578 1126 578 1097 q 597 1174 578 1156 q 646 1193 617 1193 q 693 1174 674 1193 q 713 1126 713 1156 q 693 1078 713 1097 q 646 1058 674 1058 m 513 -17 q 280 38 379 -17 q 125 205 181 93 q 69 481 69 317 q 125 757 69 644 q 280 926 181 869 q 513 982 379 982 q 744 926 644 982 q 899 757 844 869 q 954 481 954 644 q 835 110 954 236 q 513 -17 715 -17 m 511 58 q 756 169 671 58 q 842 481 842 279 q 756 795 842 683 q 511 907 671 907 q 267 795 353 907 q 182 481 182 683 q 267 169 182 279 q 511 58 353 58 z "},"Ọ":{"ha":1024,"x_min":69,"x_max":954,"o":"m 513 -17 q 280 38 379 -17 q 125 205 181 93 q 69 481 69 317 q 125 757 69 644 q 280 926 181 869 q 513 982 379 982 q 744 926 644 982 q 899 757 844 869 q 954 481 954 644 q 835 110 954 236 q 513 -17 715 -17 m 511 58 q 756 169 671 58 q 842 481 842 279 q 756 795 842 683 q 511 907 671 907 q 267 795 353 907 q 182 481 182 683 q 267 169 182 279 q 511 58 353 58 m 513 -228 q 465 -208 485 -228 q 444 -160 444 -189 q 465 -110 444 -131 q 513 -90 485 -90 q 561 -110 542 -90 q 581 -160 581 -131 q 560 -208 581 -189 q 513 -228 540 -228 z "},"Ò":{"ha":1024,"x_min":69,"x_max":954,"o":"m 385 1233 l 468 1288 l 589 1085 l 526 1044 l 385 1233 m 513 -17 q 280 38 379 -17 q 125 205 181 93 q 69 481 69 317 q 125 757 69 644 q 280 926 181 869 q 513 982 379 982 q 744 926 644 982 q 899 757 844 869 q 954 481 954 644 q 835 110 954 236 q 513 -17 715 -17 m 511 58 q 756 169 671 58 q 842 481 842 279 q 756 795 842 683 q 511 907 671 907 q 267 795 353 907 q 182 481 182 683 q 267 169 182 279 q 511 58 353 58 z "},"Ỏ":{"ha":1024,"x_min":69,"x_max":954,"o":"m 481 1129 q 553 1197 553 1154 q 507 1238 553 1238 q 442 1226 481 1238 l 432 1272 q 518 1290 476 1290 q 598 1265 567 1290 q 629 1199 629 1240 q 608 1142 629 1167 q 551 1104 588 1117 l 543 1042 l 489 1042 l 481 1129 m 513 -17 q 280 38 379 -17 q 125 205 181 93 q 69 481 69 317 q 125 757 69 644 q 280 926 181 869 q 513 982 379 982 q 744 926 644 982 q 899 757 844 869 q 954 481 954 644 q 835 110 954 236 q 513 -17 715 -17 m 511 58 q 756 169 671 58 q 842 481 842 279 q 756 795 842 683 q 511 907 671 907 q 267 795 353 907 q 182 481 182 683 q 267 169 182 279 q 511 58 353 58 z "},"Ơ":{"ha":1063,"x_min":69,"x_max":1008,"o":"m 513 -17 q 280 38 379 -17 q 125 205 181 93 q 69 481 69 317 q 125 757 69 644 q 280 926 181 869 q 513 982 379 982 q 674 956 599 982 q 804 882 749 931 q 897 1063 897 932 l 1008 1063 q 860 825 1008 910 q 954 481 954 696 q 835 110 954 236 q 513 -17 715 -17 m 511 58 q 756 169 671 58 q 842 481 842 279 q 756 795 842 683 q 511 907 671 907 q 267 795 353 907 q 182 481 182 683 q 267 169 182 279 q 511 58 353 58 z "},"Ớ":{"ha":1063,"x_min":69,"x_max":1008,"o":"m 410 1083 l 531 1286 l 614 1232 l 472 1043 l 410 1083 m 513 -17 q 280 38 379 -17 q 125 205 181 93 q 69 481 69 317 q 125 757 69 644 q 280 926 181 869 q 513 982 379 982 q 674 956 599 982 q 804 882 749 931 q 897 1063 897 932 l 1008 1063 q 860 825 1008 910 q 954 481 954 696 q 835 110 954 236 q 513 -17 715 -17 m 511 58 q 756 169 671 58 q 842 481 842 279 q 756 795 842 683 q 511 907 671 907 q 267 795 353 907 q 182 481 182 683 q 267 169 182 279 q 511 58 353 58 z "},"Ợ":{"ha":1063,"x_min":69,"x_max":1008,"o":"m 513 -17 q 280 38 379 -17 q 125 205 181 93 q 69 481 69 317 q 125 757 69 644 q 280 926 181 869 q 513 982 379 982 q 674 956 599 982 q 804 882 749 931 q 897 1063 897 932 l 1008 1063 q 860 825 1008 910 q 954 481 954 696 q 835 110 954 236 q 513 -17 715 -17 m 511 58 q 756 169 671 58 q 842 481 842 279 q 756 795 842 683 q 511 907 671 907 q 267 795 353 907 q 182 481 182 683 q 267 169 182 279 q 511 58 353 58 m 515 -228 q 467 -208 488 -228 q 447 -160 447 -189 q 467 -110 447 -131 q 515 -90 488 -90 q 564 -110 544 -90 q 583 -160 583 -131 q 563 -208 583 -189 q 515 -228 543 -228 z "},"Ờ":{"ha":1063,"x_min":69,"x_max":1008,"o":"m 396 1233 l 479 1288 l 600 1085 l 538 1044 l 396 1233 m 513 -17 q 280 38 379 -17 q 125 205 181 93 q 69 481 69 317 q 125 757 69 644 q 280 926 181 869 q 513 982 379 982 q 674 956 599 982 q 804 882 749 931 q 897 1063 897 932 l 1008 1063 q 860 825 1008 910 q 954 481 954 696 q 835 110 954 236 q 513 -17 715 -17 m 511 58 q 756 169 671 58 q 842 481 842 279 q 756 795 842 683 q 511 907 671 907 q 267 795 353 907 q 182 481 182 683 q 267 169 182 279 q 511 58 353 58 z "},"Ở":{"ha":1063,"x_min":69,"x_max":1008,"o":"m 475 1129 q 547 1197 547 1154 q 501 1238 547 1238 q 436 1226 475 1238 l 426 1272 q 513 1290 471 1290 q 592 1265 561 1290 q 624 1199 624 1240 q 603 1142 624 1167 q 546 1104 582 1117 l 538 1042 l 483 1042 l 475 1129 m 513 -17 q 280 38 379 -17 q 125 205 181 93 q 69 481 69 317 q 125 757 69 644 q 280 926 181 869 q 513 982 379 982 q 674 956 599 982 q 804 882 749 931 q 897 1063 897 932 l 1008 1063 q 860 825 1008 910 q 954 481 954 696 q 835 110 954 236 q 513 -17 715 -17 m 511 58 q 756 169 671 58 q 842 481 842 279 q 756 795 842 683 q 511 907 671 907 q 267 795 353 907 q 182 481 182 683 q 267 169 182 279 q 511 58 353 58 z "},"Ỡ":{"ha":1063,"x_min":69,"x_max":1008,"o":"m 592 1058 q 553 1065 571 1058 q 508 1083 535 1071 q 467 1101 485 1094 q 432 1107 450 1107 q 387 1098 408 1107 q 340 1071 365 1089 l 301 1122 q 367 1168 332 1150 q 433 1186 403 1186 q 470 1180 451 1186 q 517 1161 489 1174 q 590 1138 564 1138 q 681 1174 633 1138 l 719 1121 q 656 1076 690 1093 q 592 1058 622 1058 m 513 -17 q 280 38 379 -17 q 125 205 181 93 q 69 481 69 317 q 125 757 69 644 q 280 926 181 869 q 513 982 379 982 q 674 956 599 982 q 804 882 749 931 q 897 1063 897 932 l 1008 1063 q 860 825 1008 910 q 954 481 954 696 q 835 110 954 236 q 513 -17 715 -17 m 511 58 q 756 169 671 58 q 842 481 842 279 q 756 795 842 683 q 511 907 671 907 q 267 795 353 907 q 182 481 182 683 q 267 169 182 279 q 511 58 353 58 z "},"Ő":{"ha":1024,"x_min":69,"x_max":954,"o":"m 347 1089 l 503 1331 l 574 1288 l 396 1056 l 347 1089 m 592 1089 l 747 1331 l 818 1288 l 640 1056 l 592 1089 m 513 -17 q 280 38 379 -17 q 125 205 181 93 q 69 481 69 317 q 125 757 69 644 q 280 926 181 869 q 513 982 379 982 q 744 926 644 982 q 899 757 844 869 q 954 481 954 644 q 835 110 954 236 q 513 -17 715 -17 m 511 58 q 756 169 671 58 q 842 481 842 279 q 756 795 842 683 q 511 907 671 907 q 267 795 353 907 q 182 481 182 683 q 267 169 182 279 q 511 58 353 58 z "},"Ō":{"ha":1024,"x_min":69,"x_max":954,"o":"m 315 1157 l 707 1157 l 707 1081 l 315 1081 l 315 1157 m 513 -17 q 280 38 379 -17 q 125 205 181 93 q 69 481 69 317 q 125 757 69 644 q 280 926 181 869 q 513 982 379 982 q 744 926 644 982 q 899 757 844 869 q 954 481 954 644 q 835 110 954 236 q 513 -17 715 -17 m 511 58 q 756 169 671 58 q 842 481 842 279 q 756 795 842 683 q 511 907 671 907 q 267 795 353 907 q 182 481 182 683 q 267 169 182 279 q 511 58 353 58 z "},"Ø":{"ha":1039,"x_min":76,"x_max":961,"o":"m 122 -79 l 225 82 q 115 244 153 144 q 76 481 76 344 q 132 757 76 644 q 287 926 188 869 q 519 982 386 982 q 764 918 663 982 l 842 1039 l 911 1000 l 826 869 q 961 481 961 738 q 842 110 961 236 q 519 -17 722 -17 q 290 36 389 -17 l 192 -118 l 122 -79 m 715 843 q 518 907 636 907 q 274 795 360 907 q 189 481 189 683 q 278 164 189 274 l 715 843 m 518 58 q 763 169 678 58 q 849 481 849 279 q 772 783 849 674 l 338 108 q 518 58 411 58 z "},"Ǿ":{"ha":1039,"x_min":76,"x_max":961,"o":"m 428 1083 l 549 1286 l 632 1232 l 490 1043 l 428 1083 m 122 -79 l 225 82 q 115 244 153 144 q 76 481 76 344 q 132 757 76 644 q 287 926 188 869 q 519 982 386 982 q 764 918 663 982 l 842 1039 l 911 1000 l 826 869 q 961 481 961 738 q 842 110 961 236 q 519 -17 722 -17 q 290 36 389 -17 l 192 -118 l 122 -79 m 715 843 q 518 907 636 907 q 274 795 360 907 q 189 481 189 683 q 278 164 189 274 l 715 843 m 518 58 q 763 169 678 58 q 849 481 849 279 q 772 783 849 674 l 338 108 q 518 58 411 58 z "},"Õ":{"ha":1024,"x_min":69,"x_max":954,"o":"m 593 1058 q 554 1065 572 1058 q 510 1083 536 1071 q 469 1101 486 1094 q 433 1107 451 1107 q 388 1098 410 1107 q 342 1071 367 1089 l 303 1122 q 369 1168 333 1150 q 435 1186 404 1186 q 472 1180 453 1186 q 518 1161 490 1174 q 592 1138 565 1138 q 682 1174 635 1138 l 721 1121 q 658 1076 692 1093 q 593 1058 624 1058 m 513 -17 q 280 38 379 -17 q 125 205 181 93 q 69 481 69 317 q 125 757 69 644 q 280 926 181 869 q 513 982 379 982 q 744 926 644 982 q 899 757 844 869 q 954 481 954 644 q 835 110 954 236 q 513 -17 715 -17 m 511 58 q 756 169 671 58 q 842 481 842 279 q 756 795 842 683 q 511 907 671 907 q 267 795 353 907 q 182 481 182 683 q 267 169 182 279 q 511 58 353 58 z "},"Œ":{"ha":1471,"x_min":69,"x_max":1375,"o":"m 568 -17 q 311 38 424 -17 q 134 204 199 92 q 69 483 69 317 q 130 756 69 643 q 295 925 190 868 q 532 982 400 982 q 674 965 603 982 l 1356 965 l 1356 789 q 1336 769 1356 769 q 1312 783 1321 769 q 1297 826 1303 796 l 1285 892 l 817 892 l 817 531 l 1208 531 l 1225 593 q 1239 623 1232 614 q 1256 632 1246 632 q 1275 614 1275 632 l 1275 375 q 1256 356 1275 356 q 1239 365 1246 356 q 1225 394 1232 374 l 1208 457 l 817 457 l 817 74 l 1303 74 l 1315 144 q 1354 201 1325 201 q 1375 181 1375 201 l 1375 0 l 739 0 q 568 -17 649 -17 m 560 60 q 706 74 647 60 l 706 889 q 560 906 636 906 q 284 797 386 906 q 182 483 182 689 q 230 254 182 350 q 363 109 278 158 q 560 60 449 60 z "},"P":{"ha":857,"x_min":81,"x_max":818,"o":"m 107 0 q 83 29 83 0 q 97 58 83 47 q 135 68 111 68 l 179 68 l 179 890 l 133 899 q 93 914 106 904 q 81 942 81 924 q 86 959 81 953 q 100 965 92 965 l 507 965 q 733 892 647 965 q 818 683 818 818 q 733 476 818 549 q 507 403 647 403 l 290 403 l 290 69 l 360 53 q 393 40 383 47 q 403 18 403 32 q 386 0 403 0 l 107 0 m 500 478 q 651 534 597 478 q 704 683 704 590 q 651 834 704 778 q 500 890 597 890 l 290 890 l 290 478 l 500 478 z "},"Þ":{"ha":915,"x_min":81,"x_max":840,"o":"m 104 0 q 81 29 81 0 q 94 58 81 47 q 132 68 108 68 l 175 68 l 175 897 l 104 897 q 81 926 81 897 q 94 955 81 944 q 131 965 107 965 l 378 965 q 394 947 394 965 q 385 926 394 933 q 356 913 376 918 l 286 896 l 286 769 q 475 797 375 797 q 740 718 639 797 q 840 489 840 639 q 740 260 840 339 q 475 181 639 181 q 286 208 375 181 l 286 69 l 356 53 q 385 40 376 47 q 394 18 394 32 q 378 0 394 0 l 104 0 m 475 256 q 660 315 592 256 q 728 489 728 374 q 660 664 728 604 q 475 724 592 724 q 286 693 383 724 l 286 286 q 475 256 383 256 z "},"Q":{"ha":1024,"x_min":69,"x_max":954,"o":"m 760 -218 q 670 -192 718 -218 q 576 -128 622 -167 q 468 -15 517 -75 q 176 124 283 -1 q 69 481 69 250 q 125 757 69 644 q 280 926 181 869 q 513 982 379 982 q 744 926 644 982 q 899 757 844 869 q 954 481 954 644 q 849 126 954 251 q 560 -15 743 0 q 636 -69 590 -40 q 763 -128 694 -107 q 801 -145 790 -136 q 813 -172 813 -154 q 760 -218 813 -218 m 511 58 q 756 169 671 58 q 842 481 842 279 q 756 795 842 683 q 511 907 671 907 q 267 795 353 907 q 182 481 182 683 q 267 169 182 279 q 511 58 353 58 z "},"R":{"ha":928,"x_min":81,"x_max":900,"o":"m 107 0 q 83 29 83 0 q 97 58 83 47 q 135 68 111 68 l 179 68 l 179 894 l 133 901 q 93 918 106 910 q 81 942 81 926 q 86 959 81 953 q 100 965 92 965 l 500 965 q 726 901 643 965 q 810 707 810 838 q 726 515 810 578 q 500 453 643 453 l 425 453 l 792 67 l 861 53 q 900 18 900 44 q 885 0 900 0 l 701 0 l 290 450 l 290 69 l 358 53 q 388 40 379 47 q 397 18 397 32 q 381 0 397 0 l 107 0 m 494 522 q 644 570 593 522 q 696 707 696 618 q 644 844 696 796 q 494 893 593 893 l 290 893 l 290 522 l 494 522 z "},"Ŕ":{"ha":928,"x_min":81,"x_max":900,"o":"m 367 1085 l 488 1288 l 571 1233 l 429 1044 l 367 1085 m 107 0 q 83 29 83 0 q 97 58 83 47 q 135 68 111 68 l 179 68 l 179 894 l 133 901 q 93 918 106 910 q 81 942 81 926 q 86 959 81 953 q 100 965 92 965 l 500 965 q 726 901 643 965 q 810 707 810 838 q 726 515 810 578 q 500 453 643 453 l 425 453 l 792 67 l 861 53 q 900 18 900 44 q 885 0 900 0 l 701 0 l 290 450 l 290 69 l 358 53 q 388 40 379 47 q 397 18 397 32 q 381 0 397 0 l 107 0 m 494 522 q 644 570 593 522 q 696 707 696 618 q 644 844 696 796 q 494 893 593 893 l 290 893 l 290 522 l 494 522 z "},"Ř":{"ha":928,"x_min":81,"x_max":900,"o":"m 253 1232 l 304 1274 l 431 1136 l 557 1274 l 608 1232 l 460 1043 l 401 1043 l 253 1232 m 107 0 q 83 29 83 0 q 97 58 83 47 q 135 68 111 68 l 179 68 l 179 894 l 133 901 q 93 918 106 910 q 81 942 81 926 q 86 959 81 953 q 100 965 92 965 l 500 965 q 726 901 643 965 q 810 707 810 838 q 726 515 810 578 q 500 453 643 453 l 425 453 l 792 67 l 861 53 q 900 18 900 44 q 885 0 900 0 l 701 0 l 290 450 l 290 69 l 358 53 q 388 40 379 47 q 397 18 397 32 q 381 0 397 0 l 107 0 m 494 522 q 644 570 593 522 q 696 707 696 618 q 644 844 696 796 q 494 893 593 893 l 290 893 l 290 522 l 494 522 z "},"Ŗ":{"ha":928,"x_min":81,"x_max":900,"o":"m 107 0 q 83 29 83 0 q 97 58 83 47 q 135 68 111 68 l 179 68 l 179 894 l 133 901 q 93 918 106 910 q 81 942 81 926 q 86 959 81 953 q 100 965 92 965 l 500 965 q 726 901 643 965 q 810 707 810 838 q 726 515 810 578 q 500 453 643 453 l 425 453 l 792 67 l 861 53 q 900 18 900 44 q 885 0 900 0 l 701 0 l 290 450 l 290 69 l 358 53 q 388 40 379 47 q 397 18 397 32 q 381 0 397 0 l 107 0 m 494 522 q 644 570 593 522 q 696 707 696 618 q 644 844 696 796 q 494 893 593 893 l 290 893 l 290 522 l 494 522 m 386 -300 q 434 -212 413 -261 q 460 -131 456 -162 l 419 -117 q 403 -96 403 -112 q 412 -71 403 -79 q 438 -62 421 -62 q 453 -64 447 -62 l 557 -89 q 508 -217 540 -151 q 435 -331 476 -282 l 386 -300 z "},"Ṛ":{"ha":928,"x_min":81,"x_max":900,"o":"m 107 0 q 83 29 83 0 q 97 58 83 47 q 135 68 111 68 l 179 68 l 179 894 l 133 901 q 93 918 106 910 q 81 942 81 926 q 86 959 81 953 q 100 965 92 965 l 500 965 q 726 901 643 965 q 810 707 810 838 q 726 515 810 578 q 500 453 643 453 l 425 453 l 792 67 l 861 53 q 900 18 900 44 q 885 0 900 0 l 701 0 l 290 450 l 290 69 l 358 53 q 388 40 379 47 q 397 18 397 32 q 381 0 397 0 l 107 0 m 494 522 q 644 570 593 522 q 696 707 696 618 q 644 844 696 796 q 494 893 593 893 l 290 893 l 290 522 l 494 522 m 472 -228 q 424 -208 444 -228 q 404 -160 404 -189 q 424 -110 404 -131 q 472 -90 444 -90 q 521 -110 501 -90 q 540 -160 540 -131 q 520 -208 540 -189 q 472 -228 500 -228 z "},"Ṝ":{"ha":928,"x_min":81,"x_max":900,"o":"m 253 1157 l 644 1157 l 644 1081 l 253 1081 l 253 1157 m 107 0 q 83 29 83 0 q 97 58 83 47 q 135 68 111 68 l 179 68 l 179 894 l 133 901 q 93 918 106 910 q 81 942 81 926 q 86 959 81 953 q 100 965 92 965 l 500 965 q 726 901 643 965 q 810 707 810 838 q 726 515 810 578 q 500 453 643 453 l 425 453 l 792 67 l 861 53 q 900 18 900 44 q 885 0 900 0 l 701 0 l 290 450 l 290 69 l 358 53 q 388 40 379 47 q 397 18 397 32 q 381 0 397 0 l 107 0 m 494 522 q 644 570 593 522 q 696 707 696 618 q 644 844 696 796 q 494 893 593 893 l 290 893 l 290 522 l 494 522 m 472 -228 q 424 -208 444 -228 q 404 -160 404 -189 q 424 -110 404 -131 q 472 -90 444 -90 q 521 -110 501 -90 q 540 -160 540 -131 q 520 -208 540 -189 q 472 -228 500 -228 z "},"Ṟ":{"ha":928,"x_min":81,"x_max":900,"o":"m 107 0 q 83 29 83 0 q 97 58 83 47 q 135 68 111 68 l 179 68 l 179 894 l 133 901 q 93 918 106 910 q 81 942 81 926 q 86 959 81 953 q 100 965 92 965 l 500 965 q 726 901 643 965 q 810 707 810 838 q 726 515 810 578 q 500 453 643 453 l 425 453 l 792 67 l 861 53 q 900 18 900 44 q 885 0 900 0 l 701 0 l 290 450 l 290 69 l 358 53 q 388 40 379 47 q 397 18 397 32 q 381 0 397 0 l 107 0 m 494 522 q 644 570 593 522 q 696 707 696 618 q 644 844 696 796 q 494 893 593 893 l 290 893 l 290 522 l 494 522 m 224 -122 l 749 -122 l 749 -196 l 224 -196 l 224 -122 z "},"S":{"ha":826,"x_min":72,"x_max":754,"o":"m 406 -17 q 224 8 321 -17 q 72 76 128 33 l 72 247 q 78 262 72 256 q 93 268 83 268 q 120 256 110 268 q 136 211 131 243 l 154 122 q 264 76 196 92 q 397 60 332 60 q 571 98 500 60 q 642 221 642 136 q 615 312 642 275 q 532 379 588 349 q 369 453 476 410 q 151 576 225 511 q 76 742 76 640 q 169 922 76 863 q 396 982 263 982 q 567 956 483 982 q 706 883 651 929 l 706 719 q 685 699 706 699 q 658 710 668 699 q 642 756 649 722 l 624 843 q 527 890 585 874 q 403 906 469 906 q 249 869 310 906 q 189 756 189 832 q 220 667 189 703 q 304 604 251 631 q 469 529 357 578 q 628 451 568 489 q 722 359 689 413 q 754 231 754 306 q 656 44 754 106 q 406 -17 558 -17 z "},"Ś":{"ha":826,"x_min":72,"x_max":754,"o":"m 307 1083 l 428 1286 l 511 1232 l 369 1043 l 307 1083 m 406 -17 q 224 8 321 -17 q 72 76 128 33 l 72 247 q 78 262 72 256 q 93 268 83 268 q 120 256 110 268 q 136 211 131 243 l 154 122 q 264 76 196 92 q 397 60 332 60 q 571 98 500 60 q 642 221 642 136 q 615 312 642 275 q 532 379 588 349 q 369 453 476 410 q 151 576 225 511 q 76 742 76 640 q 169 922 76 863 q 396 982 263 982 q 567 956 483 982 q 706 883 651 929 l 706 719 q 685 699 706 699 q 658 712 668 699 q 642 756 647 725 l 624 843 q 527 890 585 874 q 403 906 469 906 q 249 869 310 906 q 189 756 189 832 q 220 667 189 703 q 304 604 251 631 q 469 529 357 578 q 628 451 568 489 q 722 359 689 413 q 754 231 754 306 q 656 44 754 106 q 406 -17 558 -17 z "},"Š":{"ha":826,"x_min":72,"x_max":754,"o":"m 221 1232 l 272 1274 l 399 1136 l 525 1274 l 576 1232 l 428 1043 l 369 1043 l 221 1232 m 406 -17 q 224 8 321 -17 q 72 76 128 33 l 72 247 q 78 262 72 256 q 93 268 83 268 q 120 256 110 268 q 136 211 131 243 l 154 122 q 264 76 196 92 q 397 60 332 60 q 571 98 500 60 q 642 221 642 136 q 615 312 642 275 q 532 379 588 349 q 369 453 476 410 q 151 576 225 511 q 76 742 76 640 q 169 922 76 863 q 396 982 263 982 q 567 956 483 982 q 706 883 651 929 l 706 719 q 685 699 706 699 q 658 710 668 699 q 642 756 649 722 l 624 843 q 527 890 585 874 q 403 906 469 906 q 249 869 310 906 q 189 756 189 832 q 220 667 189 703 q 304 604 251 631 q 469 529 357 578 q 628 451 568 489 q 722 359 689 413 q 754 231 754 306 q 656 44 754 106 q 406 -17 558 -17 z "},"Ş":{"ha":826,"x_min":72,"x_max":754,"o":"m 310 -254 q 381 -215 357 -239 q 404 -160 404 -190 q 390 -114 404 -132 q 342 -86 375 -96 l 367 -15 q 203 14 285 -10 q 72 76 121 38 l 72 247 q 78 262 72 256 q 93 268 83 268 q 120 256 110 268 q 136 211 131 243 l 154 122 q 264 76 196 92 q 397 60 332 60 q 571 98 500 60 q 642 221 642 136 q 615 312 642 275 q 532 379 588 349 q 369 453 476 410 q 151 576 225 511 q 76 742 76 640 q 169 922 76 863 q 396 982 263 982 q 567 956 483 982 q 706 883 651 929 l 706 719 q 685 699 706 699 q 658 710 668 699 q 642 756 649 722 l 624 843 q 527 890 585 874 q 403 906 469 906 q 249 869 310 906 q 189 756 189 832 q 220 667 189 703 q 304 604 251 631 q 469 529 357 578 q 628 451 568 489 q 722 359 689 413 q 754 231 754 306 q 667 51 754 113 q 440 -15 579 -10 l 415 -69 q 483 -162 483 -99 q 437 -245 483 -208 q 326 -296 390 -282 l 310 -254 z "},"Ŝ":{"ha":826,"x_min":72,"x_max":754,"o":"m 214 1085 l 363 1274 l 421 1274 l 569 1085 l 518 1043 l 392 1181 l 265 1043 l 214 1085 m 406 -17 q 224 8 321 -17 q 72 76 128 33 l 72 247 q 78 262 72 256 q 93 268 83 268 q 120 256 110 268 q 136 211 131 243 l 154 122 q 264 76 196 92 q 397 60 332 60 q 571 98 500 60 q 642 221 642 136 q 615 312 642 275 q 532 379 588 349 q 369 453 476 410 q 151 576 225 511 q 76 742 76 640 q 169 922 76 863 q 396 982 263 982 q 567 956 483 982 q 706 883 651 929 l 706 719 q 685 699 706 699 q 658 710 668 699 q 642 756 649 722 l 624 843 q 527 890 585 874 q 403 906 469 906 q 249 869 310 906 q 189 756 189 832 q 220 667 189 703 q 304 604 251 631 q 469 529 357 578 q 628 451 568 489 q 722 359 689 413 q 754 231 754 306 q 656 44 754 106 q 406 -17 558 -17 z "},"Ș":{"ha":826,"x_min":72,"x_max":754,"o":"m 406 -17 q 224 8 321 -17 q 72 76 128 33 l 72 247 q 78 262 72 256 q 93 268 83 268 q 120 256 110 268 q 136 211 131 243 l 154 122 q 264 76 196 92 q 397 60 332 60 q 571 98 500 60 q 642 221 642 136 q 615 312 642 275 q 532 379 588 349 q 369 453 476 410 q 151 576 225 511 q 76 742 76 640 q 169 922 76 863 q 396 982 263 982 q 567 956 483 982 q 706 883 651 929 l 706 719 q 685 699 706 699 q 658 710 668 699 q 642 756 649 722 l 624 843 q 527 890 585 874 q 403 906 469 906 q 249 869 310 906 q 189 756 189 832 q 220 667 189 703 q 304 604 251 631 q 469 529 357 578 q 628 451 568 489 q 722 359 689 413 q 754 231 754 306 q 656 44 754 106 q 406 -17 558 -17 m 324 -300 q 372 -212 350 -261 q 397 -131 393 -162 l 357 -117 q 340 -96 340 -112 q 349 -71 340 -79 q 375 -62 358 -62 q 390 -64 385 -62 l 494 -89 q 446 -217 478 -151 q 372 -331 414 -282 l 324 -300 z "},"Ṡ":{"ha":826,"x_min":72,"x_max":754,"o":"m 399 1067 q 351 1086 371 1067 q 331 1135 331 1106 q 351 1183 331 1164 q 399 1203 371 1203 q 447 1183 426 1203 q 467 1135 467 1164 q 447 1086 467 1106 q 399 1067 426 1067 m 406 -17 q 224 8 321 -17 q 72 76 128 33 l 72 247 q 78 262 72 256 q 93 268 83 268 q 120 256 110 268 q 136 211 131 243 l 154 122 q 264 76 196 92 q 397 60 332 60 q 571 98 500 60 q 642 221 642 136 q 615 312 642 275 q 532 379 588 349 q 369 453 476 410 q 151 576 225 511 q 76 742 76 640 q 169 922 76 863 q 396 982 263 982 q 567 956 483 982 q 706 883 651 929 l 706 719 q 685 699 706 699 q 658 710 668 699 q 642 756 649 722 l 624 843 q 527 890 585 874 q 403 906 469 906 q 249 869 310 906 q 189 756 189 832 q 220 667 189 703 q 304 604 251 631 q 469 529 357 578 q 628 451 568 489 q 722 359 689 413 q 754 231 754 306 q 656 44 754 106 q 406 -17 558 -17 z "},"Ṣ":{"ha":826,"x_min":72,"x_max":754,"o":"m 406 -17 q 224 8 321 -17 q 72 76 128 33 l 72 247 q 78 262 72 256 q 93 268 83 268 q 120 256 110 268 q 136 211 131 243 l 154 122 q 264 76 196 92 q 397 60 332 60 q 571 98 500 60 q 642 221 642 136 q 615 312 642 275 q 532 379 588 349 q 369 453 476 410 q 151 576 225 511 q 76 742 76 640 q 169 922 76 863 q 396 982 263 982 q 567 956 483 982 q 706 883 651 929 l 706 719 q 685 699 706 699 q 658 710 668 699 q 642 756 649 722 l 624 843 q 527 890 585 874 q 403 906 469 906 q 249 869 310 906 q 189 756 189 832 q 220 667 189 703 q 304 604 251 631 q 469 529 357 578 q 628 451 568 489 q 722 359 689 413 q 754 231 754 306 q 656 44 754 106 q 406 -17 558 -17 m 408 -228 q 360 -208 381 -228 q 340 -160 340 -189 q 360 -110 340 -131 q 408 -90 381 -90 q 457 -110 438 -90 q 476 -160 476 -131 q 456 -208 476 -189 q 408 -228 436 -228 z "},"ẞ":{"ha":919,"x_min":71,"x_max":843,"o":"m 588 -17 q 474 -3 528 -17 q 382 35 419 10 l 382 165 q 388 179 382 174 q 403 185 393 185 q 426 175 418 185 q 438 144 433 165 l 449 83 q 568 57 501 57 q 690 108 643 57 q 736 242 736 160 q 692 381 736 328 q 557 435 649 435 l 472 435 l 472 521 l 636 742 q 583 830 636 794 q 457 865 529 865 q 272 661 272 865 l 272 0 l 93 0 q 71 28 71 0 q 84 56 71 47 q 119 65 97 65 l 165 65 l 165 664 q 244 867 165 794 q 454 940 322 940 q 642 884 564 940 q 732 736 719 828 l 560 507 l 578 507 q 777 434 711 507 q 843 243 843 361 q 813 110 843 169 q 724 17 782 51 q 588 -17 667 -17 z "},"Ə":{"ha":986,"x_min":69,"x_max":917,"o":"m 476 -17 q 261 32 353 -17 q 119 169 169 81 q 69 376 69 258 q 77 440 69 404 q 96 499 85 475 l 803 499 q 758 720 800 628 q 642 860 715 813 q 476 907 569 907 q 211 828 343 907 q 185 815 197 819 q 167 810 174 810 q 142 819 153 810 q 131 847 131 829 q 144 876 131 864 q 192 908 158 889 q 479 982 326 982 q 708 922 608 982 q 862 750 807 863 q 917 485 917 638 q 863 217 917 331 q 709 44 808 104 q 476 -17 610 -17 m 476 58 q 704 155 619 58 q 801 424 789 251 l 189 424 q 181 368 181 403 q 263 140 181 221 q 476 58 344 58 z "},"T":{"ha":828,"x_min":46,"x_max":783,"o":"m 288 0 q 264 29 264 0 q 278 58 264 47 q 315 68 292 68 l 358 68 l 358 890 l 121 890 l 107 817 q 93 778 101 790 q 69 765 85 765 q 46 786 46 765 l 46 965 l 783 965 l 783 786 q 760 765 783 765 q 736 778 744 765 q 722 817 728 790 l 708 890 l 469 890 l 469 69 l 539 53 q 569 40 560 47 q 578 18 578 32 q 561 0 578 0 l 288 0 z "},"Ŧ":{"ha":836,"x_min":50,"x_max":788,"o":"m 292 0 q 268 29 268 0 q 282 58 268 47 q 319 68 296 68 l 363 68 l 363 465 l 157 465 l 157 542 l 363 542 l 363 890 l 125 890 l 111 814 q 97 775 106 788 q 74 763 89 763 q 50 785 50 763 l 50 965 l 788 965 l 788 785 q 781 768 788 774 q 764 763 774 763 q 740 775 749 763 q 726 814 732 788 l 713 890 l 474 890 l 474 542 l 682 542 l 682 465 l 474 465 l 474 69 l 543 53 q 573 40 564 47 q 582 18 582 32 q 565 0 582 0 l 292 0 z "},"Ť":{"ha":828,"x_min":46,"x_max":783,"o":"m 236 1232 l 288 1274 l 414 1136 l 540 1274 l 592 1232 l 443 1043 l 385 1043 l 236 1232 m 288 0 q 264 29 264 0 q 278 58 264 47 q 315 68 292 68 l 358 68 l 358 890 l 121 890 l 107 817 q 93 778 101 790 q 69 765 85 765 q 46 786 46 765 l 46 965 l 783 965 l 783 786 q 760 765 783 765 q 736 778 744 765 q 722 817 728 790 l 708 890 l 469 890 l 469 69 l 539 53 q 569 40 560 47 q 578 18 578 32 q 561 0 578 0 l 288 0 z "},"Ţ":{"ha":828,"x_min":46,"x_max":783,"o":"m 333 -249 q 404 -209 381 -233 q 428 -154 428 -185 q 413 -108 428 -126 q 365 -81 399 -90 l 394 0 l 288 0 q 264 29 264 0 q 278 58 264 47 q 315 68 292 68 l 358 68 l 358 890 l 121 890 l 107 814 q 93 775 101 788 q 69 763 85 763 q 46 785 46 763 l 46 965 l 783 965 l 783 785 q 776 768 783 774 q 760 763 769 763 q 736 775 744 763 q 722 814 728 788 l 708 890 l 469 890 l 469 69 l 539 53 q 569 40 560 47 q 578 18 578 32 q 561 0 578 0 l 468 0 l 439 -64 q 507 -157 507 -90 q 461 -239 507 -203 q 350 -290 415 -275 l 333 -249 z "},"Ț":{"ha":828,"x_min":46,"x_max":783,"o":"m 288 0 q 264 29 264 0 q 278 58 264 47 q 315 68 292 68 l 358 68 l 358 890 l 121 890 l 107 817 q 93 778 101 790 q 69 765 85 765 q 46 786 46 765 l 46 965 l 783 965 l 783 786 q 760 765 783 765 q 736 778 744 765 q 722 817 728 790 l 708 890 l 469 890 l 469 69 l 539 53 q 569 40 560 47 q 578 18 578 32 q 561 0 578 0 l 288 0 m 318 -300 q 366 -212 344 -261 q 392 -131 388 -162 l 351 -117 q 335 -96 335 -112 q 344 -71 335 -79 q 369 -62 353 -62 q 385 -64 379 -62 l 489 -89 q 440 -217 472 -151 q 367 -331 408 -282 l 318 -300 z "},"Ṭ":{"ha":828,"x_min":46,"x_max":783,"o":"m 288 0 q 264 29 264 0 q 278 58 264 47 q 315 68 292 68 l 358 68 l 358 890 l 121 890 l 107 817 q 93 778 101 790 q 69 765 85 765 q 46 786 46 765 l 46 965 l 783 965 l 783 786 q 760 765 783 765 q 736 778 744 765 q 722 817 728 790 l 708 890 l 469 890 l 469 69 l 539 53 q 569 40 560 47 q 578 18 578 32 q 561 0 578 0 l 288 0 m 414 -228 q 366 -208 386 -228 q 346 -160 346 -189 q 366 -110 346 -131 q 414 -90 386 -90 q 463 -110 443 -90 q 482 -160 482 -131 q 462 -208 482 -189 q 414 -228 442 -228 z "},"Ṯ":{"ha":828,"x_min":46,"x_max":783,"o":"m 288 0 q 264 29 264 0 q 278 58 264 47 q 315 68 292 68 l 358 68 l 358 890 l 121 890 l 107 817 q 93 778 101 790 q 69 765 85 765 q 46 786 46 765 l 46 965 l 783 965 l 783 786 q 760 765 783 765 q 736 778 744 765 q 722 817 728 790 l 708 890 l 469 890 l 469 69 l 539 53 q 569 40 560 47 q 578 18 578 32 q 561 0 578 0 l 288 0 m 154 -122 l 679 -122 l 679 -196 l 154 -196 l 154 -122 z "},"U":{"ha":1085,"x_min":60,"x_max":1025,"o":"m 546 -17 q 259 83 364 -17 q 154 365 154 183 l 154 897 l 83 897 q 60 926 60 897 q 73 955 60 944 q 110 965 86 965 l 357 965 q 374 947 374 965 q 365 926 374 933 q 335 913 356 918 l 265 896 l 265 360 q 340 138 265 215 q 550 60 414 60 q 762 137 688 60 q 836 360 836 214 l 836 897 l 756 897 q 732 926 732 897 q 745 955 732 944 q 782 965 758 965 l 1008 965 q 1025 949 1025 965 q 989 915 1025 926 l 925 896 l 925 365 q 824 83 925 183 q 546 -17 724 -17 z "},"Ú":{"ha":1085,"x_min":60,"x_max":1025,"o":"m 453 1083 l 574 1286 l 657 1232 l 515 1043 l 453 1083 m 546 -17 q 259 83 364 -17 q 154 365 154 183 l 154 897 l 83 897 q 60 926 60 897 q 73 955 60 944 q 110 965 86 965 l 357 965 q 374 947 374 965 q 365 926 374 933 q 335 913 356 918 l 265 896 l 265 360 q 340 138 265 215 q 550 60 414 60 q 762 137 688 60 q 836 360 836 214 l 836 897 l 756 897 q 732 926 732 897 q 745 955 732 944 q 782 965 758 965 l 1008 965 q 1025 949 1025 965 q 989 915 1025 926 l 925 896 l 925 365 q 824 83 925 183 q 546 -17 724 -17 z "},"Ŭ":{"ha":1085,"x_min":60,"x_max":1025,"o":"m 551 1038 q 426 1078 481 1038 q 349 1204 372 1118 l 413 1226 q 464 1144 428 1175 q 551 1113 500 1113 q 639 1144 603 1113 q 690 1226 675 1175 l 754 1204 q 676 1078 731 1118 q 551 1038 622 1038 m 546 -17 q 259 83 364 -17 q 154 365 154 183 l 154 897 l 83 897 q 60 926 60 897 q 73 955 60 944 q 110 965 86 965 l 357 965 q 374 947 374 965 q 365 926 374 933 q 335 913 356 918 l 265 896 l 265 360 q 340 138 265 215 q 550 60 414 60 q 762 137 688 60 q 836 360 836 214 l 836 897 l 756 897 q 732 926 732 897 q 745 955 732 944 q 782 965 758 965 l 1008 965 q 1025 949 1025 965 q 989 915 1025 926 l 925 896 l 925 365 q 824 83 925 183 q 546 -17 724 -17 z "},"Ǔ":{"ha":1085,"x_min":60,"x_max":1025,"o":"m 368 1232 l 419 1274 l 546 1136 l 672 1274 l 724 1232 l 575 1043 l 517 1043 l 368 1232 m 546 -17 q 259 83 364 -17 q 154 365 154 183 l 154 897 l 83 897 q 60 926 60 897 q 73 955 60 944 q 110 965 86 965 l 357 965 q 374 947 374 965 q 365 926 374 933 q 335 913 356 918 l 265 896 l 265 360 q 340 138 265 215 q 550 60 414 60 q 762 137 688 60 q 836 360 836 214 l 836 897 l 756 897 q 732 926 732 897 q 745 955 732 944 q 782 965 758 965 l 1008 965 q 1025 949 1025 965 q 989 915 1025 926 l 925 896 l 925 365 q 824 83 925 183 q 546 -17 724 -17 z "},"Û":{"ha":1085,"x_min":60,"x_max":1025,"o":"m 369 1085 l 518 1274 l 576 1274 l 725 1085 l 674 1043 l 547 1181 l 421 1043 l 369 1085 m 546 -17 q 259 83 364 -17 q 154 365 154 183 l 154 897 l 83 897 q 60 926 60 897 q 73 955 60 944 q 110 965 86 965 l 357 965 q 374 947 374 965 q 365 926 374 933 q 335 913 356 918 l 265 896 l 265 360 q 340 138 265 215 q 550 60 414 60 q 762 137 688 60 q 836 360 836 214 l 836 897 l 756 897 q 732 926 732 897 q 745 955 732 944 q 782 965 758 965 l 1008 965 q 1025 949 1025 965 q 989 915 1025 926 l 925 896 l 925 365 q 824 83 925 183 q 546 -17 724 -17 z "},"Ü":{"ha":1085,"x_min":60,"x_max":1025,"o":"m 414 1058 q 365 1078 385 1058 q 346 1126 346 1097 q 365 1174 346 1156 q 414 1193 385 1193 q 461 1174 442 1193 q 481 1126 481 1156 q 461 1078 481 1097 q 414 1058 442 1058 m 681 1058 q 632 1078 651 1058 q 613 1126 613 1097 q 632 1174 613 1156 q 681 1193 651 1193 q 728 1174 708 1193 q 747 1126 747 1156 q 728 1078 747 1097 q 681 1058 708 1058 m 546 -17 q 259 83 364 -17 q 154 365 154 183 l 154 897 l 83 897 q 60 926 60 897 q 73 955 60 944 q 110 965 86 965 l 357 965 q 374 947 374 965 q 365 926 374 933 q 335 913 356 918 l 265 896 l 265 360 q 340 138 265 215 q 550 60 414 60 q 762 137 688 60 q 836 360 836 214 l 836 897 l 756 897 q 732 926 732 897 q 745 955 732 944 q 782 965 758 965 l 1008 965 q 1025 949 1025 965 q 989 915 1025 926 l 925 896 l 925 365 q 824 83 925 183 q 546 -17 724 -17 z "},"Ǘ":{"ha":1085,"x_min":60,"x_max":1025,"o":"m 500 1253 l 613 1443 l 690 1393 l 557 1217 l 500 1253 m 413 1058 q 364 1078 383 1058 q 344 1126 344 1097 q 364 1174 344 1156 q 413 1193 383 1193 q 460 1174 440 1193 q 479 1126 479 1156 q 460 1078 479 1097 q 413 1058 440 1058 m 678 1058 q 629 1078 649 1058 q 610 1126 610 1097 q 629 1174 610 1156 q 678 1193 649 1193 q 725 1174 706 1193 q 744 1126 744 1156 q 725 1078 744 1097 q 678 1058 706 1058 m 546 -17 q 259 83 364 -17 q 154 365 154 183 l 154 897 l 83 897 q 60 926 60 897 q 73 955 60 944 q 110 965 86 965 l 357 965 q 374 947 374 965 q 365 926 374 933 q 335 913 356 918 l 265 896 l 265 360 q 340 138 265 215 q 550 60 414 60 q 762 137 688 60 q 836 360 836 214 l 836 897 l 756 897 q 732 926 732 897 q 745 955 732 944 q 782 965 758 965 l 1008 965 q 1025 949 1025 965 q 989 915 1025 926 l 925 896 l 925 365 q 824 83 925 183 q 546 -17 724 -17 z "},"Ǚ":{"ha":1085,"x_min":60,"x_max":1025,"o":"m 371 1414 l 422 1456 l 549 1318 l 675 1456 l 726 1414 l 578 1226 l 519 1226 l 371 1414 m 415 1058 q 367 1078 386 1058 q 347 1126 347 1097 q 367 1174 347 1156 q 415 1193 386 1193 q 463 1174 443 1193 q 482 1126 482 1156 q 463 1078 482 1097 q 415 1058 443 1058 m 682 1058 q 633 1078 653 1058 q 614 1126 614 1097 q 633 1174 614 1156 q 682 1193 653 1193 q 729 1174 710 1193 q 749 1126 749 1156 q 729 1078 749 1097 q 682 1058 710 1058 m 546 -17 q 259 83 364 -17 q 154 365 154 183 l 154 897 l 83 897 q 60 926 60 897 q 73 955 60 944 q 110 965 86 965 l 357 965 q 374 947 374 965 q 365 926 374 933 q 335 913 356 918 l 265 896 l 265 360 q 340 138 265 215 q 550 60 414 60 q 762 137 688 60 q 836 360 836 214 l 836 897 l 756 897 q 732 926 732 897 q 745 955 732 944 q 782 965 758 965 l 1008 965 q 1025 949 1025 965 q 989 915 1025 926 l 925 896 l 925 365 q 824 83 925 183 q 546 -17 724 -17 z "},"Ǜ":{"ha":1085,"x_min":60,"x_max":1025,"o":"m 403 1393 l 482 1443 l 593 1253 l 536 1217 l 403 1393 m 415 1058 q 368 1078 388 1058 q 349 1126 349 1097 q 368 1174 349 1156 q 415 1193 388 1193 q 464 1174 444 1193 q 483 1126 483 1156 q 464 1078 483 1097 q 415 1058 444 1058 m 682 1058 q 635 1078 654 1058 q 615 1126 615 1097 q 635 1174 615 1156 q 682 1193 654 1193 q 731 1174 711 1193 q 750 1126 750 1156 q 731 1078 750 1097 q 682 1058 711 1058 m 546 -17 q 259 83 364 -17 q 154 365 154 183 l 154 897 l 83 897 q 60 926 60 897 q 73 955 60 944 q 110 965 86 965 l 357 965 q 374 947 374 965 q 365 926 374 933 q 335 913 356 918 l 265 896 l 265 360 q 340 138 265 215 q 550 60 414 60 q 762 137 688 60 q 836 360 836 214 l 836 897 l 756 897 q 732 926 732 897 q 745 955 732 944 q 782 965 758 965 l 1008 965 q 1025 949 1025 965 q 989 915 1025 926 l 925 896 l 925 365 q 824 83 925 183 q 546 -17 724 -17 z "},"Ǖ":{"ha":1085,"x_min":60,"x_max":1025,"o":"m 356 1347 l 747 1347 l 747 1272 l 356 1272 l 356 1347 m 418 1058 q 369 1078 389 1058 q 350 1126 350 1097 q 369 1174 350 1156 q 418 1193 389 1193 q 465 1174 446 1193 q 485 1126 485 1156 q 465 1078 485 1097 q 418 1058 446 1058 m 683 1058 q 635 1078 654 1058 q 615 1126 615 1097 q 635 1174 615 1156 q 683 1193 654 1193 q 731 1174 711 1193 q 750 1126 750 1156 q 731 1078 750 1097 q 683 1058 711 1058 m 546 -17 q 259 83 364 -17 q 154 365 154 183 l 154 897 l 83 897 q 60 926 60 897 q 73 955 60 944 q 110 965 86 965 l 357 965 q 374 947 374 965 q 365 926 374 933 q 335 913 356 918 l 265 896 l 265 360 q 340 138 265 215 q 550 60 414 60 q 762 137 688 60 q 836 360 836 214 l 836 897 l 756 897 q 732 926 732 897 q 745 955 732 944 q 782 965 758 965 l 1008 965 q 1025 949 1025 965 q 989 915 1025 926 l 925 896 l 925 365 q 824 83 925 183 q 546 -17 724 -17 z "},"Ụ":{"ha":1085,"x_min":60,"x_max":1025,"o":"m 546 -17 q 259 83 364 -17 q 154 365 154 183 l 154 897 l 83 897 q 60 926 60 897 q 73 955 60 944 q 110 965 86 965 l 357 965 q 374 947 374 965 q 365 926 374 933 q 335 913 356 918 l 265 896 l 265 360 q 340 138 265 215 q 550 60 414 60 q 762 137 688 60 q 836 360 836 214 l 836 897 l 756 897 q 732 926 732 897 q 745 955 732 944 q 782 965 758 965 l 1008 965 q 1025 949 1025 965 q 989 915 1025 926 l 925 896 l 925 365 q 824 83 925 183 q 546 -17 724 -17 m 546 -228 q 498 -208 518 -228 q 478 -160 478 -189 q 498 -110 478 -131 q 546 -90 518 -90 q 594 -110 575 -90 q 614 -160 614 -131 q 594 -208 614 -189 q 546 -228 574 -228 z "},"Ù":{"ha":1085,"x_min":60,"x_max":1025,"o":"m 429 1233 l 513 1288 l 633 1085 l 571 1044 l 429 1233 m 546 -17 q 259 83 364 -17 q 154 365 154 183 l 154 897 l 83 897 q 60 926 60 897 q 73 955 60 944 q 110 965 86 965 l 357 965 q 374 947 374 965 q 365 926 374 933 q 335 913 356 918 l 265 896 l 265 360 q 340 138 265 215 q 550 60 414 60 q 762 137 688 60 q 836 360 836 214 l 836 897 l 756 897 q 732 926 732 897 q 745 955 732 944 q 782 965 758 965 l 1008 965 q 1025 949 1025 965 q 989 915 1025 926 l 925 896 l 925 365 q 824 83 925 183 q 546 -17 724 -17 z "},"Ủ":{"ha":1085,"x_min":60,"x_max":1025,"o":"m 513 1129 q 585 1197 585 1154 q 539 1238 585 1238 q 474 1226 513 1238 l 464 1272 q 550 1290 510 1290 q 630 1265 599 1290 q 661 1199 661 1240 q 640 1142 661 1167 q 583 1104 619 1117 l 575 1042 l 521 1042 l 513 1129 m 546 -17 q 259 83 364 -17 q 154 365 154 183 l 154 897 l 83 897 q 60 926 60 897 q 73 955 60 944 q 110 965 86 965 l 357 965 q 374 947 374 965 q 365 926 374 933 q 335 913 356 918 l 265 896 l 265 360 q 340 138 265 215 q 550 60 414 60 q 762 137 688 60 q 836 360 836 214 l 836 897 l 756 897 q 732 926 732 897 q 745 955 732 944 q 782 965 758 965 l 1008 965 q 1025 949 1025 965 q 989 915 1025 926 l 925 896 l 925 365 q 824 83 925 183 q 546 -17 724 -17 z "},"Ư":{"ha":1235,"x_min":60,"x_max":1214,"o":"m 546 -17 q 259 83 364 -17 q 154 365 154 183 l 154 897 l 83 897 q 60 926 60 897 q 73 955 60 944 q 110 965 86 965 l 357 965 q 374 947 374 965 q 335 913 374 921 l 265 896 l 265 360 q 340 138 265 215 q 550 60 414 60 q 762 137 688 60 q 836 360 836 214 l 836 897 l 756 897 q 732 926 732 897 q 745 955 732 944 q 782 965 758 965 l 1008 965 q 1025 947 1025 965 q 1014 925 1025 935 q 983 911 1003 915 l 925 897 l 925 719 q 1125 1060 1125 811 l 1214 1060 q 1133 797 1214 897 q 925 640 1053 696 l 925 365 q 824 83 925 183 q 546 -17 724 -17 z "},"Ứ":{"ha":1235,"x_min":60,"x_max":1214,"o":"m 458 1083 l 579 1286 l 663 1232 l 521 1043 l 458 1083 m 546 -17 q 259 83 364 -17 q 154 365 154 183 l 154 897 l 83 897 q 60 926 60 897 q 73 955 60 944 q 110 965 86 965 l 357 965 q 374 947 374 965 q 365 926 374 933 q 335 913 356 918 l 265 896 l 265 360 q 340 138 265 215 q 550 60 414 60 q 762 137 688 60 q 836 360 836 214 l 836 897 l 756 897 q 732 926 732 897 q 745 955 732 944 q 782 965 758 965 l 1008 965 q 1025 947 1025 965 q 1014 925 1025 935 q 983 911 1003 915 l 925 897 l 925 719 q 1125 1060 1125 811 l 1214 1060 q 1133 797 1214 897 q 925 640 1053 696 l 925 365 q 824 83 925 183 q 546 -17 724 -17 z "},"Ự":{"ha":1235,"x_min":60,"x_max":1214,"o":"m 546 -17 q 259 83 364 -17 q 154 365 154 183 l 154 897 l 83 897 q 60 926 60 897 q 73 955 60 944 q 110 965 86 965 l 357 965 q 374 947 374 965 q 365 926 374 933 q 335 913 356 918 l 265 896 l 265 360 q 340 138 265 215 q 550 60 414 60 q 762 137 688 60 q 836 360 836 214 l 836 897 l 756 897 q 732 926 732 897 q 745 955 732 944 q 782 965 758 965 l 1008 965 q 1025 947 1025 965 q 1014 925 1025 935 q 983 911 1003 915 l 925 897 l 925 719 q 1125 1060 1125 811 l 1214 1060 q 1133 797 1214 897 q 925 640 1053 696 l 925 365 q 824 83 925 183 q 546 -17 724 -17 m 551 -228 q 503 -208 524 -228 q 483 -160 483 -189 q 503 -110 483 -131 q 551 -90 524 -90 q 600 -110 581 -90 q 619 -160 619 -131 q 599 -208 619 -189 q 551 -228 579 -228 z "},"Ừ":{"ha":1235,"x_min":60,"x_max":1214,"o":"m 413 1233 l 496 1288 l 617 1085 l 554 1044 l 413 1233 m 546 -17 q 259 83 364 -17 q 154 365 154 183 l 154 897 l 83 897 q 60 926 60 897 q 73 955 60 944 q 110 965 86 965 l 357 965 q 374 947 374 965 q 365 926 374 933 q 335 913 356 918 l 265 896 l 265 360 q 340 138 265 215 q 550 60 414 60 q 762 137 688 60 q 836 360 836 214 l 836 897 l 756 897 q 732 926 732 897 q 745 955 732 944 q 782 965 758 965 l 1008 965 q 1025 947 1025 965 q 1014 925 1025 935 q 983 911 1003 915 l 925 897 l 925 719 q 1125 1060 1125 811 l 1214 1060 q 1133 797 1214 897 q 925 640 1053 696 l 925 365 q 824 83 925 183 q 546 -17 724 -17 z "},"Ử":{"ha":1235,"x_min":60,"x_max":1214,"o":"m 518 1129 q 590 1197 590 1154 q 578 1227 590 1217 q 544 1238 565 1238 q 479 1226 518 1238 l 469 1272 q 556 1290 515 1290 q 635 1265 604 1290 q 667 1199 667 1240 q 646 1142 667 1167 q 589 1104 625 1117 l 581 1042 l 526 1042 l 518 1129 m 546 -17 q 259 83 364 -17 q 154 365 154 183 l 154 897 l 83 897 q 60 926 60 897 q 73 955 60 944 q 110 965 86 965 l 357 965 q 374 947 374 965 q 365 926 374 933 q 335 913 356 918 l 265 896 l 265 360 q 340 138 265 215 q 550 60 414 60 q 762 137 688 60 q 836 360 836 214 l 836 897 l 756 897 q 732 926 732 897 q 745 955 732 944 q 782 965 758 965 l 1008 965 q 1025 947 1025 965 q 1014 925 1025 935 q 983 911 1003 915 l 925 897 l 925 719 q 1125 1060 1125 811 l 1214 1060 q 1133 797 1214 897 q 925 640 1053 696 l 925 365 q 824 83 925 183 q 546 -17 724 -17 z "},"Ữ":{"ha":1235,"x_min":60,"x_max":1214,"o":"m 628 1058 q 589 1065 607 1058 q 544 1083 571 1071 q 503 1101 521 1094 q 468 1107 486 1107 q 423 1098 444 1107 q 376 1071 401 1089 l 338 1122 q 403 1168 368 1150 q 469 1186 439 1186 q 506 1180 488 1186 q 553 1161 525 1174 q 626 1138 600 1138 q 717 1174 669 1138 l 756 1121 q 692 1076 726 1093 q 628 1058 658 1058 m 546 -17 q 259 83 364 -17 q 154 365 154 183 l 154 897 l 83 897 q 60 926 60 897 q 73 955 60 944 q 110 965 86 965 l 357 965 q 374 947 374 965 q 365 926 374 933 q 335 913 356 918 l 265 896 l 265 360 q 340 138 265 215 q 550 60 414 60 q 762 137 688 60 q 836 360 836 214 l 836 897 l 756 897 q 732 926 732 897 q 745 955 732 944 q 782 965 758 965 l 1008 965 q 1025 947 1025 965 q 1014 925 1025 935 q 983 911 1003 915 l 925 897 l 925 719 q 1125 1060 1125 811 l 1214 1060 q 1133 797 1214 897 q 925 640 1053 696 l 925 365 q 824 83 925 183 q 546 -17 724 -17 z "},"Ű":{"ha":1085,"x_min":60,"x_max":1025,"o":"m 357 1089 l 513 1331 l 583 1288 l 406 1056 l 357 1089 m 601 1089 l 757 1331 l 828 1288 l 650 1056 l 601 1089 m 546 -17 q 259 83 364 -17 q 154 365 154 183 l 154 897 l 83 897 q 60 926 60 897 q 73 955 60 944 q 110 965 86 965 l 357 965 q 374 947 374 965 q 365 926 374 933 q 335 913 356 918 l 265 896 l 265 360 q 340 138 265 215 q 550 60 414 60 q 762 137 688 60 q 836 360 836 214 l 836 897 l 756 897 q 732 926 732 897 q 745 955 732 944 q 782 965 758 965 l 1008 965 q 1025 949 1025 965 q 989 915 1025 926 l 925 896 l 925 365 q 824 83 925 183 q 546 -17 724 -17 z "},"Ū":{"ha":1085,"x_min":60,"x_max":1025,"o":"m 354 1157 l 746 1157 l 746 1081 l 354 1081 l 354 1157 m 546 -17 q 259 83 364 -17 q 154 365 154 183 l 154 897 l 83 897 q 60 926 60 897 q 73 955 60 944 q 110 965 86 965 l 357 965 q 374 947 374 965 q 365 926 374 933 q 335 913 356 918 l 265 896 l 265 360 q 340 138 265 215 q 550 60 414 60 q 762 137 688 60 q 836 360 836 214 l 836 897 l 756 897 q 732 926 732 897 q 745 955 732 944 q 782 965 758 965 l 1008 965 q 1025 949 1025 965 q 989 915 1025 926 l 925 896 l 925 365 q 824 83 925 183 q 546 -17 724 -17 z "},"Ų":{"ha":1085,"x_min":60,"x_max":1025,"o":"m 614 -293 q 503 -257 546 -293 q 461 -158 461 -221 q 484 -80 461 -117 q 546 -17 507 -43 q 259 83 364 -17 q 154 365 154 183 l 154 897 l 83 897 q 60 926 60 897 q 73 955 60 944 q 110 965 86 965 l 357 965 q 374 947 374 965 q 335 913 374 921 l 265 896 l 265 360 q 340 138 265 215 q 550 60 414 60 q 762 137 688 60 q 836 360 836 214 l 836 897 l 756 897 q 732 926 732 897 q 745 955 732 944 q 782 965 758 965 l 1008 965 q 1025 949 1025 965 q 989 915 1025 926 l 925 896 l 925 365 q 850 112 925 208 q 638 -8 775 15 q 567 -71 596 -31 q 538 -154 538 -111 q 563 -216 538 -194 q 629 -237 588 -237 q 685 -228 653 -237 l 694 -275 q 614 -293 658 -293 z "},"Ů":{"ha":1085,"x_min":60,"x_max":1025,"o":"m 544 1028 q 451 1063 486 1028 q 417 1149 417 1097 q 452 1235 417 1200 q 544 1269 488 1269 q 638 1235 603 1269 q 672 1149 672 1200 q 638 1063 672 1097 q 544 1028 603 1028 m 544 1083 q 590 1101 572 1083 q 607 1149 607 1118 q 590 1196 607 1179 q 544 1213 572 1213 q 499 1196 517 1213 q 481 1149 481 1179 q 499 1101 481 1118 q 544 1083 517 1083 m 546 -17 q 259 83 364 -17 q 154 365 154 183 l 154 897 l 83 897 q 60 926 60 897 q 73 955 60 944 q 110 965 86 965 l 357 965 q 374 947 374 965 q 365 926 374 933 q 335 913 356 918 l 265 896 l 265 360 q 340 138 265 215 q 550 60 414 60 q 762 137 688 60 q 836 360 836 214 l 836 897 l 756 897 q 732 926 732 897 q 745 955 732 944 q 782 965 758 965 l 1008 965 q 1025 949 1025 965 q 989 915 1025 926 l 925 896 l 925 365 q 824 83 925 183 q 546 -17 724 -17 z "},"Ũ":{"ha":1085,"x_min":60,"x_max":1025,"o":"m 626 1058 q 588 1065 606 1058 q 543 1083 569 1071 q 502 1101 519 1094 q 467 1107 485 1107 q 422 1098 443 1107 q 375 1071 400 1089 l 336 1122 q 402 1168 367 1150 q 468 1186 438 1186 q 505 1180 486 1186 q 551 1161 524 1174 q 625 1138 599 1138 q 715 1174 668 1138 l 754 1121 q 691 1076 725 1093 q 626 1058 657 1058 m 546 -17 q 259 83 364 -17 q 154 365 154 183 l 154 897 l 83 897 q 60 926 60 897 q 73 955 60 944 q 110 965 86 965 l 357 965 q 374 947 374 965 q 365 926 374 933 q 335 913 356 918 l 265 896 l 265 360 q 340 138 265 215 q 550 60 414 60 q 762 137 688 60 q 836 360 836 214 l 836 897 l 756 897 q 732 926 732 897 q 745 955 732 944 q 782 965 758 965 l 1008 965 q 1025 949 1025 965 q 989 915 1025 926 l 925 896 l 925 365 q 824 83 925 183 q 546 -17 724 -17 z "},"V":{"ha":1000,"x_min":15,"x_max":985,"o":"m 107 897 l 39 897 q 15 926 15 897 q 28 955 15 944 q 65 965 42 965 l 325 965 q 342 947 342 965 q 300 910 342 918 l 226 896 l 481 157 q 495 107 489 133 q 503 74 501 81 l 510 74 q 517 106 511 81 q 531 157 522 132 l 793 897 l 707 897 q 690 905 696 897 q 683 926 683 913 q 697 955 683 944 q 735 965 711 965 l 969 965 q 985 947 985 965 q 951 914 985 924 l 881 896 l 561 0 l 425 0 l 107 897 z "},"W":{"ha":1508,"x_min":17,"x_max":1492,"o":"m 110 897 l 40 897 q 17 926 17 897 q 30 955 17 944 q 67 965 43 965 l 322 965 q 339 947 339 965 q 296 910 339 918 l 222 896 l 440 167 q 451 113 447 142 q 457 75 456 83 l 464 75 q 469 113 465 83 q 481 167 474 142 l 710 965 l 810 965 l 1054 167 q 1067 113 1063 142 q 1071 75 1071 83 l 1079 75 q 1085 113 1081 83 q 1096 167 1089 142 l 1300 897 l 1211 897 q 1194 905 1200 897 q 1188 926 1188 913 q 1201 955 1188 944 q 1239 965 1215 965 l 1475 965 q 1492 947 1492 965 q 1457 914 1492 924 l 1388 896 l 1131 0 l 993 0 l 772 731 q 760 792 764 757 q 754 839 756 828 l 747 839 q 741 792 746 828 q 728 731 736 757 l 518 0 l 381 0 l 110 897 z "},"Ẃ":{"ha":1508,"x_min":17,"x_max":1492,"o":"m 679 1083 l 800 1286 l 883 1232 l 742 1043 l 679 1083 m 110 897 l 40 897 q 17 926 17 897 q 30 955 17 944 q 67 965 43 965 l 322 965 q 339 947 339 965 q 296 910 339 918 l 222 896 l 440 167 q 451 113 447 142 q 457 75 456 83 l 464 75 q 469 113 465 83 q 481 167 474 142 l 710 965 l 810 965 l 1054 167 q 1067 113 1063 142 q 1071 75 1071 83 l 1079 75 q 1085 113 1081 83 q 1096 167 1089 142 l 1300 897 l 1211 897 q 1194 905 1200 897 q 1188 926 1188 913 q 1201 955 1188 944 q 1239 965 1215 965 l 1475 965 q 1492 947 1492 965 q 1457 914 1492 924 l 1388 896 l 1131 0 l 993 0 l 772 731 q 760 792 764 757 q 754 839 756 828 l 747 839 q 741 792 746 828 q 728 731 736 757 l 518 0 l 381 0 l 110 897 z "},"Ŵ":{"ha":1508,"x_min":17,"x_max":1492,"o":"m 572 1085 l 721 1274 l 779 1274 l 928 1085 l 876 1043 l 750 1181 l 624 1043 l 572 1085 m 110 897 l 40 897 q 17 926 17 897 q 30 955 17 944 q 67 965 43 965 l 322 965 q 339 947 339 965 q 296 910 339 918 l 222 896 l 440 167 q 451 113 447 142 q 457 75 456 83 l 464 75 q 469 113 465 83 q 481 167 474 142 l 710 965 l 810 965 l 1054 167 q 1067 113 1063 142 q 1071 75 1071 83 l 1079 75 q 1085 113 1081 83 q 1096 167 1089 142 l 1300 897 l 1211 897 q 1194 905 1200 897 q 1188 926 1188 913 q 1201 955 1188 944 q 1239 965 1215 965 l 1475 965 q 1492 947 1492 965 q 1457 914 1492 924 l 1388 896 l 1131 0 l 993 0 l 772 731 q 760 792 764 757 q 754 839 756 828 l 747 839 q 741 792 746 828 q 728 731 736 757 l 518 0 l 381 0 l 110 897 z "},"Ẅ":{"ha":1508,"x_min":17,"x_max":1492,"o":"m 628 1058 q 579 1078 599 1058 q 560 1126 560 1097 q 579 1174 560 1156 q 628 1193 599 1193 q 675 1174 656 1193 q 694 1126 694 1156 q 675 1078 694 1097 q 628 1058 656 1058 m 894 1058 q 846 1078 865 1058 q 826 1126 826 1097 q 846 1174 826 1156 q 894 1193 865 1193 q 942 1174 922 1193 q 961 1126 961 1156 q 942 1078 961 1097 q 894 1058 922 1058 m 110 897 l 40 897 q 17 926 17 897 q 30 955 17 944 q 67 965 43 965 l 322 965 q 339 947 339 965 q 296 910 339 918 l 222 896 l 440 167 q 451 113 447 142 q 457 75 456 83 l 464 75 q 469 113 465 83 q 481 167 474 142 l 710 965 l 810 965 l 1054 167 q 1067 113 1063 142 q 1071 75 1071 83 l 1079 75 q 1085 113 1081 83 q 1096 167 1089 142 l 1300 897 l 1211 897 q 1194 905 1200 897 q 1188 926 1188 913 q 1201 955 1188 944 q 1239 965 1215 965 l 1475 965 q 1492 947 1492 965 q 1457 914 1492 924 l 1388 896 l 1131 0 l 993 0 l 772 731 q 760 792 764 757 q 754 839 756 828 l 747 839 q 741 792 746 828 q 728 731 736 757 l 518 0 l 381 0 l 110 897 z "},"Ẁ":{"ha":1508,"x_min":17,"x_max":1492,"o":"m 626 1233 l 710 1288 l 831 1085 l 768 1044 l 626 1233 m 110 897 l 40 897 q 17 926 17 897 q 30 955 17 944 q 67 965 43 965 l 322 965 q 339 947 339 965 q 296 910 339 918 l 222 896 l 440 167 q 451 113 447 142 q 457 75 456 83 l 464 75 q 469 113 465 83 q 481 167 474 142 l 710 965 l 810 965 l 1054 167 q 1067 113 1063 142 q 1071 75 1071 83 l 1079 75 q 1085 113 1081 83 q 1096 167 1089 142 l 1300 897 l 1211 897 q 1194 905 1200 897 q 1188 926 1188 913 q 1201 955 1188 944 q 1239 965 1215 965 l 1475 965 q 1492 947 1492 965 q 1457 914 1492 924 l 1388 896 l 1131 0 l 993 0 l 772 731 q 760 792 764 757 q 754 839 756 828 l 747 839 q 741 792 746 828 q 728 731 736 757 l 518 0 l 381 0 l 110 897 z "},"X":{"ha":982,"x_min":21,"x_max":961,"o":"m 44 0 q 21 29 21 0 q 34 58 21 47 q 71 68 47 68 l 117 68 l 410 494 l 140 897 l 76 897 q 53 926 53 897 q 66 955 53 944 q 103 965 79 965 l 369 965 q 385 947 385 965 q 374 922 385 932 q 343 910 363 913 l 272 900 l 499 564 l 735 897 l 660 897 q 636 926 636 897 q 649 955 636 944 q 686 965 663 965 l 914 965 q 931 947 931 965 q 923 927 931 935 q 896 914 915 919 l 828 896 l 556 511 l 864 65 l 919 56 q 961 18 961 50 q 946 0 961 0 l 639 0 q 623 8 629 0 q 617 29 617 15 q 630 58 617 47 q 667 68 643 68 l 725 68 l 468 443 l 210 69 l 292 51 q 316 40 307 49 q 325 18 325 31 q 310 0 325 0 l 44 0 z "},"Y":{"ha":963,"x_min":17,"x_max":946,"o":"m 343 0 q 319 29 319 0 q 333 58 319 47 q 371 68 347 68 l 415 68 l 415 411 l 104 897 l 40 897 q 17 926 17 897 q 30 955 17 944 q 67 965 43 965 l 339 965 q 356 946 356 965 q 317 910 356 917 l 239 896 l 489 504 l 753 897 l 676 897 q 653 926 653 897 q 666 955 653 944 q 703 965 679 965 l 931 965 q 946 947 946 965 q 913 914 946 924 l 844 896 l 526 425 l 526 69 l 594 53 q 624 40 615 47 q 633 18 633 32 q 617 0 633 0 l 343 0 z "},"Ý":{"ha":963,"x_min":17,"x_max":946,"o":"m 396 1085 l 517 1288 l 600 1233 l 458 1044 l 396 1085 m 343 0 q 319 29 319 0 q 333 58 319 47 q 371 68 347 68 l 415 68 l 415 411 l 104 897 l 40 897 q 17 926 17 897 q 30 955 17 944 q 67 965 43 965 l 339 965 q 356 946 356 965 q 317 910 356 917 l 239 896 l 489 504 l 753 897 l 676 897 q 653 926 653 897 q 666 955 653 944 q 703 965 679 965 l 931 965 q 946 947 946 965 q 913 914 946 924 l 844 896 l 526 425 l 526 69 l 594 53 q 624 40 615 47 q 633 18 633 32 q 617 0 633 0 l 343 0 z "},"Ŷ":{"ha":963,"x_min":17,"x_max":946,"o":"m 300 1085 l 449 1274 l 507 1274 l 656 1085 l 604 1043 l 478 1181 l 351 1043 l 300 1085 m 343 0 q 319 29 319 0 q 333 58 319 47 q 371 68 347 68 l 415 68 l 415 411 l 104 897 l 40 897 q 17 926 17 897 q 30 955 17 944 q 67 965 43 965 l 339 965 q 356 946 356 965 q 317 910 356 917 l 239 896 l 489 504 l 753 897 l 676 897 q 653 926 653 897 q 666 955 653 944 q 703 965 679 965 l 931 965 q 946 947 946 965 q 913 914 946 924 l 844 896 l 526 425 l 526 69 l 594 53 q 624 40 615 47 q 633 18 633 32 q 617 0 633 0 l 343 0 z "},"Ÿ":{"ha":963,"x_min":17,"x_max":946,"o":"m 344 1058 q 296 1078 315 1058 q 276 1126 276 1097 q 296 1174 276 1156 q 344 1193 315 1193 q 392 1174 372 1193 q 411 1126 411 1156 q 392 1078 411 1097 q 344 1058 372 1058 m 611 1058 q 563 1078 582 1058 q 543 1126 543 1097 q 563 1174 543 1156 q 611 1193 582 1193 q 658 1174 639 1193 q 678 1126 678 1156 q 658 1078 678 1097 q 611 1058 639 1058 m 343 0 q 319 29 319 0 q 333 58 319 47 q 371 68 347 68 l 415 68 l 415 411 l 104 897 l 40 897 q 17 926 17 897 q 30 955 17 944 q 67 965 43 965 l 339 965 q 356 946 356 965 q 317 910 356 917 l 239 896 l 489 504 l 753 897 l 676 897 q 653 926 653 897 q 666 955 653 944 q 703 965 679 965 l 931 965 q 946 947 946 965 q 913 914 946 924 l 844 896 l 526 425 l 526 69 l 594 53 q 624 40 615 47 q 633 18 633 32 q 617 0 633 0 l 343 0 z "},"Ẏ":{"ha":963,"x_min":17,"x_max":946,"o":"m 488 1067 q 440 1086 460 1067 q 419 1135 419 1106 q 440 1183 419 1164 q 488 1203 460 1203 q 535 1183 515 1203 q 556 1135 556 1164 q 535 1086 556 1106 q 488 1067 515 1067 m 343 0 q 319 29 319 0 q 333 58 319 47 q 371 68 347 68 l 415 68 l 415 411 l 104 897 l 40 897 q 17 926 17 897 q 30 955 17 944 q 67 965 43 965 l 339 965 q 356 946 356 965 q 317 910 356 917 l 239 896 l 489 504 l 753 897 l 676 897 q 653 926 653 897 q 666 955 653 944 q 703 965 679 965 l 931 965 q 946 947 946 965 q 913 914 946 924 l 844 896 l 526 425 l 526 69 l 594 53 q 624 40 615 47 q 633 18 633 32 q 617 0 633 0 l 343 0 z "},"Ỵ":{"ha":963,"x_min":17,"x_max":946,"o":"m 343 0 q 319 29 319 0 q 333 58 319 47 q 371 68 347 68 l 415 68 l 415 411 l 104 897 l 40 897 q 17 926 17 897 q 30 955 17 944 q 67 965 43 965 l 339 965 q 356 946 356 965 q 317 910 356 917 l 239 896 l 489 504 l 753 897 l 676 897 q 653 926 653 897 q 666 955 653 944 q 703 965 679 965 l 931 965 q 946 947 946 965 q 913 914 946 924 l 844 896 l 526 425 l 526 69 l 594 53 q 624 40 615 47 q 633 18 633 32 q 617 0 633 0 l 343 0 m 472 -228 q 424 -208 444 -228 q 404 -160 404 -189 q 424 -110 404 -131 q 472 -90 444 -90 q 521 -110 501 -90 q 540 -160 540 -131 q 520 -208 540 -189 q 472 -228 500 -228 z "},"Ỳ":{"ha":963,"x_min":17,"x_max":946,"o":"m 342 1233 l 425 1288 l 546 1085 l 483 1044 l 342 1233 m 343 0 q 319 29 319 0 q 333 58 319 47 q 371 68 347 68 l 415 68 l 415 411 l 104 897 l 40 897 q 17 926 17 897 q 30 955 17 944 q 67 965 43 965 l 339 965 q 356 946 356 965 q 317 910 356 917 l 239 896 l 489 504 l 753 897 l 676 897 q 653 926 653 897 q 666 955 653 944 q 703 965 679 965 l 931 965 q 946 947 946 965 q 913 914 946 924 l 844 896 l 526 425 l 526 69 l 594 53 q 624 40 615 47 q 633 18 633 32 q 617 0 633 0 l 343 0 z "},"Ỷ":{"ha":963,"x_min":17,"x_max":946,"o":"m 444 1129 q 517 1197 517 1154 q 504 1227 517 1217 q 471 1238 492 1238 q 406 1226 444 1238 l 396 1272 q 482 1290 442 1290 q 562 1265 531 1290 q 593 1199 593 1240 q 572 1142 593 1167 q 515 1104 551 1117 l 507 1042 l 453 1042 l 444 1129 m 343 0 q 319 29 319 0 q 333 58 319 47 q 371 68 347 68 l 415 68 l 415 411 l 104 897 l 40 897 q 17 926 17 897 q 30 955 17 944 q 67 965 43 965 l 339 965 q 356 946 356 965 q 317 910 356 917 l 239 896 l 489 504 l 753 897 l 676 897 q 653 926 653 897 q 666 955 653 944 q 703 965 679 965 l 931 965 q 946 947 946 965 q 913 914 946 924 l 844 896 l 526 425 l 526 69 l 594 53 q 624 40 615 47 q 633 18 633 32 q 617 0 633 0 l 343 0 z "},"Ỹ":{"ha":963,"x_min":17,"x_max":946,"o":"m 560 1058 q 521 1065 539 1058 q 476 1083 503 1071 q 435 1101 453 1094 q 400 1107 418 1107 q 355 1098 376 1107 q 308 1071 333 1089 l 269 1122 q 335 1168 300 1150 q 401 1186 371 1186 q 438 1180 419 1186 q 485 1161 457 1174 q 558 1138 532 1138 q 649 1174 601 1138 l 688 1121 q 624 1076 658 1093 q 560 1058 590 1058 m 343 0 q 319 29 319 0 q 333 58 319 47 q 371 68 347 68 l 415 68 l 415 411 l 104 897 l 40 897 q 17 926 17 897 q 30 955 17 944 q 67 965 43 965 l 339 965 q 356 946 356 965 q 317 910 356 917 l 239 896 l 489 504 l 753 897 l 676 897 q 653 926 653 897 q 666 955 653 944 q 703 965 679 965 l 931 965 q 946 947 946 965 q 913 914 946 924 l 844 896 l 526 425 l 526 69 l 594 53 q 624 40 615 47 q 633 18 633 32 q 617 0 633 0 l 343 0 z "},"Z":{"ha":874,"x_min":68,"x_max":799,"o":"m 68 78 l 661 890 l 167 890 l 153 813 q 114 760 144 760 q 92 781 92 760 l 92 965 l 797 965 l 797 888 l 204 75 l 724 75 l 738 153 q 775 206 746 206 q 799 185 799 206 l 799 0 l 68 0 l 68 78 z "},"Ź":{"ha":874,"x_min":68,"x_max":799,"o":"m 360 1083 l 481 1286 l 564 1232 l 422 1043 l 360 1083 m 68 78 l 661 890 l 167 890 l 153 813 q 114 760 144 760 q 92 781 92 760 l 92 965 l 797 965 l 797 888 l 204 75 l 724 75 l 738 153 q 775 206 746 206 q 799 185 799 206 l 799 0 l 68 0 l 68 78 z "},"Ž":{"ha":874,"x_min":68,"x_max":799,"o":"m 269 1232 l 321 1274 l 447 1136 l 574 1274 l 625 1232 l 476 1043 l 418 1043 l 269 1232 m 68 78 l 661 890 l 167 890 l 153 813 q 114 760 144 760 q 92 781 92 760 l 92 965 l 797 965 l 797 888 l 204 75 l 724 75 l 738 153 q 775 206 746 206 q 799 185 799 206 l 799 0 l 68 0 l 68 78 z "},"Ż":{"ha":874,"x_min":68,"x_max":799,"o":"m 446 1067 q 398 1086 418 1067 q 378 1135 378 1106 q 398 1183 378 1164 q 446 1203 418 1203 q 494 1183 474 1203 q 514 1135 514 1164 q 494 1086 514 1106 q 446 1067 474 1067 m 68 78 l 661 890 l 167 890 l 153 813 q 114 760 144 760 q 92 781 92 760 l 92 965 l 797 965 l 797 888 l 204 75 l 724 75 l 738 153 q 775 206 746 206 q 799 185 799 206 l 799 0 l 68 0 l 68 78 z "},"Ẓ":{"ha":874,"x_min":68,"x_max":799,"o":"m 68 78 l 661 890 l 167 890 l 153 813 q 114 760 144 760 q 92 781 92 760 l 92 965 l 797 965 l 797 888 l 204 75 l 724 75 l 738 153 q 775 206 746 206 q 799 185 799 206 l 799 0 l 68 0 l 68 78 m 443 -228 q 395 -208 415 -228 q 375 -160 375 -189 q 395 -110 375 -131 q 443 -90 415 -90 q 492 -110 472 -90 q 511 -160 511 -131 q 491 -208 511 -189 q 443 -228 471 -228 z "},"a":{"ha":733,"x_min":61,"x_max":703,"o":"m 274 -17 q 124 33 186 -17 q 61 174 61 83 q 131 319 61 271 q 314 383 200 367 l 510 413 l 510 474 q 468 583 510 542 q 351 625 426 625 q 255 610 308 625 q 167 572 201 594 l 156 511 q 119 471 149 471 q 104 476 110 471 q 99 489 99 481 l 99 615 q 227 671 154 649 q 367 693 300 693 q 544 635 475 693 q 614 472 614 576 l 614 64 l 665 50 q 694 37 685 44 q 703 17 703 29 q 688 0 703 0 l 513 0 l 513 97 l 507 97 q 410 15 469 46 q 274 -17 350 -17 m 306 54 q 404 78 357 54 q 481 144 451 103 q 510 236 510 186 l 510 347 l 338 319 q 211 273 256 306 q 167 179 167 240 q 206 86 167 118 q 306 54 244 54 z "},"á":{"ha":733,"x_min":61,"x_max":703,"o":"m 278 817 l 399 1019 l 482 965 l 340 776 l 278 817 m 274 -17 q 124 33 186 -17 q 61 174 61 83 q 131 319 61 271 q 314 383 200 367 l 510 413 l 510 474 q 468 583 510 542 q 351 625 426 625 q 255 610 308 625 q 167 572 201 594 l 156 511 q 119 471 149 471 q 104 476 110 471 q 99 489 99 481 l 99 615 q 227 671 154 649 q 367 693 300 693 q 544 635 475 693 q 614 472 614 576 l 614 64 l 665 50 q 694 37 685 44 q 703 17 703 29 q 688 0 703 0 l 513 0 l 513 97 l 507 97 q 410 15 469 46 q 274 -17 350 -17 m 306 54 q 404 78 357 54 q 481 144 451 103 q 510 236 510 186 l 510 347 l 338 319 q 211 273 256 306 q 167 179 167 240 q 206 86 167 118 q 306 54 244 54 z "},"ă":{"ha":733,"x_min":61,"x_max":703,"o":"m 363 764 q 238 804 292 764 q 160 931 183 844 l 224 953 q 275 870 239 901 q 363 839 311 839 q 450 870 414 839 q 501 953 486 901 l 565 931 q 488 804 542 844 q 363 764 433 764 m 274 -17 q 124 33 186 -17 q 61 174 61 83 q 131 319 61 271 q 314 383 200 367 l 510 413 l 510 474 q 468 583 510 542 q 351 625 426 625 q 255 610 308 625 q 167 572 201 594 l 156 511 q 119 471 149 471 q 104 476 110 471 q 99 489 99 481 l 99 615 q 227 671 154 649 q 367 693 300 693 q 544 635 475 693 q 614 472 614 576 l 614 64 l 665 50 q 694 37 685 44 q 703 17 703 29 q 688 0 703 0 l 513 0 l 513 97 l 507 97 q 410 15 469 46 q 274 -17 350 -17 m 306 54 q 404 78 357 54 q 481 144 451 103 q 510 236 510 186 l 510 347 l 338 319 q 211 273 256 306 q 167 179 167 240 q 206 86 167 118 q 306 54 244 54 z "},"ắ":{"ha":733,"x_min":61,"x_max":703,"o":"m 313 974 l 422 1161 l 501 1111 l 369 938 l 313 974 m 361 764 q 236 804 290 764 q 158 931 182 844 l 222 953 q 274 870 238 901 q 361 839 310 839 q 449 870 413 839 q 500 953 485 901 l 564 931 q 486 804 540 844 q 361 764 432 764 m 274 -17 q 124 33 186 -17 q 61 174 61 83 q 131 319 61 271 q 314 383 200 367 l 510 413 l 510 474 q 468 583 510 542 q 351 625 426 625 q 255 610 308 625 q 167 572 201 594 l 156 511 q 119 471 149 471 q 104 476 110 471 q 99 489 99 481 l 99 615 q 227 671 154 649 q 367 693 300 693 q 544 635 475 693 q 614 472 614 576 l 614 64 l 665 50 q 694 37 685 44 q 703 17 703 29 q 688 0 703 0 l 513 0 l 513 97 l 507 97 q 410 15 469 46 q 274 -17 350 -17 m 306 54 q 404 78 357 54 q 481 144 451 103 q 510 236 510 186 l 510 347 l 338 319 q 211 273 256 306 q 167 179 167 240 q 206 86 167 118 q 306 54 244 54 z "},"ặ":{"ha":733,"x_min":61,"x_max":703,"o":"m 360 764 q 235 804 289 764 q 157 931 181 844 l 221 953 q 272 870 236 901 q 360 839 308 839 q 447 870 411 839 q 499 953 483 901 l 563 931 q 485 804 539 844 q 360 764 431 764 m 274 -17 q 124 33 186 -17 q 61 174 61 83 q 131 319 61 271 q 314 383 200 367 l 510 413 l 510 474 q 468 583 510 542 q 351 625 426 625 q 255 610 308 625 q 167 572 201 594 l 156 511 q 119 471 149 471 q 104 476 110 471 q 99 489 99 481 l 99 615 q 227 671 154 649 q 367 693 300 693 q 544 635 475 693 q 614 472 614 576 l 614 64 l 665 50 q 694 37 685 44 q 703 17 703 29 q 688 0 703 0 l 513 0 l 513 97 l 507 97 q 410 15 469 46 q 274 -17 350 -17 m 306 54 q 404 78 357 54 q 481 144 451 103 q 510 236 510 186 l 510 347 l 338 319 q 211 273 256 306 q 167 179 167 240 q 206 86 167 118 q 306 54 244 54 m 372 -228 q 324 -208 344 -228 q 304 -160 304 -189 q 324 -110 304 -131 q 372 -90 344 -90 q 421 -110 401 -90 q 440 -160 440 -131 q 420 -208 440 -189 q 372 -228 400 -228 z "},"ằ":{"ha":733,"x_min":61,"x_max":703,"o":"m 222 1111 l 301 1161 l 411 974 l 353 938 l 222 1111 m 361 764 q 236 804 290 764 q 158 931 182 844 l 222 953 q 274 870 238 901 q 361 839 310 839 q 449 870 413 839 q 500 953 485 901 l 564 931 q 486 804 540 844 q 361 764 432 764 m 274 -17 q 124 33 186 -17 q 61 174 61 83 q 131 319 61 271 q 314 383 200 367 l 510 413 l 510 474 q 468 583 510 542 q 351 625 426 625 q 255 610 308 625 q 167 572 201 594 l 156 511 q 119 471 149 471 q 104 476 110 471 q 99 489 99 481 l 99 615 q 227 671 154 649 q 367 693 300 693 q 544 635 475 693 q 614 472 614 576 l 614 64 l 665 50 q 694 37 685 44 q 703 17 703 29 q 688 0 703 0 l 513 0 l 513 97 l 507 97 q 410 15 469 46 q 274 -17 350 -17 m 306 54 q 404 78 357 54 q 481 144 451 103 q 510 236 510 186 l 510 347 l 338 319 q 211 273 256 306 q 167 179 167 240 q 206 86 167 118 q 306 54 244 54 z "},"ẳ":{"ha":733,"x_min":61,"x_max":703,"o":"m 328 1022 q 397 1086 397 1046 q 385 1115 397 1104 q 353 1125 374 1125 q 292 1114 331 1125 l 282 1158 q 364 1176 328 1176 q 441 1151 411 1176 q 471 1088 471 1126 q 451 1033 471 1057 q 396 999 431 1010 l 389 938 l 335 938 l 328 1022 m 361 764 q 236 804 290 764 q 158 931 182 844 l 222 953 q 274 870 238 901 q 361 839 310 839 q 449 870 413 839 q 500 953 485 901 l 564 931 q 486 804 540 844 q 361 764 432 764 m 274 -17 q 124 33 186 -17 q 61 174 61 83 q 131 319 61 271 q 314 383 200 367 l 510 413 l 510 474 q 468 583 510 542 q 351 625 426 625 q 255 610 308 625 q 167 572 201 594 l 156 511 q 119 471 149 471 q 104 476 110 471 q 99 489 99 481 l 99 615 q 227 671 154 649 q 367 693 300 693 q 544 635 475 693 q 614 472 614 576 l 614 64 l 665 50 q 694 37 685 44 q 703 17 703 29 q 688 0 703 0 l 513 0 l 513 97 l 507 97 q 410 15 469 46 q 274 -17 350 -17 m 306 54 q 404 78 357 54 q 481 144 451 103 q 510 236 510 186 l 510 347 l 338 319 q 211 273 256 306 q 167 179 167 240 q 206 86 167 118 q 306 54 244 54 z "},"ẵ":{"ha":733,"x_min":61,"x_max":703,"o":"m 425 1007 q 396 1012 410 1007 q 363 1026 382 1017 q 303 1046 324 1046 q 233 1017 269 1046 l 203 1067 q 253 1101 226 1088 q 303 1115 281 1115 q 367 1094 328 1115 q 390 1085 371 1093 q 424 1076 408 1076 q 493 1106 454 1076 l 524 1056 q 425 1007 472 1007 m 363 764 q 238 804 292 764 q 160 931 183 844 l 224 953 q 275 870 239 901 q 363 839 311 839 q 450 870 414 839 q 501 953 486 901 l 565 931 q 488 804 542 844 q 363 764 433 764 m 274 -17 q 124 33 186 -17 q 61 174 61 83 q 131 319 61 271 q 314 383 200 367 l 510 413 l 510 474 q 468 583 510 542 q 351 625 426 625 q 255 610 308 625 q 167 572 201 594 l 156 511 q 119 471 149 471 q 104 476 110 471 q 99 489 99 481 l 99 615 q 227 671 154 649 q 367 693 300 693 q 544 635 475 693 q 614 472 614 576 l 614 64 l 665 50 q 694 37 685 44 q 703 17 703 29 q 688 0 703 0 l 513 0 l 513 97 l 507 97 q 410 15 469 46 q 274 -17 350 -17 m 306 54 q 404 78 357 54 q 481 144 451 103 q 510 236 510 186 l 510 347 l 338 319 q 211 273 256 306 q 167 179 167 240 q 206 86 167 118 q 306 54 244 54 z "},"ǎ":{"ha":733,"x_min":61,"x_max":703,"o":"m 188 965 l 239 1007 l 365 869 l 492 1007 l 543 965 l 394 776 l 336 776 l 188 965 m 274 -17 q 124 33 186 -17 q 61 174 61 83 q 131 319 61 271 q 314 383 200 367 l 510 413 l 510 474 q 468 583 510 542 q 351 625 426 625 q 255 610 308 625 q 167 572 201 594 l 156 511 q 119 471 149 471 q 104 476 110 471 q 99 489 99 481 l 99 615 q 227 671 154 649 q 367 693 300 693 q 544 635 475 693 q 614 472 614 576 l 614 64 l 665 50 q 694 37 685 44 q 703 17 703 29 q 688 0 703 0 l 513 0 l 513 97 l 507 97 q 410 15 469 46 q 274 -17 350 -17 m 306 54 q 404 78 357 54 q 481 144 451 103 q 510 236 510 186 l 510 347 l 338 319 q 211 273 256 306 q 167 179 167 240 q 206 86 167 118 q 306 54 244 54 z "},"â":{"ha":733,"x_min":61,"x_max":703,"o":"m 182 818 l 331 1007 l 389 1007 l 538 818 l 486 776 l 360 914 l 233 776 l 182 818 m 274 -17 q 124 33 186 -17 q 61 174 61 83 q 131 319 61 271 q 314 383 200 367 l 510 413 l 510 474 q 468 583 510 542 q 351 625 426 625 q 255 610 308 625 q 167 572 201 594 l 156 511 q 119 471 149 471 q 104 476 110 471 q 99 489 99 481 l 99 615 q 227 671 154 649 q 367 693 300 693 q 544 635 475 693 q 614 472 614 576 l 614 64 l 665 50 q 694 37 685 44 q 703 17 703 29 q 688 0 703 0 l 513 0 l 513 97 l 507 97 q 410 15 469 46 q 274 -17 350 -17 m 306 54 q 404 78 357 54 q 481 144 451 103 q 510 236 510 186 l 510 347 l 338 319 q 211 273 256 306 q 167 179 167 240 q 206 86 167 118 q 306 54 244 54 z "},"ấ":{"ha":733,"x_min":61,"x_max":703,"o":"m 489 950 l 576 1101 l 651 1053 l 540 915 l 489 950 m 181 818 l 329 1007 l 388 1007 l 536 818 l 485 776 l 358 914 l 232 776 l 181 818 m 274 -17 q 124 33 186 -17 q 61 174 61 83 q 131 319 61 271 q 314 383 200 367 l 510 413 l 510 474 q 468 583 510 542 q 351 625 426 625 q 255 610 308 625 q 167 572 201 594 l 156 511 q 119 471 149 471 q 104 476 110 471 q 99 489 99 481 l 99 615 q 227 671 154 649 q 367 693 300 693 q 544 635 475 693 q 614 472 614 576 l 614 64 l 665 50 q 694 37 685 44 q 703 17 703 29 q 688 0 703 0 l 513 0 l 513 97 l 507 97 q 410 15 469 46 q 274 -17 350 -17 m 306 54 q 404 78 357 54 q 481 144 451 103 q 510 236 510 186 l 510 347 l 338 319 q 211 273 256 306 q 167 179 167 240 q 206 86 167 118 q 306 54 244 54 z "},"ậ":{"ha":733,"x_min":61,"x_max":703,"o":"m 182 818 l 331 1007 l 389 1007 l 538 818 l 486 776 l 360 914 l 233 776 l 182 818 m 274 -17 q 124 33 186 -17 q 61 174 61 83 q 131 319 61 271 q 314 383 200 367 l 510 413 l 510 474 q 468 583 510 542 q 351 625 426 625 q 255 610 308 625 q 167 572 201 594 l 156 511 q 119 471 149 471 q 104 476 110 471 q 99 489 99 481 l 99 615 q 227 671 154 649 q 367 693 300 693 q 544 635 475 693 q 614 472 614 576 l 614 64 l 665 50 q 694 37 685 44 q 703 17 703 29 q 688 0 703 0 l 513 0 l 513 97 l 507 97 q 410 15 469 46 q 274 -17 350 -17 m 306 54 q 404 78 357 54 q 481 144 451 103 q 510 236 510 186 l 510 347 l 338 319 q 211 273 256 306 q 167 179 167 240 q 206 86 167 118 q 306 54 244 54 m 361 -228 q 313 -208 333 -228 q 293 -160 293 -189 q 313 -110 293 -131 q 361 -90 333 -90 q 410 -110 390 -90 q 429 -160 429 -131 q 409 -208 429 -189 q 361 -228 389 -228 z "},"ầ":{"ha":753,"x_min":81,"x_max":722,"o":"m 88 1053 l 164 1101 l 250 950 l 199 915 l 88 1053 m 204 818 l 353 1007 l 411 1007 l 560 818 l 508 776 l 382 914 l 256 776 l 204 818 m 293 -17 q 143 33 206 -17 q 81 174 81 83 q 150 319 81 271 q 333 383 219 367 l 529 413 l 529 474 q 488 583 529 542 q 371 625 446 625 q 274 610 328 625 q 186 572 221 594 l 175 511 q 139 471 168 471 q 124 476 129 471 q 118 489 118 481 l 118 615 q 247 671 174 649 q 386 693 319 693 q 564 635 494 693 q 633 472 633 576 l 633 64 l 685 50 q 713 37 704 44 q 722 17 722 29 q 707 0 722 0 l 532 0 l 532 97 l 526 97 q 429 15 489 46 q 293 -17 369 -17 m 325 54 q 424 78 376 54 q 500 144 471 103 q 529 236 529 186 l 529 347 l 357 319 q 231 273 275 306 q 186 179 186 240 q 225 86 186 118 q 325 54 264 54 z "},"ẩ":{"ha":746,"x_min":61,"x_max":703,"o":"m 532 992 q 601 1057 601 1015 q 557 1094 601 1094 q 496 1085 531 1094 l 486 1128 q 568 1146 532 1146 q 645 1122 615 1146 q 675 1057 675 1097 q 655 1003 675 1026 q 600 968 635 981 l 593 908 l 539 908 l 532 992 m 186 818 l 335 1007 l 393 1007 l 542 818 l 490 776 l 364 914 l 238 776 l 186 818 m 274 -17 q 124 33 186 -17 q 61 174 61 83 q 131 319 61 271 q 314 383 200 367 l 510 413 l 510 474 q 468 583 510 542 q 351 625 426 625 q 255 610 308 625 q 167 572 201 594 l 156 511 q 119 471 149 471 q 104 476 110 471 q 99 489 99 481 l 99 615 q 227 671 154 649 q 367 693 300 693 q 544 635 475 693 q 614 472 614 576 l 614 64 l 665 50 q 694 37 685 44 q 703 17 703 29 q 688 0 703 0 l 513 0 l 513 97 l 507 97 q 410 15 469 46 q 274 -17 350 -17 m 306 54 q 404 78 357 54 q 481 144 451 103 q 510 236 510 186 l 510 347 l 338 319 q 211 273 256 306 q 167 179 167 240 q 206 86 167 118 q 306 54 244 54 z "},"ẫ":{"ha":733,"x_min":61,"x_max":703,"o":"m 428 1049 q 399 1053 413 1049 q 365 1068 385 1058 q 306 1088 326 1088 q 271 1080 286 1088 q 236 1058 256 1072 l 206 1108 q 256 1142 229 1129 q 306 1156 283 1156 q 369 1136 328 1156 q 426 1118 406 1118 q 496 1146 458 1118 l 526 1097 q 428 1049 475 1049 m 186 818 l 335 1007 l 393 1007 l 542 818 l 490 776 l 364 914 l 238 776 l 186 818 m 274 -17 q 124 33 186 -17 q 61 174 61 83 q 131 319 61 271 q 314 383 200 367 l 510 413 l 510 474 q 468 583 510 542 q 351 625 426 625 q 255 610 308 625 q 167 572 201 594 l 156 511 q 119 471 149 471 q 104 476 110 471 q 99 489 99 481 l 99 615 q 227 671 154 649 q 367 693 300 693 q 544 635 475 693 q 614 472 614 576 l 614 64 l 665 50 q 694 37 685 44 q 703 17 703 29 q 688 0 703 0 l 513 0 l 513 97 l 507 97 q 410 15 469 46 q 274 -17 350 -17 m 306 54 q 404 78 357 54 q 481 144 451 103 q 510 236 510 186 l 510 347 l 338 319 q 211 273 256 306 q 167 179 167 240 q 206 86 167 118 q 306 54 244 54 z "},"ä":{"ha":733,"x_min":61,"x_max":703,"o":"m 239 785 q 191 804 211 785 q 171 853 171 824 q 191 901 171 882 q 239 921 211 921 q 286 901 267 921 q 306 853 306 882 q 286 804 306 824 q 239 785 267 785 m 506 785 q 458 804 478 785 q 438 853 438 824 q 458 901 438 882 q 506 921 478 921 q 553 901 533 921 q 572 853 572 882 q 553 804 572 824 q 506 785 533 785 m 274 -17 q 124 33 186 -17 q 61 174 61 83 q 131 319 61 271 q 314 383 200 367 l 510 413 l 510 474 q 468 583 510 542 q 351 625 426 625 q 255 610 308 625 q 167 572 201 594 l 156 511 q 119 471 149 471 q 104 476 110 471 q 99 489 99 481 l 99 615 q 227 671 154 649 q 367 693 300 693 q 544 635 475 693 q 614 472 614 576 l 614 64 l 665 50 q 694 37 685 44 q 703 17 703 29 q 688 0 703 0 l 513 0 l 513 97 l 507 97 q 410 15 469 46 q 274 -17 350 -17 m 306 54 q 404 78 357 54 q 481 144 451 103 q 510 236 510 186 l 510 347 l 338 319 q 211 273 256 306 q 167 179 167 240 q 206 86 167 118 q 306 54 244 54 z "},"ạ":{"ha":733,"x_min":61,"x_max":703,"o":"m 274 -17 q 124 33 186 -17 q 61 174 61 83 q 131 319 61 271 q 314 383 200 367 l 510 413 l 510 474 q 468 583 510 542 q 351 625 426 625 q 255 610 308 625 q 167 572 201 594 l 156 511 q 119 471 149 471 q 104 476 110 471 q 99 489 99 481 l 99 615 q 227 671 154 649 q 367 693 300 693 q 544 635 475 693 q 614 472 614 576 l 614 64 l 665 50 q 694 37 685 44 q 703 17 703 29 q 688 0 703 0 l 513 0 l 513 97 l 507 97 q 410 15 469 46 q 274 -17 350 -17 m 306 54 q 404 78 357 54 q 481 144 451 103 q 510 236 510 186 l 510 347 l 338 319 q 211 273 256 306 q 167 179 167 240 q 206 86 167 118 q 306 54 244 54 m 361 -228 q 313 -208 333 -228 q 293 -160 293 -189 q 313 -110 293 -131 q 361 -90 333 -90 q 410 -110 390 -90 q 429 -160 429 -131 q 409 -208 429 -189 q 361 -228 389 -228 z "},"à":{"ha":733,"x_min":61,"x_max":703,"o":"m 247 965 l 331 1019 l 451 817 l 389 776 l 247 965 m 274 -17 q 124 33 186 -17 q 61 174 61 83 q 131 319 61 271 q 314 383 200 367 l 510 413 l 510 474 q 468 583 510 542 q 351 625 426 625 q 255 610 308 625 q 167 572 201 594 l 156 511 q 119 471 149 471 q 104 476 110 471 q 99 489 99 481 l 99 615 q 227 671 154 649 q 367 693 300 693 q 544 635 475 693 q 614 472 614 576 l 614 64 l 665 50 q 694 37 685 44 q 703 17 703 29 q 688 0 703 0 l 513 0 l 513 97 l 507 97 q 410 15 469 46 q 274 -17 350 -17 m 306 54 q 404 78 357 54 q 481 144 451 103 q 510 236 510 186 l 510 347 l 338 319 q 211 273 256 306 q 167 179 167 240 q 206 86 167 118 q 306 54 244 54 z "},"ả":{"ha":733,"x_min":61,"x_max":703,"o":"m 335 861 q 407 929 407 886 q 361 969 407 969 q 296 958 335 969 l 286 1004 q 372 1022 331 1022 q 452 997 421 1022 q 483 931 483 972 q 463 874 483 899 q 406 836 442 849 l 397 774 l 343 774 l 335 861 m 274 -17 q 124 33 186 -17 q 61 174 61 83 q 131 319 61 271 q 314 383 200 367 l 510 413 l 510 474 q 468 583 510 542 q 351 625 426 625 q 255 610 308 625 q 167 572 201 594 l 156 511 q 119 471 149 471 q 104 476 110 471 q 99 489 99 481 l 99 615 q 227 671 154 649 q 367 693 300 693 q 544 635 475 693 q 614 472 614 576 l 614 64 l 665 50 q 694 37 685 44 q 703 17 703 29 q 688 0 703 0 l 513 0 l 513 97 l 507 97 q 410 15 469 46 q 274 -17 350 -17 m 306 54 q 404 78 357 54 q 481 144 451 103 q 510 236 510 186 l 510 347 l 338 319 q 211 273 256 306 q 167 179 167 240 q 206 86 167 118 q 306 54 244 54 z "},"ā":{"ha":733,"x_min":61,"x_max":703,"o":"m 167 883 l 558 883 l 558 807 l 167 807 l 167 883 m 274 -17 q 124 33 186 -17 q 61 174 61 83 q 131 319 61 271 q 314 383 200 367 l 510 413 l 510 474 q 468 583 510 542 q 351 625 426 625 q 255 610 308 625 q 167 572 201 594 l 156 511 q 119 471 149 471 q 104 476 110 471 q 99 489 99 481 l 99 615 q 227 671 154 649 q 367 693 300 693 q 544 635 475 693 q 614 472 614 576 l 614 64 l 665 50 q 694 37 685 44 q 703 17 703 29 q 688 0 703 0 l 513 0 l 513 97 l 507 97 q 410 15 469 46 q 274 -17 350 -17 m 306 54 q 404 78 357 54 q 481 144 451 103 q 510 236 510 186 l 510 347 l 338 319 q 211 273 256 306 q 167 179 167 240 q 206 86 167 118 q 306 54 244 54 z "},"ą":{"ha":733,"x_min":61,"x_max":703,"o":"m 561 -287 q 451 -251 493 -287 q 408 -151 408 -215 q 437 -65 408 -104 q 511 0 465 -25 l 513 0 l 513 97 l 507 97 q 410 15 469 46 q 274 -17 350 -17 q 124 33 186 -17 q 61 174 61 83 q 131 319 61 271 q 314 383 200 367 l 510 413 l 510 474 q 468 583 510 542 q 351 625 426 625 q 255 610 308 625 q 167 572 201 594 l 156 511 q 119 471 149 471 q 104 476 110 471 q 99 489 99 481 l 99 615 q 227 671 154 649 q 367 693 300 693 q 544 635 475 693 q 614 472 614 576 l 614 64 l 665 50 q 694 37 685 44 q 703 17 703 29 q 688 0 703 0 l 592 0 q 517 -62 549 -21 q 485 -149 485 -103 q 510 -210 485 -189 q 576 -231 535 -231 q 632 -222 606 -231 l 642 -269 q 561 -287 601 -287 m 306 54 q 404 78 357 54 q 481 144 451 103 q 510 236 510 186 l 510 347 l 338 319 q 211 273 256 306 q 167 179 167 240 q 206 86 167 118 q 306 54 244 54 z "},"å":{"ha":733,"x_min":61,"x_max":703,"o":"m 374 763 q 281 797 315 763 q 246 883 246 832 q 281 969 246 935 q 374 1004 317 1004 q 467 969 432 1004 q 501 883 501 935 q 467 797 501 832 q 374 763 432 763 m 374 818 q 419 835 401 818 q 436 883 436 853 q 419 931 436 914 q 374 947 401 947 q 328 931 346 947 q 310 883 310 914 q 328 835 310 853 q 374 818 346 818 m 274 -17 q 124 33 186 -17 q 61 174 61 83 q 131 319 61 271 q 314 383 200 367 l 510 413 l 510 474 q 468 583 510 542 q 351 625 426 625 q 255 610 308 625 q 167 572 201 594 l 156 511 q 119 471 149 471 q 104 476 110 471 q 99 489 99 481 l 99 615 q 227 671 154 649 q 367 693 300 693 q 544 635 475 693 q 614 472 614 576 l 614 64 l 665 50 q 694 37 685 44 q 703 17 703 29 q 688 0 703 0 l 513 0 l 513 97 l 507 97 q 410 15 469 46 q 274 -17 350 -17 m 306 54 q 404 78 357 54 q 481 144 451 103 q 510 236 510 186 l 510 347 l 338 319 q 211 273 256 306 q 167 179 167 240 q 206 86 167 118 q 306 54 244 54 z "},"ǻ":{"ha":733,"x_min":61,"x_max":703,"o":"m 331 1085 l 451 1272 l 535 1219 l 393 1044 l 331 1085 m 357 761 q 264 796 299 761 q 229 882 229 831 q 265 968 229 933 q 357 1003 300 1003 q 450 968 415 1003 q 485 882 485 933 q 450 796 485 831 q 357 761 415 761 m 357 817 q 402 834 385 817 q 419 882 419 851 q 402 929 419 913 q 357 946 385 946 q 311 929 329 946 q 293 882 293 913 q 311 834 293 851 q 357 817 329 817 m 274 -17 q 124 33 186 -17 q 61 174 61 83 q 131 319 61 271 q 314 383 200 367 l 510 413 l 510 474 q 468 583 510 542 q 351 625 426 625 q 255 610 308 625 q 167 572 201 594 l 156 511 q 119 471 149 471 q 104 476 110 471 q 99 489 99 481 l 99 615 q 227 671 154 649 q 367 693 300 693 q 544 635 475 693 q 614 472 614 576 l 614 64 l 665 50 q 694 37 685 44 q 703 17 703 29 q 688 0 703 0 l 513 0 l 513 97 l 507 97 q 410 15 469 46 q 274 -17 350 -17 m 306 54 q 404 78 357 54 q 481 144 451 103 q 510 236 510 186 l 510 347 l 338 319 q 211 273 256 306 q 167 179 167 240 q 206 86 167 118 q 306 54 244 54 z "},"ɑ":{"ha":803,"x_min":54,"x_max":765,"o":"m 354 -17 q 203 22 271 -17 q 94 138 135 60 q 54 333 54 217 q 95 524 54 442 q 207 649 136 606 q 367 693 278 693 q 571 628 476 693 q 583 668 572 657 q 611 679 593 679 l 674 679 l 674 65 l 728 50 q 756 37 747 44 q 765 17 765 29 q 750 0 765 0 l 575 0 l 575 92 l 571 92 q 354 -17 496 -17 m 379 51 q 474 76 431 51 q 544 142 518 100 q 569 239 569 185 l 569 554 q 386 625 488 625 q 271 592 322 625 q 190 493 219 558 q 160 333 160 428 q 216 126 160 200 q 379 51 272 51 z "},"ã":{"ha":733,"x_min":61,"x_max":703,"o":"m 442 789 q 403 795 421 789 q 358 814 385 801 q 317 831 335 825 q 282 838 300 838 q 237 828 258 838 q 190 801 215 819 l 151 853 q 217 899 182 881 q 283 917 253 917 q 320 910 301 917 q 367 892 339 904 q 440 868 414 868 q 531 904 483 868 l 569 851 q 506 806 540 824 q 442 789 472 789 m 274 -17 q 124 33 186 -17 q 61 174 61 83 q 131 319 61 271 q 314 383 200 367 l 510 413 l 510 474 q 468 583 510 542 q 351 625 426 625 q 255 610 308 625 q 167 572 201 594 l 156 511 q 119 471 149 471 q 104 476 110 471 q 99 489 99 481 l 99 615 q 227 671 154 649 q 367 693 300 693 q 544 635 475 693 q 614 472 614 576 l 614 64 l 665 50 q 694 37 685 44 q 703 17 703 29 q 688 0 703 0 l 513 0 l 513 97 l 507 97 q 410 15 469 46 q 274 -17 350 -17 m 306 54 q 404 78 357 54 q 481 144 451 103 q 510 236 510 186 l 510 347 l 338 319 q 211 273 256 306 q 167 179 167 240 q 206 86 167 118 q 306 54 244 54 z "},"æ":{"ha":1168,"x_min":61,"x_max":1115,"o":"m 274 -17 q 124 32 186 -17 q 61 168 61 81 q 127 310 61 264 q 301 372 193 356 l 510 404 l 510 472 q 466 585 510 544 q 351 625 422 625 q 255 610 308 625 q 167 572 201 594 l 156 511 q 119 471 149 471 q 104 476 110 471 q 99 489 99 481 l 99 615 q 227 671 154 649 q 367 693 300 693 q 499 658 442 693 q 582 560 557 622 q 683 658 622 624 q 825 693 744 693 q 981 656 915 693 q 1081 556 1046 619 q 1115 413 1115 492 q 1097 326 1115 371 l 611 326 l 611 310 q 675 124 613 197 q 842 51 738 51 q 937 65 894 51 q 1021 107 979 78 q 1033 114 1024 108 q 1050 119 1042 119 q 1069 110 1061 119 q 1078 86 1078 100 q 1067 60 1078 72 q 1035 35 1056 49 q 838 -17 950 -17 q 666 26 740 -17 q 550 147 592 68 q 440 27 513 71 q 274 -17 367 -17 m 1006 394 q 1011 433 1011 417 q 960 572 1011 519 q 824 625 908 625 q 676 565 733 625 q 611 394 618 506 l 1006 394 m 306 54 q 404 82 356 54 q 483 154 453 110 q 513 247 513 199 q 509 274 511 261 q 506 304 507 288 l 506 338 l 325 310 q 209 265 251 297 q 167 174 167 233 q 206 85 167 117 q 306 54 244 54 z "},"ǽ":{"ha":1168,"x_min":61,"x_max":1115,"o":"m 515 817 l 636 1019 l 719 965 l 578 776 l 515 817 m 274 -17 q 124 32 186 -17 q 61 168 61 81 q 127 310 61 264 q 301 372 193 356 l 510 404 l 510 472 q 466 585 510 544 q 351 625 422 625 q 255 610 308 625 q 167 572 201 594 l 156 511 q 119 471 147 471 q 104 476 110 471 q 99 489 99 481 l 99 615 q 227 671 154 649 q 367 693 300 693 q 499 658 442 693 q 582 560 557 622 q 683 658 622 624 q 825 693 744 693 q 981 656 915 693 q 1081 556 1046 619 q 1115 413 1115 492 q 1097 326 1115 371 l 611 326 q 675 124 613 196 q 842 51 738 51 q 937 65 894 51 q 1021 107 979 78 q 1033 114 1024 108 q 1050 119 1042 119 q 1069 110 1061 119 q 1078 86 1078 100 q 1067 60 1078 72 q 1035 35 1056 49 q 838 -17 950 -17 q 666 26 740 -17 q 550 147 592 68 q 440 27 513 71 q 274 -17 367 -17 m 1006 394 q 1011 433 1011 417 q 960 572 1011 519 q 824 625 908 625 q 676 565 733 625 q 611 394 618 506 l 1006 394 m 306 54 q 404 82 356 54 q 483 154 453 110 q 513 247 513 199 q 509 274 511 261 q 506 304 507 288 l 506 338 l 325 310 q 209 265 251 297 q 167 174 167 233 q 206 85 167 117 q 306 54 244 54 z "},"b":{"ha":801,"x_min":29,"x_max":744,"o":"m 408 -17 q 259 6 338 -17 q 121 65 181 29 l 121 921 l 51 921 q 29 949 29 921 q 42 977 29 968 q 78 986 56 986 l 222 986 l 222 592 l 226 589 q 326 667 268 640 q 451 693 383 693 q 664 603 583 693 q 744 333 744 513 q 651 72 744 160 q 408 -17 558 -17 m 401 51 q 638 332 638 51 q 580 555 638 485 q 424 625 522 625 q 326 601 372 625 q 251 538 279 578 q 224 451 224 499 l 224 101 q 309 65 260 79 q 401 51 358 51 z "},"c":{"ha":672,"x_min":54,"x_max":621,"o":"m 388 -17 q 144 79 233 -17 q 54 339 54 175 q 94 528 54 447 q 207 651 135 608 q 375 693 279 693 q 510 668 443 693 q 611 610 576 643 l 611 486 q 606 473 611 478 q 589 468 600 468 q 567 477 575 468 q 554 507 558 486 l 542 575 q 474 610 517 597 q 386 624 431 624 q 221 549 283 624 q 158 339 158 475 q 223 127 158 203 q 393 51 288 51 q 564 106 488 51 q 575 113 567 107 q 592 119 583 119 q 613 110 604 119 q 621 86 621 100 q 575 33 621 60 q 388 -17 489 -17 z "},"ć":{"ha":672,"x_min":54,"x_max":621,"o":"m 282 817 l 403 1019 l 486 965 l 344 776 l 282 817 m 388 -17 q 144 79 233 -17 q 54 339 54 175 q 94 528 54 447 q 207 651 135 608 q 375 693 279 693 q 510 668 443 693 q 611 610 576 643 l 611 486 q 606 473 611 478 q 589 468 600 468 q 567 477 575 468 q 554 507 558 486 l 542 575 q 474 610 517 597 q 386 624 431 624 q 221 549 283 624 q 158 339 158 475 q 223 127 158 203 q 393 51 288 51 q 564 106 488 51 q 575 113 567 107 q 592 119 583 119 q 613 110 604 119 q 621 86 621 100 q 575 33 621 60 q 388 -17 489 -17 z "},"č":{"ha":672,"x_min":54,"x_max":621,"o":"m 190 965 l 242 1007 l 368 869 l 494 1007 l 546 965 l 397 776 l 339 776 l 190 965 m 388 -17 q 144 79 233 -17 q 54 339 54 175 q 94 528 54 447 q 207 651 135 608 q 375 693 279 693 q 510 668 443 693 q 611 610 576 643 l 611 486 q 606 473 611 478 q 589 468 600 468 q 567 477 575 468 q 554 507 558 486 l 542 575 q 474 610 517 597 q 386 624 431 624 q 221 549 283 624 q 158 339 158 475 q 223 127 158 203 q 393 51 288 51 q 564 106 488 51 q 575 113 567 107 q 592 119 583 119 q 613 110 604 119 q 621 86 621 100 q 575 33 621 60 q 388 -17 489 -17 z "},"ç":{"ha":672,"x_min":54,"x_max":621,"o":"m 278 -254 q 349 -215 325 -239 q 372 -160 372 -190 q 358 -114 372 -132 q 310 -86 343 -96 l 336 -14 q 129 97 204 3 q 54 339 54 190 q 94 528 54 447 q 207 651 135 608 q 375 693 279 693 q 510 668 443 693 q 611 610 576 643 l 611 486 q 606 473 611 478 q 589 468 600 468 q 567 477 575 468 q 554 507 558 486 l 542 575 q 474 610 517 597 q 386 624 431 624 q 221 549 283 624 q 158 339 158 475 q 223 127 158 203 q 393 51 288 51 q 564 106 488 51 q 575 113 567 107 q 592 119 583 119 q 613 110 604 119 q 621 86 621 100 q 575 33 621 60 q 407 -17 494 -12 l 383 -69 q 451 -162 451 -99 q 405 -245 451 -208 q 294 -296 358 -282 l 278 -254 z "},"ĉ":{"ha":672,"x_min":54,"x_max":621,"o":"m 189 818 l 338 1007 l 396 1007 l 544 818 l 493 776 l 367 914 l 240 776 l 189 818 m 388 -17 q 144 79 233 -17 q 54 339 54 175 q 94 528 54 447 q 207 651 135 608 q 375 693 279 693 q 510 668 443 693 q 611 610 576 643 l 611 486 q 606 473 611 478 q 589 468 600 468 q 567 477 575 468 q 554 507 558 486 l 542 575 q 474 610 517 597 q 386 624 431 624 q 221 549 283 624 q 158 339 158 475 q 223 127 158 203 q 393 51 288 51 q 564 106 488 51 q 575 113 567 107 q 592 119 583 119 q 613 110 604 119 q 621 86 621 100 q 575 33 621 60 q 388 -17 489 -17 z "},"ċ":{"ha":672,"x_min":54,"x_max":621,"o":"m 364 767 q 316 786 336 767 q 296 835 296 806 q 316 883 296 864 q 364 903 336 903 q 412 883 392 903 q 432 835 432 864 q 412 786 432 806 q 364 767 392 767 m 388 -17 q 144 79 233 -17 q 54 339 54 175 q 94 528 54 447 q 207 651 135 608 q 375 693 279 693 q 510 668 443 693 q 611 610 576 643 l 611 486 q 606 473 611 478 q 589 468 600 468 q 567 477 575 468 q 554 507 558 486 l 542 575 q 474 610 517 597 q 386 624 431 624 q 221 549 283 624 q 158 339 158 475 q 223 127 158 203 q 393 51 288 51 q 564 106 488 51 q 575 113 567 107 q 592 119 583 119 q 613 110 604 119 q 621 86 621 100 q 575 33 621 60 q 388 -17 489 -17 z "},"d":{"ha":811,"x_min":54,"x_max":772,"o":"m 360 -17 q 206 22 275 -17 q 95 138 136 60 q 54 333 54 217 q 95 524 54 442 q 208 649 136 606 q 372 693 281 693 q 578 629 482 693 l 578 921 l 508 921 q 486 949 486 921 q 535 986 486 986 l 679 986 l 679 65 l 735 50 q 763 37 754 44 q 772 17 772 29 q 757 0 772 0 l 582 0 l 582 94 l 576 94 q 490 14 543 44 q 360 -17 436 -17 m 385 51 q 520 103 464 51 q 576 236 576 156 l 576 554 q 392 625 494 625 q 274 592 326 625 q 191 493 222 558 q 160 333 160 428 q 217 126 160 200 q 385 51 275 51 z "},"ð":{"ha":838,"x_min":74,"x_max":764,"o":"m 385 -14 q 228 22 299 -14 q 115 128 157 58 q 74 297 74 199 q 150 498 74 424 q 361 572 226 572 q 615 486 490 572 q 531 779 615 672 l 374 708 l 347 767 l 482 826 q 274 892 397 892 q 172 879 224 892 l 172 951 q 278 965 228 965 q 569 865 458 965 l 738 940 l 764 883 l 617 817 q 699 655 671 749 q 726 449 726 561 q 640 108 726 231 q 385 -14 554 -14 m 390 61 q 556 156 499 61 q 614 408 614 251 q 507 470 569 444 q 389 496 444 496 q 240 446 293 496 q 186 294 186 396 q 243 126 186 190 q 390 61 300 61 z "},"ď":{"ha":906,"x_min":54,"x_max":917,"o":"m 360 -17 q 206 22 275 -17 q 95 138 136 60 q 54 333 54 217 q 95 524 54 442 q 208 649 136 606 q 372 693 281 693 q 578 629 482 693 l 578 921 l 508 921 q 486 949 486 921 q 535 986 486 986 l 679 986 l 679 65 l 735 50 q 763 37 754 44 q 772 17 772 29 q 757 0 772 0 l 582 0 l 582 94 l 576 94 q 490 14 543 44 q 360 -17 436 -17 m 746 746 q 794 834 772 785 q 819 915 815 883 l 779 929 q 763 950 763 933 q 772 975 763 967 q 797 983 781 983 q 813 982 807 983 l 917 957 q 868 829 900 894 q 794 715 836 764 l 746 746 m 385 51 q 520 103 464 51 q 576 236 576 156 l 576 554 q 392 625 494 625 q 274 592 326 625 q 191 493 222 558 q 160 333 160 428 q 217 126 160 200 q 385 51 275 51 z "},"đ":{"ha":794,"x_min":56,"x_max":803,"o":"m 361 -17 q 207 22 276 -17 q 97 138 138 60 q 56 333 56 217 q 97 524 56 442 q 210 649 138 606 q 374 693 282 693 q 579 629 483 693 l 579 782 l 419 782 l 419 833 l 579 833 l 579 921 l 510 921 q 488 949 488 921 q 536 986 488 986 l 681 986 l 681 833 l 803 833 l 803 782 l 681 782 l 681 65 l 736 50 q 765 37 756 44 q 774 17 774 29 q 758 0 774 0 l 583 0 l 583 94 l 578 94 q 491 14 544 44 q 361 -17 438 -17 m 386 51 q 522 103 465 51 q 578 236 578 156 l 578 554 q 393 625 496 625 q 276 592 328 625 q 192 493 224 558 q 161 333 161 428 q 219 126 161 200 q 386 51 276 51 z "},"ḍ":{"ha":811,"x_min":54,"x_max":772,"o":"m 360 -17 q 206 22 275 -17 q 95 138 136 60 q 54 333 54 217 q 95 524 54 442 q 208 649 136 606 q 372 693 281 693 q 578 629 482 693 l 578 921 l 508 921 q 486 949 486 921 q 535 986 486 986 l 679 986 l 679 65 l 735 50 q 763 37 754 44 q 772 17 772 29 q 757 0 772 0 l 582 0 l 582 94 l 576 94 q 490 14 543 44 q 360 -17 436 -17 m 385 51 q 520 103 464 51 q 576 236 576 156 l 576 554 q 392 625 494 625 q 274 592 326 625 q 191 493 222 558 q 160 333 160 428 q 217 126 160 200 q 385 51 275 51 m 406 -228 q 358 -208 378 -228 q 338 -160 338 -189 q 358 -110 338 -131 q 406 -90 378 -90 q 454 -110 435 -90 q 474 -160 474 -131 q 453 -208 474 -189 q 406 -228 433 -228 z "},"ḏ":{"ha":814,"x_min":54,"x_max":772,"o":"m 360 -17 q 206 22 275 -17 q 95 138 136 60 q 54 333 54 217 q 95 524 54 442 q 208 649 136 606 q 372 693 281 693 q 578 629 482 693 l 578 921 l 508 921 q 486 949 486 921 q 535 986 486 986 l 679 986 l 679 65 l 735 50 q 763 37 754 44 q 772 17 772 29 q 757 0 772 0 l 582 0 l 582 94 l 576 94 q 490 14 543 44 q 360 -17 436 -17 m 385 51 q 520 103 464 51 q 576 236 576 156 l 576 554 q 392 625 494 625 q 274 592 326 625 q 191 493 222 558 q 160 333 160 428 q 217 126 160 200 q 385 51 275 51 m 150 -122 l 675 -122 l 675 -196 l 150 -196 l 150 -122 z "},"e":{"ha":721,"x_min":57,"x_max":668,"o":"m 389 -17 q 215 26 290 -17 q 99 147 140 68 q 57 333 57 226 q 143 596 57 499 q 378 693 229 693 q 590 614 513 693 q 668 403 668 535 q 650 315 668 360 l 163 315 q 228 119 163 188 q 393 51 293 51 q 488 65 446 51 q 572 107 531 78 q 584 114 575 108 q 601 119 593 119 q 622 110 614 119 q 631 86 631 100 q 588 35 631 61 q 389 -17 501 -17 m 557 385 q 563 424 563 397 q 511 572 563 519 q 375 625 460 625 q 228 560 286 625 q 163 385 169 496 l 557 385 z "},"é":{"ha":721,"x_min":57,"x_max":668,"o":"m 274 817 l 394 1019 l 478 965 l 336 776 l 274 817 m 389 -17 q 215 26 290 -17 q 99 147 140 68 q 57 333 57 226 q 143 596 57 499 q 378 693 229 693 q 590 614 513 693 q 668 403 668 535 q 650 315 668 360 l 163 315 q 228 119 163 188 q 393 51 293 51 q 488 65 446 51 q 572 107 531 78 q 584 114 575 108 q 601 119 593 119 q 622 110 614 119 q 631 86 631 100 q 588 35 631 61 q 389 -17 501 -17 m 557 385 q 563 424 563 397 q 511 572 563 519 q 375 625 460 625 q 228 560 286 625 q 163 385 169 496 l 557 385 z "},"ĕ":{"ha":721,"x_min":57,"x_max":668,"o":"m 363 764 q 238 804 292 764 q 160 931 183 844 l 224 953 q 275 870 239 901 q 363 839 311 839 q 450 870 414 839 q 501 953 486 901 l 565 931 q 488 804 542 844 q 363 764 433 764 m 389 -17 q 215 26 290 -17 q 99 147 140 68 q 57 333 57 226 q 143 596 57 499 q 378 693 229 693 q 590 614 513 693 q 668 403 668 535 q 650 315 668 360 l 163 315 q 228 119 163 188 q 393 51 293 51 q 488 65 446 51 q 572 107 531 78 q 584 114 575 108 q 601 119 593 119 q 622 110 614 119 q 631 86 631 100 q 588 35 631 61 q 389 -17 501 -17 m 557 385 q 563 424 563 397 q 511 572 563 519 q 375 625 460 625 q 228 560 286 625 q 163 385 169 496 l 557 385 z "},"ě":{"ha":721,"x_min":57,"x_max":668,"o":"m 182 965 l 233 1007 l 360 869 l 486 1007 l 538 965 l 389 776 l 331 776 l 182 965 m 389 -17 q 215 26 290 -17 q 99 147 140 68 q 57 333 57 226 q 143 596 57 499 q 378 693 229 693 q 590 614 513 693 q 668 403 668 535 q 650 315 668 360 l 163 315 q 228 119 163 188 q 393 51 293 51 q 488 65 446 51 q 572 107 531 78 q 584 114 575 108 q 601 119 593 119 q 622 110 614 119 q 631 86 631 100 q 588 35 631 61 q 389 -17 501 -17 m 557 385 q 563 424 563 397 q 511 572 563 519 q 375 625 460 625 q 228 560 286 625 q 163 385 169 496 l 557 385 z "},"ê":{"ha":721,"x_min":57,"x_max":668,"o":"m 192 818 l 340 1007 l 399 1007 l 547 818 l 496 776 l 369 914 l 243 776 l 192 818 m 389 -17 q 215 26 290 -17 q 99 147 140 68 q 57 333 57 226 q 143 596 57 499 q 378 693 229 693 q 590 614 513 693 q 668 403 668 535 q 650 315 668 360 l 163 315 q 228 119 163 188 q 393 51 293 51 q 488 65 446 51 q 572 107 531 78 q 584 114 575 108 q 601 119 593 119 q 622 110 614 119 q 631 86 631 100 q 588 35 631 61 q 389 -17 501 -17 m 557 385 q 563 424 563 397 q 511 572 563 519 q 375 625 460 625 q 228 560 286 625 q 163 385 169 496 l 557 385 z "},"ế":{"ha":740,"x_min":57,"x_max":668,"o":"m 499 950 l 586 1101 l 661 1053 l 550 915 l 499 950 m 190 818 l 339 1007 l 397 1007 l 546 818 l 494 776 l 368 914 l 242 776 l 190 818 m 389 -17 q 215 26 290 -17 q 99 147 140 68 q 57 333 57 226 q 143 596 57 499 q 378 693 229 693 q 590 614 513 693 q 668 403 668 535 q 650 315 668 360 l 163 315 q 228 119 163 188 q 393 51 293 51 q 488 65 446 51 q 572 107 531 78 q 584 114 575 108 q 601 119 593 119 q 622 110 614 119 q 631 86 631 100 q 588 35 631 61 q 389 -17 501 -17 m 557 385 q 563 424 563 397 q 511 572 563 519 q 375 625 460 625 q 228 560 286 625 q 163 385 169 496 l 557 385 z "},"ệ":{"ha":721,"x_min":57,"x_max":668,"o":"m 189 818 l 338 1007 l 396 1007 l 544 818 l 493 776 l 367 914 l 240 776 l 189 818 m 389 -17 q 215 26 290 -17 q 99 147 140 68 q 57 333 57 226 q 143 596 57 499 q 378 693 229 693 q 590 614 513 693 q 668 403 668 535 q 650 315 668 360 l 163 315 q 228 119 163 188 q 393 51 293 51 q 488 65 446 51 q 572 107 531 78 q 584 114 575 108 q 601 119 593 119 q 622 110 614 119 q 631 86 631 100 q 588 35 631 61 q 389 -17 501 -17 m 557 385 q 563 424 563 397 q 511 572 563 519 q 375 625 460 625 q 228 560 286 625 q 163 385 169 496 l 557 385 m 379 -228 q 331 -208 351 -228 q 311 -160 311 -189 q 331 -110 311 -131 q 379 -90 351 -90 q 428 -110 408 -90 q 447 -160 447 -131 q 427 -208 447 -189 q 379 -228 407 -228 z "},"ề":{"ha":732,"x_min":67,"x_max":678,"o":"m 90 1053 l 167 1101 l 253 950 l 201 915 l 90 1053 m 206 818 l 354 1007 l 413 1007 l 561 818 l 510 776 l 383 914 l 257 776 l 206 818 m 399 -17 q 225 26 300 -17 q 108 147 150 68 q 67 333 67 226 q 153 596 67 499 q 388 693 239 693 q 600 614 522 693 q 678 403 678 535 q 660 315 678 360 l 172 315 q 238 119 172 188 q 403 51 303 51 q 498 65 456 51 q 582 107 540 78 q 594 114 585 108 q 611 119 603 119 q 632 110 624 119 q 640 86 640 100 q 597 35 640 61 q 399 -17 511 -17 m 567 385 q 572 424 572 397 q 521 572 572 519 q 385 625 469 625 q 238 560 296 625 q 172 385 179 496 l 567 385 z "},"ể":{"ha":725,"x_min":57,"x_max":693,"o":"m 550 992 q 619 1057 619 1015 q 575 1094 619 1094 q 514 1085 547 1094 l 504 1128 q 586 1146 550 1146 q 663 1122 633 1146 q 693 1057 693 1097 q 673 1003 693 1026 q 618 968 653 981 l 611 908 l 557 908 l 550 992 m 204 818 l 353 1007 l 411 1007 l 560 818 l 508 776 l 382 914 l 256 776 l 204 818 m 389 -17 q 215 26 290 -17 q 99 147 140 68 q 57 333 57 226 q 143 596 57 499 q 378 693 229 693 q 590 614 513 693 q 668 403 668 535 q 650 315 668 360 l 163 315 q 228 119 163 188 q 393 51 293 51 q 488 65 446 51 q 572 107 531 78 q 584 114 575 108 q 601 119 593 119 q 622 110 614 119 q 631 86 631 100 q 588 35 631 61 q 389 -17 501 -17 m 557 385 q 563 424 563 397 q 511 572 563 519 q 375 625 460 625 q 228 560 286 625 q 163 385 169 496 l 557 385 z "},"ễ":{"ha":722,"x_min":57,"x_max":668,"o":"m 431 1049 q 401 1053 415 1049 q 368 1068 388 1058 q 308 1088 329 1088 q 274 1080 289 1088 q 239 1058 258 1072 l 208 1108 q 259 1142 232 1129 q 308 1156 286 1156 q 372 1136 331 1156 q 429 1118 408 1118 q 499 1146 461 1118 l 529 1097 q 431 1049 478 1049 m 189 818 l 338 1007 l 396 1007 l 544 818 l 493 776 l 367 914 l 240 776 l 189 818 m 389 -17 q 215 26 290 -17 q 99 147 140 68 q 57 333 57 226 q 143 596 57 499 q 378 693 229 693 q 590 614 513 693 q 668 403 668 535 q 650 315 668 360 l 163 315 q 228 119 163 188 q 393 51 293 51 q 488 65 446 51 q 572 107 531 78 q 584 114 575 108 q 601 119 593 119 q 622 110 614 119 q 631 86 631 100 q 588 35 631 61 q 389 -17 501 -17 m 557 385 q 563 424 563 397 q 511 572 563 519 q 375 625 460 625 q 228 560 286 625 q 163 385 169 496 l 557 385 z "},"ë":{"ha":721,"x_min":57,"x_max":668,"o":"m 236 785 q 188 804 208 785 q 168 853 168 824 q 188 901 168 882 q 236 921 208 921 q 283 901 264 921 q 303 853 303 882 q 283 804 303 824 q 236 785 264 785 m 503 785 q 455 804 475 785 q 435 853 435 824 q 455 901 435 882 q 503 921 475 921 q 550 901 531 921 q 569 853 569 882 q 550 804 569 824 q 503 785 531 785 m 389 -17 q 215 26 290 -17 q 99 147 140 68 q 57 333 57 226 q 143 596 57 499 q 378 693 229 693 q 590 614 513 693 q 668 403 668 535 q 650 315 668 360 l 163 315 q 228 119 163 188 q 393 51 293 51 q 488 65 446 51 q 572 107 531 78 q 584 114 575 108 q 601 119 593 119 q 622 110 614 119 q 631 86 631 100 q 588 35 631 61 q 389 -17 501 -17 m 557 385 q 563 424 563 397 q 511 572 563 519 q 375 625 460 625 q 228 560 286 625 q 163 385 169 496 l 557 385 z "},"ė":{"ha":721,"x_min":57,"x_max":668,"o":"m 367 767 q 319 786 339 767 q 299 835 299 806 q 319 883 299 864 q 367 903 339 903 q 415 883 394 903 q 435 835 435 864 q 415 786 435 806 q 367 767 394 767 m 389 -17 q 215 26 290 -17 q 99 147 140 68 q 57 333 57 226 q 143 596 57 499 q 378 693 229 693 q 590 614 513 693 q 668 403 668 535 q 650 315 668 360 l 163 315 q 228 119 163 188 q 393 51 293 51 q 488 65 446 51 q 572 107 531 78 q 584 114 575 108 q 601 119 593 119 q 622 110 614 119 q 631 86 631 100 q 588 35 631 61 q 389 -17 501 -17 m 557 385 q 563 424 563 397 q 511 572 563 519 q 375 625 460 625 q 228 560 286 625 q 163 385 169 496 l 557 385 z "},"ẹ":{"ha":721,"x_min":57,"x_max":668,"o":"m 389 -17 q 215 26 290 -17 q 99 147 140 68 q 57 333 57 226 q 143 596 57 499 q 378 693 229 693 q 590 614 513 693 q 668 403 668 535 q 650 315 668 360 l 163 315 q 228 119 163 188 q 393 51 293 51 q 488 65 446 51 q 572 107 531 78 q 584 114 575 108 q 601 119 593 119 q 622 110 614 119 q 631 86 631 100 q 588 35 631 61 q 389 -17 501 -17 m 557 385 q 563 424 563 397 q 511 572 563 519 q 375 625 460 625 q 228 560 286 625 q 163 385 169 496 l 557 385 m 379 -228 q 331 -208 351 -228 q 311 -160 311 -189 q 331 -110 311 -131 q 379 -90 351 -90 q 428 -110 408 -90 q 447 -160 447 -131 q 427 -208 447 -189 q 379 -228 407 -228 z "},"è":{"ha":721,"x_min":57,"x_max":668,"o":"m 246 965 l 329 1019 l 450 817 l 388 776 l 246 965 m 389 -17 q 215 26 290 -17 q 99 147 140 68 q 57 333 57 226 q 143 596 57 499 q 378 693 229 693 q 590 614 513 693 q 668 403 668 535 q 650 315 668 360 l 163 315 q 228 119 163 188 q 393 51 293 51 q 488 65 446 51 q 572 107 531 78 q 584 114 575 108 q 601 119 593 119 q 622 110 614 119 q 631 86 631 100 q 588 35 631 61 q 389 -17 501 -17 m 557 385 q 563 424 563 397 q 511 572 563 519 q 375 625 460 625 q 228 560 286 625 q 163 385 169 496 l 557 385 z "},"ẻ":{"ha":721,"x_min":57,"x_max":668,"o":"m 342 861 q 414 929 414 886 q 368 969 414 969 q 303 958 342 969 l 293 1004 q 379 1022 338 1022 q 459 997 428 1022 q 490 931 490 972 q 469 874 490 899 q 413 836 449 849 l 404 774 l 350 774 l 342 861 m 389 -17 q 215 26 290 -17 q 99 147 140 68 q 57 333 57 226 q 143 596 57 499 q 378 693 229 693 q 590 614 513 693 q 668 403 668 535 q 650 315 668 360 l 163 315 q 228 119 163 188 q 393 51 293 51 q 488 65 446 51 q 572 107 531 78 q 584 114 575 108 q 601 119 593 119 q 622 110 614 119 q 631 86 631 100 q 588 35 631 61 q 389 -17 501 -17 m 557 385 q 563 424 563 397 q 511 572 563 519 q 375 625 460 625 q 228 560 286 625 q 163 385 169 496 l 557 385 z "},"ē":{"ha":721,"x_min":57,"x_max":668,"o":"m 171 883 l 563 883 l 563 807 l 171 807 l 171 883 m 389 -17 q 215 26 290 -17 q 99 147 140 68 q 57 333 57 226 q 143 596 57 499 q 378 693 229 693 q 590 614 513 693 q 668 403 668 535 q 650 315 668 360 l 163 315 q 228 119 163 188 q 393 51 293 51 q 488 65 446 51 q 572 107 531 78 q 584 114 575 108 q 601 119 593 119 q 622 110 614 119 q 631 86 631 100 q 588 35 631 61 q 389 -17 501 -17 m 557 385 q 563 424 563 397 q 511 572 563 519 q 375 625 460 625 q 228 560 286 625 q 163 385 169 496 l 557 385 z "},"ę":{"ha":721,"x_min":57,"x_max":668,"o":"m 443 -287 q 333 -251 375 -287 q 290 -151 290 -215 q 311 -76 290 -111 q 367 -17 332 -42 q 142 84 226 -10 q 57 333 57 178 q 143 596 57 499 q 378 693 229 693 q 590 614 513 693 q 668 403 668 535 q 650 315 668 360 l 163 315 q 228 119 163 188 q 393 51 293 51 q 485 65 447 51 q 572 107 522 78 q 584 114 575 108 q 601 119 593 119 q 622 110 614 119 q 631 86 631 100 q 588 36 631 63 q 451 -12 525 -3 q 391 -72 415 -36 q 367 -149 367 -108 q 392 -210 367 -189 q 458 -231 417 -231 q 514 -222 488 -231 l 524 -269 q 443 -287 483 -287 m 557 385 q 563 424 563 397 q 511 572 563 519 q 375 625 460 625 q 228 560 286 625 q 163 385 169 496 l 557 385 z "},"ẽ":{"ha":721,"x_min":57,"x_max":668,"o":"m 460 789 q 421 795 439 789 q 376 814 403 801 q 335 831 353 825 q 300 838 318 838 q 255 828 276 838 q 208 801 233 819 l 169 853 q 235 899 200 881 q 301 917 271 917 q 338 910 319 917 q 385 892 357 904 q 458 868 432 868 q 549 904 501 868 l 588 851 q 524 806 558 824 q 460 789 490 789 m 389 -17 q 215 26 290 -17 q 99 147 140 68 q 57 333 57 226 q 143 596 57 499 q 378 693 229 693 q 590 614 513 693 q 668 403 668 535 q 650 315 668 360 l 163 315 q 228 119 163 188 q 393 51 293 51 q 488 65 446 51 q 572 107 531 78 q 584 114 575 108 q 601 119 593 119 q 622 110 614 119 q 631 86 631 100 q 588 35 631 61 q 389 -17 501 -17 m 557 385 q 563 424 563 397 q 511 572 563 519 q 375 625 460 625 q 228 560 286 625 q 163 385 169 496 l 557 385 z "},"f":{"ha":560,"x_min":63,"x_max":550,"o":"m 94 0 q 72 28 72 0 q 85 56 72 46 q 121 65 99 65 l 165 65 l 165 606 l 86 606 q 69 614 75 606 q 63 636 63 622 q 76 665 63 654 q 111 676 89 676 l 165 676 l 165 801 q 220 947 165 896 q 364 999 275 999 q 469 981 419 999 q 550 935 519 963 l 550 815 q 544 802 550 807 q 529 797 539 797 q 507 806 515 797 q 494 836 499 815 l 482 901 q 382 929 440 929 q 300 897 331 929 q 269 807 269 865 l 269 676 l 446 676 q 464 657 464 676 q 401 617 464 622 l 269 606 l 269 65 l 335 50 q 363 36 354 43 q 372 17 372 29 q 356 0 372 0 l 94 0 z "},"g":{"ha":765,"x_min":54,"x_max":682,"o":"m 379 -319 q 261 -305 319 -319 q 160 -265 203 -290 q 126 -240 138 -251 q 114 -212 114 -228 q 122 -189 114 -197 q 142 -181 131 -181 q 158 -185 149 -181 q 171 -193 167 -190 q 269 -235 215 -221 q 376 -250 322 -250 q 530 -201 478 -250 q 582 -57 582 -153 l 582 90 l 576 90 q 488 13 542 42 q 358 -17 433 -17 q 206 22 275 -17 q 95 138 136 60 q 54 333 54 217 q 100 531 54 450 q 223 653 146 613 q 396 693 300 693 q 549 664 471 693 q 682 589 628 635 l 682 -42 q 605 -247 682 -174 q 379 -319 528 -319 m 383 51 q 479 75 435 51 q 551 141 524 99 q 578 236 578 183 l 578 567 q 492 610 540 594 q 396 625 443 625 q 277 592 331 625 q 192 494 224 560 q 160 333 160 428 q 218 126 160 200 q 383 51 276 51 z "},"ğ":{"ha":765,"x_min":54,"x_max":682,"o":"m 389 764 q 264 804 318 764 q 186 931 210 844 l 250 953 q 301 870 265 901 q 389 839 338 839 q 476 870 440 839 q 528 953 513 901 l 592 931 q 514 804 568 844 q 389 764 460 764 m 379 -319 q 261 -305 319 -319 q 160 -265 203 -290 q 126 -240 138 -251 q 114 -212 114 -228 q 122 -189 114 -197 q 142 -181 131 -181 q 158 -185 149 -181 q 171 -193 167 -190 q 269 -235 215 -221 q 376 -250 322 -250 q 530 -201 478 -250 q 582 -57 582 -153 l 582 90 l 576 90 q 488 13 542 42 q 358 -17 433 -17 q 206 22 275 -17 q 95 138 136 60 q 54 333 54 217 q 100 531 54 450 q 223 653 146 613 q 396 693 300 693 q 549 664 471 693 q 682 589 628 635 l 682 -42 q 605 -247 682 -174 q 379 -319 528 -319 m 383 51 q 479 75 435 51 q 551 141 524 99 q 578 236 578 183 l 578 567 q 492 610 540 594 q 396 625 443 625 q 277 592 331 625 q 192 494 224 560 q 160 333 160 428 q 218 126 160 200 q 383 51 276 51 z "},"ǧ":{"ha":765,"x_min":54,"x_max":682,"o":"m 206 965 l 257 1007 l 383 869 l 510 1007 l 561 965 l 413 776 l 354 776 l 206 965 m 379 -319 q 261 -305 319 -319 q 160 -265 203 -290 q 126 -240 138 -251 q 114 -212 114 -228 q 122 -189 114 -197 q 142 -181 131 -181 q 158 -185 149 -181 q 171 -193 167 -190 q 269 -235 215 -221 q 376 -250 322 -250 q 530 -201 478 -250 q 582 -57 582 -153 l 582 90 l 576 90 q 488 13 542 42 q 358 -17 433 -17 q 206 22 275 -17 q 95 138 136 60 q 54 333 54 217 q 100 531 54 450 q 223 653 146 613 q 396 693 300 693 q 549 664 471 693 q 682 589 628 635 l 682 -42 q 605 -247 682 -174 q 379 -319 528 -319 m 383 51 q 479 75 435 51 q 551 141 524 99 q 578 236 578 183 l 578 567 q 492 610 540 594 q 396 625 443 625 q 277 592 331 625 q 192 494 224 560 q 160 333 160 428 q 218 126 160 200 q 383 51 276 51 z "},"ĝ":{"ha":765,"x_min":54,"x_max":682,"o":"m 214 818 l 363 1007 l 421 1007 l 569 818 l 518 776 l 392 914 l 265 776 l 214 818 m 379 -319 q 261 -305 319 -319 q 160 -265 203 -290 q 126 -240 138 -251 q 114 -212 114 -228 q 122 -189 114 -197 q 142 -181 131 -181 q 158 -185 149 -181 q 171 -193 167 -190 q 269 -235 215 -221 q 376 -250 322 -250 q 530 -201 478 -250 q 582 -57 582 -153 l 582 90 l 576 90 q 488 13 542 42 q 358 -17 433 -17 q 206 22 275 -17 q 95 138 136 60 q 54 333 54 217 q 100 531 54 450 q 223 653 146 613 q 396 693 300 693 q 549 664 471 693 q 682 589 628 635 l 682 -42 q 605 -247 682 -174 q 379 -319 528 -319 m 383 51 q 479 75 435 51 q 551 141 524 99 q 578 236 578 183 l 578 567 q 492 610 540 594 q 396 625 443 625 q 277 592 331 625 q 192 494 224 560 q 160 333 160 428 q 218 126 160 200 q 383 51 276 51 z "},"ģ":{"ha":765,"x_min":54,"x_max":682,"o":"m 350 786 q 399 914 367 849 q 472 1028 431 979 l 521 997 q 473 910 494 960 q 447 828 451 861 l 488 814 q 504 793 504 810 q 468 760 504 760 q 453 761 458 760 l 350 786 m 379 -319 q 261 -305 319 -319 q 160 -265 203 -290 q 126 -240 138 -251 q 114 -212 114 -228 q 122 -189 114 -197 q 142 -181 131 -181 q 158 -185 149 -181 q 171 -193 167 -190 q 269 -235 215 -221 q 376 -250 322 -250 q 530 -201 478 -250 q 582 -57 582 -153 l 582 90 l 576 90 q 488 13 542 42 q 358 -17 433 -17 q 206 22 275 -17 q 95 138 136 60 q 54 333 54 217 q 100 531 54 450 q 223 653 146 613 q 396 693 300 693 q 549 664 471 693 q 682 589 628 635 l 682 -42 q 605 -247 682 -174 q 379 -319 528 -319 m 383 51 q 479 75 435 51 q 551 141 524 99 q 578 236 578 183 l 578 567 q 492 610 540 594 q 396 625 443 625 q 277 592 331 625 q 192 494 224 560 q 160 333 160 428 q 218 126 160 200 q 383 51 276 51 z "},"ġ":{"ha":765,"x_min":54,"x_max":682,"o":"m 389 767 q 341 786 361 767 q 321 835 321 806 q 341 883 321 864 q 389 903 361 903 q 437 883 417 903 q 457 835 457 864 q 437 786 457 806 q 389 767 417 767 m 379 -319 q 261 -305 319 -319 q 160 -265 203 -290 q 126 -240 138 -251 q 114 -212 114 -228 q 122 -189 114 -197 q 142 -181 131 -181 q 158 -185 149 -181 q 171 -193 167 -190 q 269 -235 215 -221 q 376 -250 322 -250 q 530 -201 478 -250 q 582 -57 582 -153 l 582 90 l 576 90 q 488 13 542 42 q 358 -17 433 -17 q 206 22 275 -17 q 95 138 136 60 q 54 333 54 217 q 100 531 54 450 q 223 653 146 613 q 396 693 300 693 q 549 664 471 693 q 682 589 628 635 l 682 -42 q 605 -247 682 -174 q 379 -319 528 -319 m 383 51 q 479 75 435 51 q 551 141 524 99 q 578 236 578 183 l 578 567 q 492 610 540 594 q 396 625 443 625 q 277 592 331 625 q 192 494 224 560 q 160 333 160 428 q 218 126 160 200 q 383 51 276 51 z "},"ḡ":{"ha":765,"x_min":54,"x_max":682,"o":"m 199 883 l 590 883 l 590 807 l 199 807 l 199 883 m 379 -319 q 261 -305 319 -319 q 160 -265 203 -290 q 126 -240 138 -251 q 114 -212 114 -228 q 122 -189 114 -197 q 142 -181 131 -181 q 158 -185 149 -181 q 171 -193 167 -190 q 269 -235 215 -221 q 376 -250 322 -250 q 530 -201 478 -250 q 582 -57 582 -153 l 582 90 l 576 90 q 488 13 542 42 q 358 -17 433 -17 q 206 22 275 -17 q 95 138 136 60 q 54 333 54 217 q 100 531 54 450 q 223 653 146 613 q 396 693 300 693 q 549 664 471 693 q 682 589 628 635 l 682 -42 q 605 -247 682 -174 q 379 -319 528 -319 m 383 51 q 479 75 435 51 q 551 141 524 99 q 578 236 578 183 l 578 567 q 492 610 540 594 q 396 625 443 625 q 277 592 331 625 q 192 494 224 560 q 160 333 160 428 q 218 126 160 200 q 383 51 276 51 z "},"h":{"ha":871,"x_min":71,"x_max":839,"o":"m 93 0 q 71 28 71 0 q 84 56 71 46 q 119 65 97 65 l 163 65 l 163 921 l 93 921 q 71 949 71 921 q 84 977 71 968 q 119 986 97 986 l 263 986 l 263 586 l 267 585 q 508 693 382 693 q 671 635 607 693 q 735 479 735 578 l 735 65 l 801 50 q 830 38 821 46 q 839 17 839 31 q 822 0 839 0 l 561 0 q 539 28 539 0 q 552 56 539 46 q 588 65 565 65 l 631 65 l 631 472 q 591 581 631 540 q 478 622 551 622 q 367 592 424 622 q 267 511 311 561 l 267 65 l 333 50 q 362 38 353 46 q 371 17 371 31 q 354 0 371 0 l 93 0 z "},"ħ":{"ha":872,"x_min":72,"x_max":840,"o":"m 94 0 q 72 28 72 0 q 85 56 72 46 q 121 65 99 65 l 164 65 l 164 782 l 72 782 l 72 833 l 164 833 l 164 921 l 94 921 q 72 949 72 921 q 85 977 72 968 q 121 986 99 986 l 264 986 l 264 833 l 522 833 l 522 782 l 264 782 l 264 586 l 268 585 q 510 693 383 693 q 672 635 608 693 q 736 479 736 578 l 736 65 l 803 50 q 831 38 822 46 q 840 17 840 31 q 824 0 840 0 l 563 0 q 540 28 540 0 q 553 56 540 46 q 589 65 567 65 l 632 65 l 632 472 q 592 581 632 540 q 479 622 553 622 q 369 592 425 622 q 268 511 313 561 l 268 65 l 335 50 q 363 38 354 46 q 372 17 372 31 q 356 0 372 0 l 94 0 z "},"ḫ":{"ha":871,"x_min":71,"x_max":839,"o":"m 93 0 q 71 28 71 0 q 84 56 71 46 q 119 65 97 65 l 163 65 l 163 921 l 93 921 q 71 949 71 921 q 84 977 71 968 q 119 986 97 986 l 263 986 l 263 586 l 267 585 q 508 693 382 693 q 671 635 607 693 q 735 479 735 578 l 735 65 l 801 50 q 830 38 821 46 q 839 17 839 31 q 822 0 839 0 l 561 0 q 539 28 539 0 q 552 56 539 46 q 588 65 565 65 l 631 65 l 631 472 q 591 581 631 540 q 478 622 551 622 q 367 592 424 622 q 267 511 311 561 l 267 65 l 333 50 q 362 38 353 46 q 371 17 371 31 q 354 0 371 0 l 93 0 m 458 -269 q 333 -228 388 -269 q 256 -103 279 -187 l 319 -81 q 371 -163 335 -132 q 458 -194 407 -194 q 546 -163 510 -194 q 597 -81 582 -132 l 661 -103 q 583 -228 638 -187 q 458 -269 529 -269 z "},"ĥ":{"ha":871,"x_min":71,"x_max":839,"o":"m 297 1067 l 446 1256 l 504 1256 l 653 1067 l 601 1025 l 475 1163 l 349 1025 l 297 1067 m 93 0 q 71 28 71 0 q 84 56 71 46 q 119 65 97 65 l 163 65 l 163 921 l 93 921 q 71 949 71 921 q 84 977 71 968 q 119 986 97 986 l 263 986 l 263 586 l 267 585 q 508 693 382 693 q 671 635 607 693 q 735 479 735 578 l 735 65 l 801 50 q 830 38 821 46 q 839 17 839 31 q 822 0 839 0 l 561 0 q 539 28 539 0 q 552 56 539 46 q 588 65 565 65 l 631 65 l 631 472 q 591 581 631 540 q 478 622 551 622 q 367 592 424 622 q 267 511 311 561 l 267 65 l 333 50 q 362 38 353 46 q 371 17 371 31 q 354 0 371 0 l 93 0 z "},"ḥ":{"ha":871,"x_min":71,"x_max":839,"o":"m 93 0 q 71 28 71 0 q 84 56 71 46 q 119 65 97 65 l 163 65 l 163 921 l 93 921 q 71 949 71 921 q 84 977 71 968 q 119 986 97 986 l 263 986 l 263 586 l 267 585 q 508 693 382 693 q 671 635 607 693 q 735 479 735 578 l 735 65 l 801 50 q 830 38 821 46 q 839 17 839 31 q 822 0 839 0 l 561 0 q 539 28 539 0 q 552 56 539 46 q 588 65 565 65 l 631 65 l 631 472 q 591 581 631 540 q 478 622 551 622 q 367 592 424 622 q 267 511 311 561 l 267 65 l 333 50 q 362 38 353 46 q 371 17 371 31 q 354 0 371 0 l 93 0 m 454 -228 q 406 -208 426 -228 q 386 -160 386 -189 q 406 -110 386 -131 q 454 -90 426 -90 q 503 -110 483 -90 q 522 -160 522 -131 q 502 -208 522 -189 q 454 -228 482 -228 z "},"i":{"ha":386,"x_min":60,"x_max":360,"o":"m 201 792 q 148 812 169 792 q 126 867 126 832 q 148 922 126 901 q 201 942 169 942 q 256 922 233 942 q 278 867 278 901 q 256 812 278 832 q 201 792 233 792 m 82 0 q 60 28 60 0 q 73 56 60 46 q 108 65 86 65 l 153 65 l 153 614 l 82 614 q 60 642 60 614 q 73 670 60 661 q 108 679 86 679 l 257 679 l 257 65 l 322 50 q 351 38 342 46 q 360 17 360 31 q 343 0 360 0 l 82 0 z "},"ı":{"ha":476,"x_min":89,"x_max":389,"o":"m 111 0 q 89 28 89 0 q 102 56 89 46 q 138 65 115 65 l 182 65 l 182 614 l 111 614 q 89 642 89 614 q 102 670 89 661 q 138 679 115 679 l 286 679 l 286 65 l 351 50 q 380 38 371 46 q 389 17 389 31 q 372 0 389 0 l 111 0 z "},"í":{"ha":396,"x_min":68,"x_max":368,"o":"m 104 817 l 225 1019 l 308 965 l 167 776 l 104 817 m 90 0 q 68 28 68 0 q 81 56 68 46 q 117 65 94 65 l 161 65 l 161 614 l 90 614 q 68 642 68 614 q 81 670 68 661 q 117 679 94 679 l 265 679 l 265 65 l 331 50 q 359 38 350 46 q 368 17 368 31 q 351 0 368 0 l 90 0 z "},"ĭ":{"ha":431,"x_min":7,"x_max":413,"o":"m 210 764 q 85 804 139 764 q 7 931 31 844 l 71 953 q 122 870 86 901 q 210 839 158 839 q 297 870 261 839 q 349 953 333 901 l 413 931 q 335 804 389 844 q 210 764 281 764 m 106 0 q 83 28 83 0 q 97 56 83 46 q 132 65 110 65 l 176 65 l 176 614 l 106 614 q 83 642 83 614 q 97 670 83 661 q 132 679 110 679 l 281 679 l 281 65 l 346 50 q 374 38 365 46 q 383 17 383 31 q 367 0 383 0 l 106 0 z "},"ǐ":{"ha":399,"x_min":18,"x_max":374,"o":"m 18 965 l 69 1007 l 196 869 l 322 1007 l 374 965 l 225 776 l 167 776 l 18 965 m 86 0 q 64 28 64 0 q 77 56 64 46 q 113 65 90 65 l 157 65 l 157 614 l 86 614 q 64 642 64 614 q 77 670 64 661 q 113 679 90 679 l 261 679 l 261 65 l 326 50 q 355 38 346 46 q 364 17 364 31 q 347 0 364 0 l 86 0 z "},"î":{"ha":403,"x_min":18,"x_max":378,"o":"m 18 818 l 167 1007 l 225 1007 l 374 818 l 322 776 l 196 914 l 69 776 l 18 818 m 100 0 q 78 28 78 0 q 91 56 78 46 q 126 65 104 65 l 171 65 l 171 614 l 100 614 q 78 642 78 614 q 91 670 78 661 q 126 679 104 679 l 275 679 l 275 65 l 340 50 q 369 38 360 46 q 378 17 378 31 q 361 0 378 0 l 100 0 z "},"ï":{"ha":435,"x_min":14,"x_max":414,"o":"m 82 785 q 34 804 54 785 q 14 853 14 824 q 34 901 14 882 q 82 921 54 921 q 129 901 110 921 q 149 853 149 882 q 129 804 149 824 q 82 785 110 785 m 347 785 q 299 804 319 785 q 279 853 279 824 q 299 901 279 882 q 347 921 319 921 q 394 901 375 921 q 414 853 414 882 q 394 804 414 824 q 347 785 375 785 m 114 0 q 92 28 92 0 q 105 56 92 46 q 140 65 118 65 l 185 65 l 185 614 l 114 614 q 92 642 92 614 q 105 670 92 661 q 140 679 118 679 l 289 679 l 289 65 l 354 50 q 383 38 374 46 q 392 17 392 31 q 375 0 392 0 l 114 0 z "},"ị":{"ha":414,"x_min":74,"x_max":374,"o":"m 215 792 q 162 812 183 792 q 140 867 140 832 q 162 922 140 901 q 215 942 183 942 q 269 922 247 942 q 292 867 292 901 q 269 812 292 832 q 215 792 247 792 m 96 0 q 74 28 74 0 q 87 56 74 46 q 122 65 100 65 l 167 65 l 167 614 l 96 614 q 74 642 74 614 q 87 670 74 661 q 122 679 100 679 l 271 679 l 271 65 l 336 50 q 365 38 356 46 q 374 17 374 31 q 357 0 374 0 l 96 0 m 218 -228 q 170 -208 190 -228 q 150 -160 150 -189 q 170 -110 150 -131 q 218 -90 190 -90 q 267 -110 247 -90 q 286 -160 286 -131 q 266 -208 286 -189 q 218 -228 246 -228 z "},"ì":{"ha":404,"x_min":64,"x_max":375,"o":"m 64 965 l 147 1019 l 268 817 l 206 776 l 64 965 m 97 0 q 75 28 75 0 q 88 56 75 46 q 124 65 101 65 l 168 65 l 168 614 l 97 614 q 75 642 75 614 q 88 670 75 661 q 124 679 101 679 l 272 679 l 272 65 l 338 50 q 366 38 357 46 q 375 17 375 31 q 358 0 375 0 l 97 0 z "},"ỉ":{"ha":429,"x_min":81,"x_max":381,"o":"m 172 861 q 244 929 244 886 q 199 969 244 969 q 133 958 172 969 l 124 1004 q 210 1022 169 1022 q 290 997 258 1022 q 321 931 321 972 q 300 874 321 899 q 243 836 279 849 l 235 774 l 181 774 l 172 861 m 103 0 q 81 28 81 0 q 94 56 81 46 q 129 65 107 65 l 174 65 l 174 614 l 103 614 q 81 642 81 614 q 94 670 81 661 q 129 679 107 679 l 278 679 l 278 65 l 343 50 q 372 38 363 46 q 381 17 381 31 q 364 0 381 0 l 103 0 z "},"ĳ":{"ha":717,"x_min":60,"x_max":638,"o":"m 201 792 q 148 812 169 792 q 126 867 126 832 q 148 922 126 901 q 201 942 169 942 q 256 922 233 942 q 278 867 278 901 q 256 812 278 832 q 201 792 233 792 m 561 792 q 508 812 529 792 q 486 867 486 832 q 508 922 486 901 q 561 942 529 942 q 615 922 593 942 q 638 867 638 901 q 615 812 638 832 q 561 792 593 792 m 82 0 q 60 28 60 0 q 73 56 60 46 q 108 65 86 65 l 153 65 l 153 614 l 82 614 q 60 642 60 614 q 73 670 60 661 q 108 679 86 679 l 257 679 l 257 65 l 322 50 q 351 38 342 46 q 360 17 360 31 q 343 0 360 0 l 82 0 m 378 -319 q 335 -301 351 -319 q 317 -242 318 -282 q 471 -147 426 -206 q 515 21 515 -89 l 515 614 l 444 614 q 422 642 422 614 q 472 679 422 679 l 619 679 l 619 13 q 440 -301 619 -224 q 408 -315 424 -310 q 378 -319 392 -319 z "},"ī":{"ha":418,"x_min":4,"x_max":396,"o":"m 4 883 l 396 883 l 396 807 l 4 807 l 4 883 m 94 0 q 72 28 72 0 q 85 56 72 46 q 121 65 99 65 l 165 65 l 165 614 l 94 614 q 72 642 72 614 q 85 670 72 661 q 121 679 99 679 l 269 679 l 269 65 l 335 50 q 363 38 354 46 q 372 17 372 31 q 356 0 372 0 l 94 0 z "},"į":{"ha":457,"x_min":88,"x_max":388,"o":"m 229 792 q 176 812 197 792 q 154 867 154 832 q 176 922 154 901 q 229 942 197 942 q 283 922 261 942 q 306 867 306 901 q 283 812 306 832 q 229 792 261 792 m 246 -287 q 135 -251 178 -287 q 93 -151 93 -215 q 122 -65 93 -104 q 196 0 150 -25 l 110 0 q 88 28 88 0 q 101 56 88 46 q 136 65 114 65 l 181 65 l 181 614 l 110 614 q 88 642 88 614 q 101 670 88 661 q 136 679 114 679 l 285 679 l 285 65 l 350 50 q 378 38 369 46 q 388 17 388 31 q 371 0 388 0 l 276 0 q 201 -62 233 -21 q 169 -149 169 -103 q 194 -210 169 -189 q 261 -231 219 -231 q 317 -222 290 -231 l 326 -269 q 246 -287 286 -287 z "},"ĩ":{"ha":432,"x_min":4,"x_max":422,"o":"m 294 789 q 256 795 274 789 q 211 814 238 801 q 170 831 188 825 q 135 838 153 838 q 90 828 111 838 q 43 801 68 819 l 4 853 q 70 899 35 881 q 136 917 106 917 q 173 910 154 917 q 219 892 192 904 q 293 868 267 868 q 383 904 336 868 l 422 851 q 359 806 393 824 q 294 789 325 789 m 115 0 q 93 28 93 0 q 106 56 93 46 q 142 65 119 65 l 186 65 l 186 614 l 115 614 q 93 642 93 614 q 106 670 93 661 q 142 679 119 679 l 290 679 l 290 65 l 356 50 q 384 38 375 46 q 393 17 393 31 q 376 0 393 0 l 115 0 z "},"j":{"ha":414,"x_min":14,"x_max":335,"o":"m 258 792 q 205 812 226 792 q 183 867 183 832 q 205 922 183 901 q 258 942 226 942 q 313 922 290 942 q 335 867 335 901 q 313 812 335 832 q 258 792 290 792 m 75 -319 q 32 -301 49 -319 q 14 -242 15 -282 q 168 -147 124 -206 q 213 21 213 -89 l 213 614 l 142 614 q 119 642 119 614 q 169 679 119 679 l 317 679 l 317 13 q 271 -183 317 -108 q 138 -301 225 -258 q 75 -319 101 -319 z "},"ȷ":{"ha":394,"x_min":13,"x_max":315,"o":"m 74 -319 q 31 -301 47 -319 q 13 -242 14 -282 q 167 -147 122 -206 q 211 21 211 -89 l 211 614 l 140 614 q 118 642 118 614 q 168 679 118 679 l 315 679 l 315 13 q 136 -301 315 -224 q 103 -315 119 -310 q 74 -319 88 -319 z "},"ĵ":{"ha":439,"x_min":14,"x_max":410,"o":"m 54 818 l 203 1007 l 261 1007 l 410 818 l 358 776 l 232 914 l 106 776 l 54 818 m 75 -319 q 32 -301 49 -319 q 14 -242 15 -282 q 168 -147 124 -206 q 213 21 213 -89 l 213 614 l 142 614 q 119 642 119 614 q 169 679 119 679 l 317 679 l 317 13 q 138 -301 317 -224 q 105 -315 121 -310 q 75 -319 89 -319 z "},"k":{"ha":808,"x_min":71,"x_max":772,"o":"m 93 0 q 71 28 71 0 q 84 56 71 46 q 119 65 97 65 l 163 65 l 163 921 l 93 921 q 71 949 71 921 q 84 977 71 968 q 119 986 97 986 l 267 986 l 267 65 l 332 50 q 369 17 369 42 q 353 0 369 0 l 93 0 m 267 360 l 540 611 l 457 611 q 433 640 433 611 q 447 669 433 660 q 485 679 461 679 l 714 679 q 732 657 732 679 q 721 634 732 643 q 692 622 710 625 l 636 611 l 383 375 l 671 65 l 732 51 q 772 18 772 43 q 756 0 772 0 l 590 0 l 267 360 z "},"ķ":{"ha":808,"x_min":71,"x_max":772,"o":"m 93 0 q 71 28 71 0 q 84 56 71 46 q 119 65 97 65 l 163 65 l 163 921 l 93 921 q 71 949 71 921 q 84 977 71 968 q 119 986 97 986 l 267 986 l 267 65 l 332 50 q 369 17 369 42 q 353 0 369 0 l 93 0 m 267 360 l 540 611 l 457 611 q 433 640 433 611 q 447 669 433 660 q 485 679 461 679 l 714 679 q 732 657 732 679 q 721 634 732 643 q 692 622 710 625 l 636 611 l 383 375 l 671 65 l 732 51 q 772 18 772 43 q 756 0 772 0 l 590 0 l 267 360 m 335 -300 q 383 -212 361 -261 q 408 -131 404 -162 l 368 -117 q 351 -96 351 -112 q 360 -71 351 -79 q 386 -62 369 -62 q 401 -64 396 -62 l 506 -89 q 457 -217 489 -151 q 383 -331 425 -282 l 335 -300 z "},"ĸ":{"ha":826,"x_min":89,"x_max":790,"o":"m 111 0 q 89 28 89 0 q 102 56 89 46 q 138 65 115 65 l 181 65 l 181 614 l 111 614 q 89 642 89 614 q 102 670 89 661 q 138 679 115 679 l 285 679 l 285 65 l 350 50 q 379 38 371 44 q 388 17 388 31 q 371 0 388 0 l 111 0 m 285 360 l 558 611 l 475 611 q 451 640 451 611 q 465 669 451 660 q 503 679 479 679 l 732 679 q 750 657 750 679 q 710 622 750 631 l 654 611 l 401 375 l 689 65 l 750 51 q 781 38 771 46 q 790 18 790 31 q 774 0 790 0 l 608 0 l 285 360 z "},"l":{"ha":411,"x_min":74,"x_max":374,"o":"m 96 0 q 74 28 74 0 q 87 56 74 46 q 122 65 100 65 l 165 65 l 165 921 l 96 921 q 74 949 74 921 q 87 977 74 968 q 122 986 100 986 l 269 986 l 269 65 l 336 50 q 365 38 356 46 q 374 17 374 31 q 357 0 374 0 l 96 0 z "},"ĺ":{"ha":404,"x_min":61,"x_max":361,"o":"m 96 1099 l 217 1301 l 300 1247 l 158 1058 l 96 1099 m 83 0 q 61 28 61 0 q 74 56 61 46 q 110 65 88 65 l 153 65 l 153 921 l 83 921 q 61 949 61 921 q 74 977 61 968 q 110 986 88 986 l 257 986 l 257 65 l 324 50 q 352 38 343 46 q 361 17 361 31 q 344 0 361 0 l 83 0 z "},"ľ":{"ha":525,"x_min":74,"x_max":504,"o":"m 333 749 q 381 837 360 788 q 407 918 403 886 l 367 932 q 350 953 350 936 q 359 978 350 969 q 385 986 368 986 q 400 985 394 986 l 504 960 q 456 832 488 897 q 382 718 424 767 l 333 749 m 96 0 q 74 28 74 0 q 87 56 74 46 q 122 65 100 65 l 165 65 l 165 921 l 96 921 q 74 949 74 921 q 87 977 74 968 q 122 986 100 986 l 269 986 l 269 65 l 336 50 q 365 38 356 46 q 374 17 374 31 q 357 0 374 0 l 96 0 z "},"ļ":{"ha":403,"x_min":65,"x_max":365,"o":"m 88 0 q 65 28 65 0 q 78 56 65 46 q 114 65 92 65 l 157 65 l 157 921 l 88 921 q 65 949 65 921 q 78 977 65 968 q 114 986 92 986 l 261 986 l 261 65 l 328 50 q 356 38 347 46 q 365 17 365 31 q 349 0 365 0 l 88 0 m 104 -300 q 152 -212 131 -261 q 178 -131 174 -162 l 138 -117 q 121 -96 121 -112 q 130 -71 121 -79 q 156 -62 139 -62 q 171 -64 165 -62 l 275 -89 q 226 -217 258 -151 q 153 -331 194 -282 l 104 -300 z "},"ŀ":{"ha":535,"x_min":74,"x_max":514,"o":"m 96 0 q 74 28 74 0 q 87 56 74 46 q 122 65 100 65 l 165 65 l 165 921 l 96 921 q 74 949 74 921 q 87 977 74 968 q 122 986 100 986 l 269 986 l 269 65 l 336 50 q 365 38 356 46 q 374 17 374 31 q 357 0 374 0 l 96 0 m 446 421 q 398 440 418 421 q 378 489 378 460 q 398 538 378 518 q 446 557 418 557 q 494 538 474 557 q 514 489 514 518 q 494 440 514 460 q 446 421 474 421 z "},"ḷ":{"ha":411,"x_min":74,"x_max":374,"o":"m 96 0 q 74 28 74 0 q 87 56 74 46 q 122 65 100 65 l 165 65 l 165 921 l 96 921 q 74 949 74 921 q 87 977 74 968 q 122 986 100 986 l 269 986 l 269 65 l 336 50 q 365 38 356 46 q 374 17 374 31 q 357 0 374 0 l 96 0 m 218 -228 q 170 -208 190 -228 q 150 -160 150 -189 q 170 -110 150 -131 q 218 -90 190 -90 q 267 -110 247 -90 q 286 -160 286 -131 q 266 -208 286 -189 q 218 -228 246 -228 z "},"ḹ":{"ha":397,"x_min":-1,"x_max":390,"o":"m -1 1183 l 390 1183 l 390 1107 l -1 1107 l -1 1183 m 88 0 q 65 28 65 0 q 78 56 65 46 q 114 65 92 65 l 157 65 l 157 921 l 88 921 q 65 949 65 921 q 78 977 65 968 q 114 986 92 986 l 261 986 l 261 65 l 328 50 q 356 38 347 46 q 365 17 365 31 q 349 0 365 0 l 88 0 m 211 -228 q 163 -208 183 -228 q 143 -160 143 -189 q 163 -110 143 -131 q 211 -90 183 -90 q 260 -110 240 -90 q 279 -160 279 -131 q 259 -208 279 -189 q 211 -228 239 -228 z "},"ḻ":{"ha":442,"x_min":3,"x_max":443,"o":"m 103 0 q 81 28 81 0 q 94 56 81 46 q 129 65 107 65 l 172 65 l 172 921 l 103 921 q 81 949 81 921 q 94 977 81 968 q 129 986 107 986 l 276 986 l 276 65 l 343 50 q 372 38 363 46 q 381 17 381 31 q 364 0 381 0 l 103 0 m 3 -122 l 443 -122 l 443 -196 l 3 -196 l 3 -122 z "},"ł":{"ha":446,"x_min":65,"x_max":426,"o":"m 108 0 q 86 28 86 0 q 99 56 86 46 q 135 65 113 65 l 178 65 l 178 396 l 103 349 l 65 411 l 178 481 l 178 921 l 108 921 q 86 949 86 921 q 99 977 86 968 q 135 986 113 986 l 282 986 l 282 544 l 390 611 l 426 550 l 282 460 l 282 65 l 349 50 q 378 38 371 44 q 386 17 386 31 q 369 0 386 0 l 108 0 z "},"m":{"ha":1257,"x_min":67,"x_max":1226,"o":"m 89 0 q 67 28 67 0 q 80 56 67 46 q 115 65 93 65 l 158 65 l 158 614 l 89 614 q 67 642 67 614 q 80 670 67 661 q 115 679 93 679 l 257 679 l 257 585 l 261 585 q 372 663 315 633 q 492 693 428 693 q 606 663 556 693 q 678 576 656 633 q 793 661 735 629 q 921 693 851 693 q 1068 639 1010 693 q 1126 485 1126 585 l 1126 64 l 1190 50 q 1226 17 1226 43 q 1210 0 1226 0 l 953 0 q 931 28 931 0 q 944 56 931 46 q 979 65 957 65 l 1022 65 l 1022 476 q 987 584 1022 547 q 890 621 951 621 q 789 592 839 621 q 694 517 739 563 l 694 64 l 760 50 q 796 17 796 43 q 779 0 796 0 l 522 0 q 500 28 500 0 q 513 56 500 46 q 549 65 526 65 l 590 65 l 590 476 q 556 584 590 547 q 460 621 521 621 q 358 592 408 621 q 263 515 307 563 l 263 64 l 329 50 q 364 17 364 43 q 349 0 364 0 l 89 0 z "},"ṃ":{"ha":1257,"x_min":67,"x_max":1226,"o":"m 89 0 q 67 28 67 0 q 80 56 67 46 q 115 65 93 65 l 158 65 l 158 614 l 89 614 q 67 642 67 614 q 80 670 67 661 q 115 679 93 679 l 257 679 l 257 585 l 261 585 q 372 663 315 633 q 492 693 428 693 q 606 663 556 693 q 678 576 656 633 q 793 661 735 629 q 921 693 851 693 q 1068 639 1010 693 q 1126 485 1126 585 l 1126 64 l 1190 50 q 1226 17 1226 43 q 1210 0 1226 0 l 953 0 q 931 28 931 0 q 944 56 931 46 q 979 65 957 65 l 1022 65 l 1022 476 q 987 584 1022 547 q 890 621 951 621 q 789 592 839 621 q 694 517 739 563 l 694 64 l 760 50 q 796 17 796 43 q 779 0 796 0 l 522 0 q 500 28 500 0 q 513 56 500 46 q 549 65 526 65 l 590 65 l 590 476 q 556 584 590 547 q 460 621 521 621 q 358 592 408 621 q 263 515 307 563 l 263 64 l 329 50 q 364 17 364 43 q 349 0 364 0 l 89 0 m 640 -228 q 592 -208 613 -228 q 572 -160 572 -189 q 592 -110 572 -131 q 640 -90 613 -90 q 689 -110 669 -90 q 708 -160 708 -131 q 688 -208 708 -189 q 640 -228 668 -228 z "},"n":{"ha":867,"x_min":67,"x_max":835,"o":"m 89 0 q 67 28 67 0 q 80 56 67 46 q 115 65 93 65 l 158 65 l 158 614 l 89 614 q 67 642 67 614 q 80 670 67 661 q 115 679 93 679 l 257 679 l 257 582 l 261 582 q 504 693 379 693 q 667 635 603 693 q 731 479 731 578 l 731 65 l 797 50 q 835 17 835 42 q 818 0 835 0 l 557 0 q 535 28 535 0 q 548 56 535 46 q 583 65 561 65 l 626 65 l 626 471 q 587 580 626 539 q 474 621 547 621 q 364 591 419 621 q 263 510 308 561 l 263 65 l 329 50 q 358 38 349 46 q 367 17 367 31 q 350 0 367 0 l 89 0 z "},"ń":{"ha":867,"x_min":67,"x_max":835,"o":"m 338 817 l 458 1019 l 542 965 l 400 776 l 338 817 m 89 0 q 67 28 67 0 q 80 56 67 46 q 115 65 93 65 l 158 65 l 158 614 l 89 614 q 67 642 67 614 q 80 670 67 661 q 115 679 93 679 l 257 679 l 257 582 l 261 582 q 504 693 379 693 q 667 635 603 693 q 731 479 731 578 l 731 65 l 797 50 q 835 17 835 42 q 818 0 835 0 l 557 0 q 535 28 535 0 q 548 56 535 46 q 583 65 561 65 l 626 65 l 626 471 q 587 580 626 539 q 474 621 547 621 q 364 591 419 621 q 263 510 308 561 l 263 65 l 329 50 q 358 38 349 46 q 367 17 367 31 q 350 0 367 0 l 89 0 z "},"ŉ":{"ha":1054,"x_min":67,"x_max":1024,"o":"m 67 615 q 115 703 93 654 q 140 785 136 753 l 100 799 q 83 819 83 803 q 92 844 83 836 q 118 853 101 853 q 133 851 128 853 l 238 826 q 189 699 221 764 q 115 585 157 633 l 67 615 m 278 0 q 256 28 256 0 q 269 56 256 46 q 304 65 282 65 l 347 65 l 347 614 l 278 614 q 256 642 256 614 q 269 670 256 661 q 304 679 282 679 l 446 679 l 446 582 l 450 582 q 693 693 568 693 q 856 635 792 693 q 919 479 919 578 l 919 65 l 986 50 q 1024 17 1024 42 q 1007 0 1024 0 l 746 0 q 724 28 724 0 q 737 56 724 46 q 772 65 750 65 l 815 65 l 815 471 q 776 580 815 539 q 663 621 736 621 q 553 591 608 621 q 451 510 497 561 l 451 65 l 518 50 q 547 38 538 46 q 556 17 556 31 q 539 0 556 0 l 278 0 z "},"ň":{"ha":867,"x_min":67,"x_max":835,"o":"m 267 965 l 318 1007 l 444 869 l 571 1007 l 622 965 l 474 776 l 415 776 l 267 965 m 89 0 q 67 28 67 0 q 80 56 67 46 q 115 65 93 65 l 158 65 l 158 614 l 89 614 q 67 642 67 614 q 80 670 67 661 q 115 679 93 679 l 257 679 l 257 582 l 261 582 q 504 693 379 693 q 667 635 603 693 q 731 479 731 578 l 731 65 l 797 50 q 835 17 835 42 q 818 0 835 0 l 557 0 q 535 28 535 0 q 548 56 535 46 q 583 65 561 65 l 626 65 l 626 471 q 587 580 626 539 q 474 621 547 621 q 364 591 419 621 q 263 510 308 561 l 263 65 l 329 50 q 358 38 349 46 q 367 17 367 31 q 350 0 367 0 l 89 0 z "},"ņ":{"ha":867,"x_min":67,"x_max":835,"o":"m 89 0 q 67 28 67 0 q 80 56 67 46 q 115 65 93 65 l 158 65 l 158 614 l 89 614 q 67 642 67 614 q 80 670 67 661 q 115 679 93 679 l 257 679 l 257 582 l 261 582 q 504 693 379 693 q 667 635 603 693 q 731 479 731 578 l 731 65 l 797 50 q 835 17 835 42 q 818 0 835 0 l 557 0 q 535 28 535 0 q 548 56 535 46 q 583 65 561 65 l 626 65 l 626 471 q 587 580 626 539 q 474 621 547 621 q 364 591 419 621 q 263 510 308 561 l 263 65 l 329 50 q 358 38 349 46 q 367 17 367 31 q 350 0 367 0 l 89 0 m 360 -300 q 408 -212 386 -261 q 433 -131 429 -162 l 393 -117 q 376 -96 376 -112 q 385 -71 376 -79 q 411 -62 394 -62 q 426 -64 421 -62 l 531 -89 q 482 -217 514 -151 q 408 -331 450 -282 l 360 -300 z "},"ṅ":{"ha":867,"x_min":67,"x_max":835,"o":"m 425 767 q 377 786 397 767 q 357 835 357 806 q 377 883 357 864 q 425 903 397 903 q 473 883 453 903 q 493 835 493 864 q 473 786 493 806 q 425 767 453 767 m 89 0 q 67 28 67 0 q 80 56 67 46 q 115 65 93 65 l 158 65 l 158 614 l 89 614 q 67 642 67 614 q 80 670 67 661 q 115 679 93 679 l 257 679 l 257 582 l 261 582 q 504 693 379 693 q 667 635 603 693 q 731 479 731 578 l 731 65 l 797 50 q 835 17 835 42 q 818 0 835 0 l 557 0 q 535 28 535 0 q 548 56 535 46 q 583 65 561 65 l 626 65 l 626 471 q 587 580 626 539 q 474 621 547 621 q 364 591 419 621 q 263 510 308 561 l 263 65 l 329 50 q 358 38 349 46 q 367 17 367 31 q 350 0 367 0 l 89 0 z "}}}
